<?xml version="1.0" encoding="utf-8"?>
<!-- Generator: Adobe Illustrator 23.0.1, SVG Export Plug-In . SVG Version: 6.00 Build 0)  -->
<svg version="1.1" height="130px" width="130px" id="Layer_1" xmlns="http://www.w3.org/2000/svg" xmlns:xlink="http://www.w3.org/1999/xlink" x="0px" y="0px"
	 viewBox="0 0 123.8 116" style="enable-background:new 0 0 123.8 116;" xml:space="preserve">
<style type="text/css">
	.st0{fill:#8A5D3B;}
	.st1{fill:#BAC639;}
</style>
<g id="Steam">
</g>
<g id="Motto">
</g>
<g id="Circles">
</g>
<g id="branch">
	<g>
		<path class="st0" d="M62.2,30.7c-1-5.7-1.5-6.5-1.3-6.6c0.8-0.4,5.5,37.7,8.1,53.5c0.6,3.9-15,6.3-15.8-0.2L60.8,24"/>
		<circle class="st1" cx="42.4" cy="62" r="6.1"/>
		<circle class="st1" cx="36.3" cy="46" r="6.1"/>
		<circle class="st1" cx="42.4" cy="27.9" r="6.1"/>
		<circle class="st1" cx="74.9" cy="27.9" r="6.1"/>
		<circle class="st1" cx="60.7" cy="20.2" r="2.9"/>
		<circle class="st1" cx="51.4" cy="38.2" r="2.9"/>
		<circle class="st1" cx="70.8" cy="39.9" r="2.9"/>
		<circle class="st1" cx="70.8" cy="17.2" r="2.2"/>
		<circle class="st1" cx="47.5" cy="18" r="2.2"/>
		<circle class="st1" cx="60.5" cy="10.3" r="6.1"/>
		<circle class="st1" cx="85.3" cy="46" r="6.1"/>
		<circle class="st1" cx="79.2" cy="62" r="6.1"/>
		<polygon class="st0" points="60.6,48.9 63.5,56.4 76.5,47.2 		"/>
		<polygon class="st0" points="58.5,55.6 61,49 45.3,46.7 		"/>
	</g>
	<g>
		<path class="st1" d="M3.6,94.5v-8.8c0-0.5,0.4-0.8,0.8-0.8c0.5,0,0.8,0.4,0.8,0.8v3.6h3.9v-3.6c0-0.5,0.4-0.8,0.8-0.8
			c0.5,0,0.8,0.4,0.8,0.8v8.8c0,0.5-0.4,0.8-0.8,0.8c-0.5,0-0.8-0.4-0.8-0.8v-3.6H5.2v3.6c0,0.5-0.4,0.8-0.8,0.8
			C3.9,95.3,3.6,95,3.6,94.5z"/>
		<path class="st1" d="M14.7,94.3c-0.6-0.7-1-1.6-1-2.6c0-1,0.4-1.9,1-2.6c0.7-0.7,1.5-1.1,2.6-1.1c1,0,1.9,0.4,2.5,1.1
			c0.7,0.7,1,1.6,1,2.6c0,1-0.4,2-1,2.6c-0.6,0.7-1.5,1.1-2.5,1.1C16.2,95.4,15.3,95,14.7,94.3z M15.3,91.6c0,0.6,0.2,1.2,0.5,1.6
			c0.4,0.4,0.9,0.6,1.4,0.6c0.5,0,1-0.2,1.4-0.6c0.4-0.4,0.6-0.9,0.6-1.6c0-0.6-0.2-1.1-0.6-1.6c-0.4-0.3-0.9-0.6-1.4-0.6
			c-0.6,0-1.1,0.2-1.4,0.6C15.5,90.5,15.3,91,15.3,91.6z"/>
		<path class="st1" d="M23.3,97.3v-5.7c0,0,0,0,0,0v-2.9c0-0.4,0.4-0.8,0.8-0.8c0.4,0,0.8,0.3,0.8,0.6c0.6-0.4,1.3-0.6,2-0.6
			c2,0,3.6,1.7,3.6,3.7c0,2-1.6,3.7-3.6,3.7c-0.7,0-1.5-0.2-2-0.6v2.6c0,0.4-0.4,0.8-0.9,0.8C23.7,98.1,23.3,97.8,23.3,97.3z
			 M24.9,91.6c0,0.6,0.2,1.1,0.6,1.5c0.4,0.4,0.9,0.6,1.4,0.6c0.5,0,1-0.2,1.4-0.6c0.3-0.3,0.6-0.9,0.6-1.5c0-0.6-0.2-1.1-0.6-1.5
			c-0.4-0.4-0.9-0.6-1.4-0.6c-0.6,0-1,0.2-1.4,0.6C25.1,90.5,24.9,91.1,24.9,91.6z"/>
		<path class="st1" d="M32.5,91.6c0-2,1.6-3.7,3.6-3.7c1.9,0,3.5,1.4,3.6,3.5c0,0,0,0,0,0.1s0,0.1,0,0.1c0,0.4-0.4,0.6-0.8,0.6h-4.7
			c0.1,0.3,0.2,0.7,0.5,1c0.3,0.4,0.9,0.6,1.4,0.7c0.5,0,1.2-0.1,1.6-0.4c0.3-0.3,0.9-0.3,1.1,0c0.2,0.2,0.3,0.7,0,1
			c-0.7,0.7-1.6,1-2.7,1C34.1,95.3,32.5,93.6,32.5,91.6z M34.1,90.9h4.2c-0.2-0.6-0.9-1.5-2.2-1.6C34.8,89.4,34.2,90.3,34.1,90.9z"
			/>
		<path class="st1" d="M52.8,91.6v2.9c0,0.4-0.4,0.8-0.8,0.8c-0.4,0-0.7-0.3-0.8-0.6c-0.6,0.4-1.2,0.6-2,0.6c-1,0-1.9-0.4-2.5-1.1
			c-0.6-0.7-1-1.6-1-2.6c0-1,0.4-2,1-2.6c0.6-0.7,1.5-1.1,2.5-1.1c0.7,0,1.4,0.3,2,0.7c0.1-0.4,0.4-0.7,0.8-0.7
			c0.4,0,0.8,0.4,0.8,0.8V91.6z M51.3,91.6c0-0.6-0.2-1.2-0.6-1.5c-0.4-0.4-0.9-0.6-1.4-0.6c-0.5,0-1,0.2-1.4,0.6
			c-0.4,0.4-0.6,0.9-0.6,1.5c0,0.6,0.2,1.1,0.6,1.5c0.3,0.4,0.9,0.6,1.4,0.6c0.5,0,1-0.2,1.4-0.6C51,92.8,51.3,92.2,51.3,91.6z"/>
		<path class="st1" d="M61.8,91v3.6c0,0.4-0.3,0.8-0.8,0.8c-0.4,0-0.8-0.4-0.8-0.8V91c0-0.8-0.7-1.5-1.6-1.5c-0.8,0-1.5,0.7-1.5,1.5
			v3.6c0,0,0,0.1,0,0.2c-0.1,0.4-0.4,0.6-0.8,0.6c-0.4,0-0.8-0.4-0.8-0.8V91v-2.3c0-0.4,0.3-0.8,0.8-0.8c0.3,0,0.6,0.2,0.7,0.5
			c0.4-0.3,1-0.5,1.6-0.5C60.4,87.9,61.8,89.3,61.8,91z"/>
		<path class="st1" d="M71.2,94.5c0,0.4-0.4,0.8-0.8,0.8c-0.4,0-0.7-0.3-0.8-0.6c-0.6,0.4-1.3,0.6-2,0.6c-2,0-3.6-1.7-3.6-3.7
			c0-2,1.6-3.7,3.6-3.7c0.7,0,1.4,0.2,2,0.6v-2.8c0-0.4,0.4-0.8,0.8-0.8c0.4,0,0.8,0.4,0.8,0.8v5.9c0,0,0,0,0,0L71.2,94.5L71.2,94.5
			z M67.6,89.5c-0.5,0-1,0.2-1.4,0.6c-0.4,0.4-0.6,0.9-0.6,1.5c0,0.6,0.2,1.1,0.6,1.5c0.4,0.4,0.9,0.6,1.4,0.6c0.6,0,1-0.2,1.4-0.6
			c0.4-0.4,0.6-0.9,0.6-1.5c0-0.6-0.2-1.1-0.6-1.5C68.6,89.7,68.1,89.5,67.6,89.5z"/>
		<path class="st1" d="M78.9,94.5v-8.8c0-0.4,0.4-0.8,0.8-0.8s0.8,0.4,0.8,0.8v8h4c0.4,0,0.8,0.4,0.8,0.8c0,0.4-0.4,0.8-0.8,0.8
			h-4.8c0,0,0,0,0,0c0,0,0,0,0,0C79.3,95.3,78.9,95,78.9,94.5z"/>
		<path class="st1" d="M86.5,91.6c0-2,1.6-3.7,3.6-3.7c1.9,0,3.5,1.4,3.6,3.5c0,0,0,0,0,0.1s0,0.1,0,0.1c0,0.4-0.4,0.6-0.8,0.6h-4.7
			c0.1,0.3,0.2,0.7,0.5,1c0.3,0.4,0.9,0.6,1.4,0.7c0.5,0,1.2-0.1,1.6-0.4c0.3-0.3,0.9-0.3,1.1,0c0.2,0.2,0.3,0.7,0,1
			c-0.7,0.7-1.6,1-2.7,1C88.1,95.3,86.5,93.6,86.5,91.6z M88.1,90.9h4.2c-0.2-0.6-0.9-1.5-2.2-1.6C88.9,89.4,88.2,90.3,88.1,90.9z"
			/>
		<path class="st1" d="M102.4,91.6v2.9c0,0.4-0.4,0.8-0.8,0.8c-0.4,0-0.7-0.3-0.8-0.6c-0.6,0.4-1.2,0.6-2,0.6c-1,0-1.9-0.4-2.5-1.1
			c-0.6-0.7-1-1.6-1-2.6c0-1,0.4-2,1-2.6c0.6-0.7,1.5-1.1,2.5-1.1c0.7,0,1.4,0.3,2,0.7c0.1-0.4,0.4-0.7,0.8-0.7
			c0.4,0,0.8,0.4,0.8,0.8V91.6z M100.8,91.6c0-0.6-0.2-1.2-0.6-1.5c-0.4-0.4-0.9-0.6-1.4-0.6c-0.5,0-1,0.2-1.4,0.6
			c-0.4,0.4-0.6,0.9-0.6,1.5c0,0.6,0.2,1.1,0.6,1.5c0.3,0.4,0.9,0.6,1.4,0.6c0.5,0,1-0.2,1.4-0.6C100.6,92.8,100.8,92.2,100.8,91.6z
			"/>
		<path class="st1" d="M109.9,88.7c0,0.4-0.3,0.8-0.8,0.8c-0.3,0-0.6,0.1-0.9,0.3c-0.3,0.2-0.5,0.4-0.7,0.7c-0.4,0.5-0.5,1-0.6,1.3
			v2.8c0,0.4-0.4,0.8-0.8,0.8c-0.4,0-0.8-0.4-0.8-0.8v-5.9c0-0.4,0.4-0.8,0.8-0.8c0.4,0,0.8,0.3,0.8,0.8v0.1
			c0.1-0.1,0.2-0.2,0.3-0.3c0.5-0.3,1.1-0.6,1.9-0.6C109.5,87.9,109.9,88.3,109.9,88.7z"/>
		<path class="st1" d="M118.1,91v3.6c0,0.4-0.3,0.8-0.8,0.8c-0.4,0-0.8-0.4-0.8-0.8V91c0-0.8-0.7-1.5-1.6-1.5
			c-0.8,0-1.5,0.7-1.5,1.5v3.6c0,0,0,0.1,0,0.2c-0.1,0.4-0.4,0.6-0.8,0.6c-0.4,0-0.8-0.4-0.8-0.8V91v-2.3c0-0.4,0.3-0.8,0.8-0.8
			c0.3,0,0.6,0.2,0.7,0.5c0.4-0.3,1-0.5,1.6-0.5C116.7,87.9,118.1,89.3,118.1,91z"/>
	</g>
	<g>
		<path class="st0" d="M7.9,109.1v-5.3c0-0.3,0.2-0.5,0.5-0.5c0.3,0,0.5,0.2,0.5,0.5v2.6l2.9-3c0.2-0.2,0.5-0.2,0.7,0
			c0.2,0.2,0.2,0.5,0,0.7l-2,2l2,2.7c0.2,0.2,0.1,0.5-0.1,0.7c-0.1,0.1-0.2,0.1-0.3,0.1c-0.1,0-0.3-0.1-0.4-0.2l-1.9-2.6l-0.9,1v1.3
			c0,0.3-0.2,0.5-0.5,0.5C8.1,109.6,7.9,109.4,7.9,109.1z"/>
		<path class="st0" d="M15.2,103.9c0,0.3-0.2,0.5-0.5,0.5c-0.3,0-0.5-0.2-0.5-0.5v-0.2c0-0.3,0.2-0.5,0.5-0.5s0.5,0.2,0.5,0.5V103.9
			z M15.2,105.5v3.5c0,0.3-0.2,0.5-0.5,0.5c-0.3,0-0.5-0.2-0.5-0.5v-3.5c0-0.3,0.2-0.5,0.5-0.5C15,105,15.2,105.3,15.2,105.5z"/>
		<path class="st0" d="M16.7,107.3C16.7,107.3,16.7,107.3,16.7,107.3v-3.6c0-0.3,0.2-0.5,0.5-0.5c0.3,0,0.5,0.2,0.5,0.5v1.7
			c0.3-0.2,0.8-0.4,1.2-0.4c1.2,0,2.2,1,2.2,2.3c0,1.2-1,2.3-2.2,2.3c-0.4,0-0.9-0.2-1.2-0.4c0,0.2-0.2,0.4-0.5,0.4
			c-0.3,0-0.5-0.2-0.5-0.5L16.7,107.3L16.7,107.3z M17.7,107.3c0,0.3,0.1,0.7,0.4,0.9c0.2,0.2,0.5,0.4,0.8,0.4
			c0.3,0,0.6-0.1,0.8-0.4c0.2-0.2,0.4-0.6,0.4-0.9c0-0.4-0.1-0.7-0.4-0.9c-0.2-0.2-0.5-0.4-0.8-0.4c-0.3,0-0.6,0.1-0.8,0.4
			C17.8,106.6,17.7,107,17.7,107.3z"/>
		<path class="st0" d="M23,108.9c-0.4-0.4-0.6-1-0.6-1.6c0-0.6,0.2-1.2,0.6-1.6c0.4-0.4,0.9-0.7,1.5-0.7c0.6,0,1.1,0.3,1.5,0.7
			c0.4,0.4,0.6,1,0.6,1.6c0,0.6-0.2,1.2-0.6,1.6c-0.4,0.4-0.9,0.7-1.5,0.7C24,109.6,23.4,109.3,23,108.9z M23.4,107.3
			c0,0.4,0.1,0.7,0.3,1c0.2,0.2,0.5,0.3,0.9,0.3c0.3,0,0.6-0.1,0.8-0.3c0.2-0.3,0.3-0.6,0.3-1c0-0.4-0.1-0.7-0.3-0.9
			c-0.2-0.2-0.5-0.3-0.8-0.3c-0.3,0-0.6,0.1-0.9,0.3C23.5,106.6,23.4,106.9,23.4,107.3z"/>
		<path class="st0" d="M32.2,107.3v1.7c0,1.2-1,2.2-2.1,2.2c-0.3,0-0.7-0.1-0.9-0.2c-0.2-0.1-0.3-0.4-0.2-0.7
			c0.1-0.2,0.4-0.3,0.6-0.2c0.2,0.1,0.3,0.1,0.5,0.1c0.6,0,1.1-0.4,1.2-1c-0.3,0.2-0.7,0.4-1.2,0.4c-0.6,0-1.1-0.3-1.5-0.7
			c-0.4-0.4-0.6-1-0.6-1.6c0-0.6,0.2-1.2,0.6-1.6c0.4-0.4,0.9-0.7,1.5-0.7c0.5,0,0.9,0.1,1.2,0.4c0-0.2,0.2-0.4,0.5-0.4
			c0.3,0,0.5,0.2,0.5,0.5L32.2,107.3C32.2,107.3,32.2,107.3,32.2,107.3z M31.3,107.3c0-0.4-0.1-0.7-0.3-0.9
			c-0.2-0.3-0.5-0.4-0.9-0.4c-0.3,0-0.6,0.1-0.8,0.4c-0.2,0.2-0.4,0.6-0.4,0.9c0,0.4,0.1,0.7,0.4,0.9c0.2,0.2,0.5,0.4,0.8,0.4
			c0.3,0,0.6-0.1,0.9-0.4C31.1,108.1,31.3,107.7,31.3,107.3z"/>
		<path class="st0" d="M34.5,108.9c-0.4-0.4-0.6-1-0.6-1.6c0-0.6,0.2-1.2,0.6-1.6c0.4-0.4,0.9-0.7,1.5-0.7c0.6,0,1.1,0.3,1.5,0.7
			c0.4,0.4,0.6,1,0.6,1.6c0,0.6-0.2,1.2-0.6,1.6c-0.4,0.4-0.9,0.7-1.5,0.7C35.4,109.6,34.9,109.3,34.5,108.9z M34.9,107.3
			c0,0.4,0.1,0.7,0.3,1c0.2,0.2,0.5,0.3,0.9,0.3c0.3,0,0.6-0.1,0.8-0.3c0.2-0.3,0.3-0.6,0.3-1c0-0.4-0.1-0.7-0.3-0.9
			c-0.2-0.2-0.5-0.3-0.8-0.3c-0.3,0-0.6,0.1-0.9,0.3C35,106.6,34.9,106.9,34.9,107.3z"/>
		<path class="st0" d="M38.8,110.7c0-0.3,0.2-0.5,0.5-0.5v-4.7c0-0.3,0.2-0.5,0.5-0.5c0.3,0,0.5,0.2,0.5,0.5v4.7c0,0.5-0.4,1-1,1
			C39,111.2,38.8,111,38.8,110.7z M39.3,103.9v-0.2c0-0.3,0.2-0.5,0.5-0.5c0.3,0,0.5,0.2,0.5,0.5v0.2c0,0.3-0.2,0.5-0.5,0.5
			C39.5,104.4,39.3,104.2,39.3,103.9z"/>
		<path class="st0" d="M42.9,103.9c0,0.3-0.2,0.5-0.5,0.5c-0.3,0-0.5-0.2-0.5-0.5v-0.2c0-0.3,0.2-0.5,0.5-0.5s0.5,0.2,0.5,0.5V103.9
			z M42.9,105.5v3.5c0,0.3-0.2,0.5-0.5,0.5c-0.3,0-0.5-0.2-0.5-0.5v-3.5c0-0.3,0.2-0.5,0.5-0.5C42.7,105,42.9,105.3,42.9,105.5z"/>
		<path class="st0" d="M48.2,109.1c0,0.3-0.2,0.5-0.5,0.5c-0.3,0-0.5-0.2-0.5-0.5v-5.3c0,0,0,0,0,0c0-0.2,0.1-0.3,0.2-0.4
			c0.2-0.2,0.5-0.1,0.7,0.1l2.9,4.1v-3.8c0-0.3,0.2-0.5,0.5-0.5s0.5,0.2,0.5,0.5v5.3c0,0.3-0.2,0.5-0.5,0.5c-0.1,0-0.3-0.1-0.4-0.2
			c0,0,0,0,0-0.1l-2.9-4L48.2,109.1L48.2,109.1z"/>
		<path class="st0" d="M55.8,109.6c-1,0-1.9-0.9-1.9-1.9v-2.2c0-0.3,0.2-0.5,0.5-0.5c0.3,0,0.5,0.2,0.5,0.5v2.2
			c0,0.5,0.4,0.9,0.9,0.9c0.5,0,0.9-0.4,0.9-0.9v-2.2c0-0.3,0.2-0.5,0.5-0.5c0.3,0,0.5,0.2,0.5,0.5v2.2
			C57.7,108.7,56.8,109.6,55.8,109.6z"/>
		<path class="st0" d="M62.3,105.5c0,0.3-0.2,0.5-0.5,0.5c-0.2,0-0.4,0.1-0.5,0.2c-0.2,0.1-0.3,0.3-0.4,0.4
			c-0.2,0.3-0.3,0.6-0.4,0.8v1.7c0,0.3-0.2,0.5-0.5,0.5c-0.3,0-0.5-0.2-0.5-0.5v-3.6c0-0.3,0.2-0.5,0.5-0.5c0.3,0,0.5,0.2,0.5,0.5
			v0.1c0.1-0.1,0.1-0.1,0.2-0.2c0.3-0.2,0.7-0.4,1.1-0.4C62,105,62.3,105.3,62.3,105.5z"/>
		<path class="st0" d="M63.2,108.3c0.2-0.2,0.5-0.2,0.7-0.1c0.2,0.2,0.6,0.4,1,0.4c0.2,0,0.5-0.1,0.6-0.2c0.1-0.1,0.2-0.2,0.2-0.3
			c0,0,0-0.1,0-0.1c0,0,0-0.1-0.1-0.1c-0.1-0.1-0.4-0.2-0.7-0.3h0c-0.3-0.1-0.5-0.1-0.8-0.2c-0.2-0.1-0.5-0.3-0.6-0.5
			c-0.1-0.2-0.2-0.4-0.2-0.6c0-0.4,0.2-0.8,0.5-1c0.3-0.2,0.7-0.3,1.1-0.3c0.6,0,1.1,0.3,1.3,0.5c0.2,0.1,0.3,0.4,0.1,0.7
			c-0.1,0.2-0.4,0.3-0.7,0.1c-0.3-0.2-0.5-0.3-0.8-0.3c-0.2,0-0.4,0.1-0.5,0.2c-0.1,0.1-0.1,0.2-0.1,0.2c0,0,0,0,0,0.1
			c0,0,0,0.1,0.1,0.1c0.1,0.1,0.3,0.2,0.7,0.2l0,0h0c0.3,0.1,0.6,0.1,0.8,0.3c0.2,0.1,0.5,0.3,0.6,0.5c0.1,0.2,0.2,0.4,0.2,0.6
			c0,0.4-0.2,0.8-0.6,1.1c-0.3,0.2-0.7,0.4-1.2,0.4c-0.7,0-1.2-0.3-1.6-0.6C63.1,108.8,63,108.5,63.2,108.3z"/>
		<path class="st0" d="M67.5,107.3c0-1.2,1-2.3,2.2-2.3c1.2,0,2.1,0.9,2.2,2.1c0,0,0,0,0,0c0,0,0,0.1,0,0.1c0,0.2-0.2,0.4-0.5,0.4
			h-2.8c0,0.2,0.1,0.4,0.3,0.6c0.2,0.2,0.5,0.4,0.9,0.4c0.3,0,0.7-0.1,0.9-0.2c0.2-0.2,0.6-0.2,0.7,0c0.1,0.1,0.2,0.4,0,0.6
			c-0.4,0.4-1,0.6-1.6,0.6C68.5,109.6,67.5,108.6,67.5,107.3z M68.5,106.9H71c-0.1-0.4-0.5-0.9-1.3-1
			C68.9,105.9,68.6,106.5,68.5,106.9z"/>
		<path class="st0" d="M75.8,105.5c0,0.3-0.2,0.5-0.5,0.5c-0.2,0-0.4,0.1-0.5,0.2c-0.2,0.1-0.3,0.3-0.4,0.4
			c-0.2,0.3-0.3,0.6-0.4,0.8v1.7c0,0.3-0.2,0.5-0.5,0.5c-0.3,0-0.5-0.2-0.5-0.5v-3.6c0-0.3,0.2-0.5,0.5-0.5c0.3,0,0.5,0.2,0.5,0.5
			v0.1c0.1-0.1,0.1-0.1,0.2-0.2c0.3-0.2,0.7-0.4,1.1-0.4C75.6,105,75.8,105.3,75.8,105.5z"/>
		<path class="st0" d="M80.4,105.5v2.2v1.3c0,1.2-0.9,2.2-2.1,2.2c-0.3,0-0.7-0.1-0.9-0.2c-0.3-0.1-0.3-0.4-0.2-0.6
			c0.1-0.2,0.4-0.3,0.6-0.2c0.2,0.1,0.3,0.1,0.5,0.1c0.5,0,1-0.4,1.1-0.8c-0.3,0.1-0.6,0.2-0.9,0.2c-1,0-1.9-0.9-1.9-1.9v-2.2
			c0-0.3,0.2-0.5,0.5-0.5c0.3,0,0.5,0.2,0.5,0.5v2.2c0,0.5,0.4,0.9,0.9,0.9c0.5,0,0.9-0.4,0.9-0.9v-2.2c0-0.3,0.2-0.5,0.5-0.5
			C80.2,105,80.4,105.2,80.4,105.5z"/>
		<path class="st0" d="M84.9,108c0.2-0.2,0.5-0.2,0.7-0.1c0.4,0.3,1.1,0.7,1.7,0.7c0.4,0,0.9-0.1,1.1-0.3c0.3-0.2,0.4-0.4,0.4-0.7
			c0-0.1,0-0.2-0.1-0.3c-0.1-0.1-0.1-0.2-0.3-0.3c-0.3-0.2-0.7-0.3-1.2-0.4h0c-0.4-0.1-0.8-0.2-1.2-0.4c-0.3-0.2-0.6-0.4-0.8-0.7
			c-0.1-0.2-0.2-0.5-0.2-0.7c0-0.5,0.3-1,0.7-1.3c0.4-0.3,1-0.5,1.6-0.5c0.9,0,1.5,0.4,2,0.7c0.2,0.1,0.3,0.4,0.1,0.6
			c-0.1,0.2-0.4,0.3-0.6,0.1c-0.5-0.3-0.9-0.6-1.4-0.6c-0.4,0-0.8,0.1-1,0.3c-0.2,0.2-0.3,0.4-0.3,0.6c0,0.1,0,0.2,0.1,0.3
			c0,0.1,0.1,0.2,0.2,0.2c0.2,0.2,0.6,0.3,1.1,0.4h0c0.5,0.1,0.9,0.2,1.2,0.4c0.4,0.2,0.7,0.4,0.9,0.8c0.1,0.2,0.2,0.5,0.2,0.8
			c0,0.6-0.3,1.1-0.8,1.4c-0.4,0.3-1,0.5-1.7,0.5c-1,0-1.8-0.5-2.3-0.9C84.7,108.5,84.7,108.2,84.9,108z"/>
		<path class="st0" d="M90.6,107.3c0-1.3,1-2.3,2.3-2.3c0.5,0,1,0.2,1.4,0.5c0.2,0.2,0.2,0.5,0.1,0.7c-0.2,0.2-0.5,0.3-0.7,0.1
			c-0.2-0.2-0.5-0.3-0.9-0.3c-0.7,0-1.3,0.6-1.3,1.3c0,0.7,0.6,1.3,1.3,1.3c0.3,0,0.6-0.1,0.9-0.3c0.2-0.2,0.5-0.1,0.7,0.1
			c0.1,0.2,0.1,0.5-0.1,0.7c-0.4,0.3-0.9,0.5-1.4,0.5C91.6,109.6,90.6,108.6,90.6,107.3z"/>
		<path class="st0" d="M97,109.1c0,0.3-0.2,0.5-0.5,0.5c-0.2,0-0.4-0.2-0.5-0.4c0,0,0-0.1,0-0.1v-5.4c0-0.3,0.2-0.5,0.5-0.5
			s0.5,0.2,0.5,0.5v1.6c0.3-0.2,0.6-0.3,1-0.3c1.1,0,2,0.9,2,2v2.1c0,0.3-0.2,0.5-0.5,0.5s-0.5-0.2-0.5-0.5V107c0-0.5-0.4-1-1-1
			c-0.5,0-1,0.4-1,1L97,109.1L97,109.1z"/>
		<path class="st0" d="M101.9,108.9c-0.4-0.4-0.6-1-0.6-1.6c0-0.6,0.2-1.2,0.6-1.6c0.4-0.4,0.9-0.7,1.5-0.7c0.6,0,1.1,0.3,1.5,0.7
			c0.4,0.4,0.6,1,0.6,1.6c0,0.6-0.2,1.2-0.6,1.6c-0.4,0.4-0.9,0.7-1.5,0.7C102.8,109.6,102.3,109.3,101.9,108.9z M102.3,107.3
			c0,0.4,0.1,0.7,0.3,1c0.2,0.2,0.5,0.3,0.9,0.3c0.3,0,0.6-0.1,0.8-0.3c0.2-0.3,0.3-0.6,0.3-1c0-0.4-0.1-0.7-0.3-0.9
			c-0.2-0.2-0.5-0.3-0.8-0.3c-0.3,0-0.6,0.1-0.9,0.3C102.4,106.6,102.3,106.9,102.3,107.3z"/>
		<path class="st0" d="M107.5,108.9c-0.4-0.4-0.6-1-0.6-1.6c0-0.6,0.2-1.2,0.6-1.6c0.4-0.4,0.9-0.7,1.5-0.7c0.6,0,1.1,0.3,1.5,0.7
			c0.4,0.4,0.6,1,0.6,1.6c0,0.6-0.2,1.2-0.6,1.6c-0.4,0.4-0.9,0.7-1.5,0.7C108.4,109.6,107.9,109.3,107.5,108.9z M107.9,107.3
			c0,0.4,0.1,0.7,0.3,1c0.2,0.2,0.5,0.3,0.9,0.3c0.3,0,0.6-0.1,0.8-0.3c0.2-0.3,0.3-0.6,0.3-1c0-0.4-0.1-0.7-0.3-0.9
			c-0.2-0.2-0.5-0.3-0.8-0.3c-0.3,0-0.6,0.1-0.9,0.3C108,106.6,107.9,106.9,107.9,107.3z"/>
		<path class="st0" d="M113.2,103.2c0.3,0,0.5,0.2,0.5,0.5v5.4c0,0.3-0.2,0.5-0.5,0.5c-0.3,0-0.5-0.2-0.5-0.5v-5.4
			C112.7,103.4,113,103.2,113.2,103.2z"/>
	</g>
</g>
</svg>
