<?xml version="1.0" encoding="utf-8"?>
<!-- Generator: Adobe Illustrator 23.0.1, SVG Export Plug-In . SVG Version: 6.00 Build 0)  -->
<svg version="1.1" id="Layer_1" xmlns="http://www.w3.org/2000/svg" xmlns:xlink="http://www.w3.org/1999/xlink" x="0px" y="0px"
	 viewBox="0 0 798.1 730" style="enable-background:new 0 0 798.1 730;" xml:space="preserve">
<style type="text/css">
	.st0{fill:#FFEC00;}
	.st1{fill:#774A33;}
	.st2{fill:#50FF5C;}
	.st3{fill:#235C51;}
	.st4{fill:#C6E9FA;}
	.st5{fill:#FDD19D;}
	.st6{fill:#0072A3;}
	.st7{fill:#6C6080;}
	.st8{fill:#009ADE;}
	.st9{fill:#FFFFFF;}
	.st10{fill:#8779A0;}
	.st11{fill:#00DD39;}
	.st12{fill:#7A5F60;}
	.st13{fill:#50374E;}
	.st14{fill:#FBB980;}
	.st15{fill:#664F50;}
	.st16{fill:#917272;}
	.st17{fill:#00BF56;}
	.st18{fill:#00C145;}
	.st19{fill:#0087C2;}
	.st20{fill:#00B7F0;}
	.st21{fill:#9191C6;}
	.st22{fill:#F79C62;}
	.st23{fill:#F06464;}
	.st24{fill:#EE3A50;}
	.st25{fill:#F06875;}
	.st26{fill:#F69335;}
	.st27{fill:#EF5670;}
	.st28{fill:#00DD59;}
	.st29{fill:#F26F33;}
	.st30{fill:#EC1845;}
	.st31{fill:#13C100;}
	.st32{fill:none;}
	.st33{fill:#EE4052;}
	.st34{fill:#EE435F;}
	.st35{fill:#F4969A;}
	.st36{fill:#FBB54E;}
	.st37{fill:#00EF3E;}
	.st38{fill:#F1718A;}
	.st39{fill:#1E2B43;}
</style>
<g id="Group_1553" transform="translate(-9.546 -32.083)">
	<path id="Path_752" class="st0" d="M653.7,81.2c-6.5,11.4-10.8,24.3-10.4,37.4c0.4,13.2,5.4,25.9,14.1,35.8
		c12,13.5,30.5,20.6,48.5,19.7s35.3-9.3,48-22.2c12.5-12.7,20.7-30,20.7-47.9s-8.7-35.8-23.7-45.4C720.7,39.3,671.6,49.5,653.7,81.2
		L653.7,81.2z"/>
	<path id="Path_753" class="st1" d="M102,34.3c-10.6,3.4-20.7,8.9-28,17.3C66.6,60,62.4,70.8,62.1,82c-0.3,15.3,7.1,30.4,18.9,40.2
		s27.4,14.5,42.7,13.8c15.1-0.7,30.2-6.8,40.4-17.9s15.2-27.3,11.4-42C167.8,46.8,131.4,24.9,102,34.3L102,34.3z"/>
	<path id="Path_754" class="st2" d="M85.7,590.8c-10-8.7-21.2-14.4-32.3-13.4s-21.7,8.5-29.6,21.1c-10.8,17.4-15.7,43.7-14,69.1
		s9.9,49.6,21.5,67c11.5,17.2,26.6,28.1,41.7,27.5s29.9-13.5,37.2-35.1C124.9,683.9,113.5,615,85.7,590.8L85.7,590.8z"/>
	<path id="Path_755" class="st3" d="M776.1,587.4c-10.5-5.6-22.3-9.1-34.1-8.3c-12,0.9-23.2,6-31.8,14.4
		c-11.7,11.6-17.4,29.1-16,45.8c1.4,16.7,9.7,32.5,21.8,43.8c11.9,11.2,27.9,18.1,43.9,17.5s32-9.4,40.1-23.7
		C816.4,648.2,805.3,603,776.1,587.4L776.1,587.4z"/>
	<g id="Group_36" transform="translate(63.273 177.371)">
		<path id="Path_758" class="st4" d="M284.5,152.4c0.4,1.2-0.5,2.3-1.3,3.2c-1.1,1.1-2.2,2.2-3.4,3.2c-0.3,0.3-0.7,0.5-1,0.4
			c-0.2-0.1-0.4-0.3-0.5-0.6c-1.4-2.4-2.8-5.1-2.2-7.9c0.9-1.1,2.4-1.7,3.8-1.5c1.4,0.3,2.7,0.9,3.8,2
			C284,151.5,284.3,151.9,284.5,152.4L284.5,152.4z"/>
		<path id="Path_759" class="st5" d="M149.4,326.1c0,1-0.3,2.1-1,2.9c-3.2,3.2-8-0.4-8.9-3.6c-0.1-0.4,0.1-0.8,0.5-0.9
			c0.3-0.1,0.6,0.1,0.8,0.3c3.8,7.3,6.7-1.1,5.7-4.7c-0.5-2-1.2-4-2.1-5.9c-1.4-3.1-3-6.1-4.8-8.9c-9-12.6-21.9,1.5-23.1,11.7
			c-0.1,0.5-0.8,0.5-0.8,0c0.1-9.3,8-17.9,15.9-18c-1.9-8.1-11.4-14.1-19.7-11.5c-6.9,2.2-10.2,8-14.2,13.6
			c-0.2,0.4-0.8,0.5-1.2,0.3c-0.4-0.2-0.5-0.7-0.3-1.1c3.9-8.3,9.9-14.9,18.8-15.4c1.4-10.2-9.6-14.2-17.9-14.6
			c-9.7-0.4-14.5,7.4-16.9,15.7c-3.9,13.5-1.9,27,8.3,37.2c9.2,9.3,20.6,17,33.1,20.8c7.3,2.2,16.6,4.3,23.5-0.4
			C151.6,339.1,153.4,332.2,149.4,326.1L149.4,326.1z M135.3,333.9c-0.5,0.6-1.3-0.2-1-0.8c2-3.9,3.3-8.1,3.8-12.4
			c0-0.3,0.3-0.6,0.6-0.6c0.3,0,0.6,0.3,0.6,0.6C139.6,325.4,138.2,330.1,135.3,333.9L135.3,333.9z"/>
		<path id="Path_760" class="st5" d="M264.6,116.5c7.2,8.8,11.1,20.4,12.3,32.5c4.6-6.4,9.5-11.9,11.5-19.9
			c2.6-10.9,1.1-24.9-12.6-26.6c-0.1,0-0.2-0.1-0.2-0.1c-0.7,1.7-1.5,3.2-2.4,4.8C270.5,111.3,267.9,114.7,264.6,116.5z"/>
		<path id="Path_761" class="st5" d="M177.7,315.8c-3.9,2-7.5,0.3-11.4-1.6c-4.3-2.1-8.4-4.4-12.5-7c-0.1,0.1-0.1,0.2-0.2,0.2
			c-1.4,0.6-2.9,1.1-4.5,1.4c-1.4,0.5-2.8,1.2-4.2,1.5c1.7,2.8,2.9,5.9,3.7,9.1c0.2,0.8,0.4,2,0.6,3.3c9.2,6.5,4.9,16.4-2.7,21.8
			c12-0.8,22.1-3,31.8-10.5C177.6,328,177.4,321.9,177.7,315.8L177.7,315.8z"/>
		<path id="Path_762" class="st5" d="M115.9,284.8c0.9,0,1.8,0,2.7,0.1c4.9,0.6,10.5,4,12.8,8.6c-0.6-6.6-1.7-12.9-7-17.8
			c-6.1-5.6-13-7.3-21-7.1c2.5,0.6,4.9,1.6,7,3.1C114.7,275.1,117.2,279.5,115.9,284.8L115.9,284.8z"/>
		<path id="Path_763" class="st6" d="M163.5,383.2c-1.1-0.4-2.2-0.8-3.3-1.1c-3.9-1.7-5.9,0.2-6,5.7c1.1,1.9,2.5,3.5,4.2,4.9
			c1.9-3.2,4.1-6.2,6.6-9C164.5,383.6,164,383.4,163.5,383.2L163.5,383.2z"/>
		<path id="Path_764" class="st7" d="M142.5,435c-12.4-9.8-26.3-17.6-41.2-22.9c-9.5,6.5-1,23.8,2.6,31.2c3.2,6.7,7,13,11.4,18.9
			c10.5,13.8,27.8,31.4,46,18.1C179.7,466.9,153.6,443.9,142.5,435z"/>
		<path id="Path_765" class="st8" d="M241.2,256.8c-2.8,0.7-5.8,0.4-8.4-0.8c1.5,13.8,1.1,27.7-1.4,41.3c-0.8,4.4-2.2,9.6,1.9,12.9
			c3.4,2.7,6.8,5.4,10.3,8c1.9,1.4,15.8,12.8,17.3,10.2c4.3-7.1,8.4-14.4,12.3-21.7c1.3-2.5,5.6-7.9,3.5-10.9
			c-2.1-2.9-4.2-5.9-6.3-8.8c-7.8-11.4-16.1-23.3-21.8-36C246.8,253.8,244.3,256.1,241.2,256.8L241.2,256.8z"/>
		<path id="Path_766" class="st5" d="M189.7,241.3c12.4-0.7,24.6-3.9,35.8-9.3c20-10,37.4-27.1,44.6-48.6c3.9-11.1,5.2-23,3.8-34.6
			c-1.5-11.6-6-21.1-11-31.4c-2.6,0.9-5.7,0.8-9.5-0.7c-17.8-7.3-16.3-29.5-28.3-42.1c-7.9-8.3-20-5.3-30.1-3
			c-9.1,2-18.1,4.1-26.7,7.6c-11.3,4.7-22.1,10.3-32.5,16.7c-9.4,5.7-19.7,11.3-27.3,19.4c-9.1,9.7-13.1,21.1-9,34.1
			c2.6,8.3,7,16.6,7.7,25.4c0.5,6.4-2.8,10.6-7.4,12.5c12.1,21.5,24.9,42.3,50.1,49.7c12.5,3.7,25.5,5.2,38.6,4.6
			C189,241.3,189.4,241.2,189.7,241.3L189.7,241.3z"/>
		<path id="Path_767" class="st9" d="M227,234.3c-7.5,3.5-15.4,6.1-23.6,7.8c3.5,4.5,17.4,18.6,21.2,9.4c2.6-6.4,4.7-13.4,8.2-19.2
			c0.1-0.2,0.3-0.2,0.5-0.1c0.1,0.1,0.2,0.2,0.1,0.4c-0.1,0.7-0.3,1.4-0.5,2.1c0.1,0,0.2-0.1,0.3-0.1c5.1,0.9,10.1,2.1,14.9,3.8
			c1,0.4,6.1,3.1,7,1.4c1.5-2.5,2.7-5.1,3.8-7.8c3.3-8.8,4.3-17.4,2.5-26.5C252.6,217.8,240.7,227.7,227,234.3L227,234.3z"/>
		<path id="Path_768" class="st5" d="M91.6,187.9c-2.3,9-2.7,19.9,4.4,27c6.8,6.8,14.7,8,23.6,5.1c-8.5-9.3-15-20.6-20.9-32.5
			C96.4,188.2,94,188.3,91.6,187.9L91.6,187.9z"/>
		<path id="Path_769" class="st8" d="M232.9,235.8c-0.1,0-0.2-0.1-0.2-0.2c-1.4,4.7-3.1,9.3-5.1,13.9c0,0,0.1,0,0.1,0
			c4.6,3.4,8.9,8.9,15.3,4.2c4.3-3.2,5.1-7.8,7.4-12.2C244.6,239.2,238.8,237.3,232.9,235.8z"/>
		<path id="Path_770" class="st10" d="M151.3,419.5c0.3,0.5,0.7,1,1,1.5c0.1,0.2,0,0.5-0.2,0.6c-0.2,0.1-0.5,0-0.6-0.2
			c-10.5-13.8-34.6-22.2-48.8-10.2c20.5,6.5,39,18.1,53.8,33.8c6.8,7.2,13.8,15.3,13.5,25.8c-0.1,1.3-0.3,2.5-0.8,3.7
			c7.3-8.5,10.4-23.2,4.3-32.4C167.6,433.4,158.8,426.9,151.3,419.5L151.3,419.5z"/>
		<path id="Path_771" class="st9" d="M177.4,313.9c0.2,0,0.3,0,0.4,0.1c1.4-24.3,9.6-49.5,18.8-70.8c-3,0.4-6.1,0.7-9.2,0.9
			c-6.7,3.2-14.6,13.9-17.4,17.4c-5,6.2-9.5,12.9-13.3,20c-2.8,5.3-11.4,17.1-5,21.3C158.2,307.1,169.2,315.8,177.4,313.9
			L177.4,313.9z"/>
		<path id="Path_772" class="st5" d="M293.3,429.7c1.9,11.4,3,23.7,6.5,34.7c4.3,13,21.8,14.2,32.4,9c4.1-15.9,2-32.7,3-49
			C322.4,429.6,307.4,430.3,293.3,429.7L293.3,429.7z"/>
		<path id="Path_773" class="st9" d="M277.3,157.7c0,9-1.6,17.8-4.5,26.3c-2.2,6-5.1,11.8-8.6,17.3c9.9,14.8,18.3,30.5,28.3,45.1
			c3.6-1.3,8.2-9,10.1-11.3c3.8-4.8,7.4-9.7,10.8-14.7c5.1-7.6,9.8-15.5,14.2-23.6C306.7,191.2,286.9,177.4,277.3,157.7L277.3,157.7
			z"/>
		<path id="Path_774" class="st4" d="M328.2,194.3c-0.7-3.1-1-6.2-2.2-9.1c-1.1-2.8-2.9-5.1-4.4-7.6c-1.6,4.3-3.7,8.4-6.2,12.2
			C319.4,191.6,323.7,193.2,328.2,194.3z"/>
		<path id="Path_775" class="st9" d="M262.8,203.4c0,0.1,0.1,0.1,0.1,0.2c5.4,12.7,0.3,28.2-6.9,39.2c-0.3,0.5-1,0.7-1.6,0.4
			c-0.8-0.4-1.6-0.7-2.4-1c-0.4,2.5-1.2,4.9-2.4,7.1c10.3,15.9,19.3,32.3,30.6,47.6c0.2,0.4,0.2,0.8,0,1.2
			c-5.8,11.6-12.1,22.9-18.8,33.9c-0.3,0.5-1,0.7-1.5,0.4c-7.4-4.9-14.6-10.1-21.6-15.5c-2.7-2.1-9.9-5.8-10.2-9.9
			c-0.6-8.2,2.8-17.2,3.4-25.5c0.6-8.7,0.6-17.4,0.1-26.1c-2-1.2-3.5-3.1-4.2-5.4c-0.3,0.7-0.5,1.4-0.8,2.1
			c-0.8,2.3-1.4,5.3-4.5,4.9c-9-1-17.2-6.1-20.9-14.5c-1.2,0.2-2.3,0.4-3.5,0.6c0.2,0.2,0.3,0.4,0.2,0.6
			c-4.5,14.5-9.8,28.6-13.1,43.5c-3.3,15.2-4.3,30.2-4.7,45.7c0,0,0.1,0,0.1,0c0.1-0.2,0.4-0.4,0.6-0.3c0,0,0.1,0,0.1,0.1
			c26.3,16.2,57.1,24.7,87.9,19.8c14.1-2.1,27.7-6.6,40.2-13.3c11.8-6.5,21.4-14.9,31.5-23.5c-0.1-0.3,0-0.6,0.2-0.9
			c9.3-14.6-11.4-24.7-20.4-32.2c-8.5-7.3-16.3-15.4-23.1-24.3c-13.5-17.2-24.8-36-33.9-55.8C263.3,202.6,263.1,203,262.8,203.4
			L262.8,203.4z"/>
		<path id="Path_776" class="st11" d="M207.2,348.1c-2,7.1-11.5,12.6-18.2,13.6c-0.4,0.1-0.8-0.2-0.9-0.6c-0.1-0.4,0.1-0.8,0.5-0.9
			c3.8-1,7.3-2.6,10.5-4.9c2.9-2.2,4.8-5.1,7.2-7.6c-6.4-2.5-12.6-5.6-18.4-9.2c-8.2,6.4-15.6,12.3-21.5,21c-4.5,6.6-8,13.8-12,20.6
			c3.4-1.5,10.3,1.5,12.5,2.4c16,6.7,38.3,15.4,45.6,32.6c8.4-15.9,22.3-30.8,41.8-28.7c19.3,2.1,26.3,25.1,28.6,41.2
			c11.8,0.1,23.8,0.6,35.5-1.5c10.1-2,19.8-5.7,28.6-11.2c-0.4,0.1-0.8-0.1-0.9-0.5c-0.1-0.1-0.1-0.3,0-0.5c1.9-7.1,3.6-13.5,3-21
			c-0.7-7.6-1.8-15.1-3.3-22.5c-3-14.8-7.4-28.6-14.7-41.9c0,0,0-0.1,0-0.1c-17.7,15-42.2,24.4-64,26.9
			C246.7,357.9,226.2,355.3,207.2,348.1L207.2,348.1z M306.7,345.1c6,5.9,13.9,9.5,22.2,10.4c1,0.1,1.1,1.7,0,1.7
			c-9,0-17.5-4.2-23.1-11.2C305.3,345.4,306.1,344.6,306.7,345.1L306.7,345.1z"/>
		<path id="Path_777" class="st5" d="M202.6,410.9c-2,2.5,1.1-1.6,2.5-2.7l0,0c-0.1-0.1,0-0.3,0-0.4c-2.3-2.5-5-4.8-7.8-6.8
			c-4.9-3.4-10.1-6.4-15.4-9.2c-5.1-2.7-10.3-5.2-15.6-7.5c-3.7,5.2-7.2,10.4-9.3,16.5c-1.9,5.5-2.6,11.1-3.9,16.8
			c-0.1,0.3-0.3,0.5-0.6,0.4c10.5,8.3,23.4,18.7,26.1,31.9c0.1,0.4,0.1,0.8,0.2,1.2c3.1-8,7.1-15.7,11.7-23
			c2.8-4.4,5.6-8.8,8.7-12.9C200.3,413.8,201.4,412.3,202.6,410.9L202.6,410.9z"/>
		<path id="Path_778" class="st5" d="M380.5,81.2c-3.9,1.2-7.5,2.9-10.8,5.2c-0.7,0.4-1.2-0.6-0.6-1.1c1.1-0.8,2.3-1.5,3.5-2.1
			c6.6-6.8,13-15.4,14.8-25c2.7-14.8-9.2-9.5-13.7-5.3c-1.3,1.2-2.6,2.4-3.9,3.7c-3.2,3.1-6.4,6.3-9.8,9.2c-0.2,0.2-0.4,0.2-0.7,0.1
			c-0.2,0.4-0.5,0.7-0.7,1.1c-0.3,0.4-1,0.1-0.7-0.4c3.5-6.2,5.4-13.3,7.3-20.1c1.2-4.2,2.1-12.4-1.8-15.7
			c-8-6.7-21.5,24.4-25.2,28.9c-0.1,0.1-0.2,0.2-0.4,0.2c0,0.1,0,0.2-0.1,0.3c-0.1,0.6-1,0.3-0.9-0.2c0.7-4.2,2-9.5,0.7-13.8
			c-0.6-3-2.4-5.7-5-7.4c-4.8-3-8.6-1.4-11.4,4.7c-1.6,7.3-0.7,15-1.5,22.3c-1.4,13.6-2.4,29.5-7.4,42.3c-3.9,10-9.5,19.5-15.2,28.6
			c-5.1,8-10.1,16.3-16.6,23.3c9.1,12.6,20.2,22.8,33.9,29.3c0,0,0.1-0.1,0.1-0.1l0,0c0.4-1,1.2-2.3,1.3-2.7
			c1.1-2.7,2.2-5.4,3.3-8.1c2.1-5.2,4.1-10.3,6.3-15.5c5.1-12.3,11.1-24.2,17.7-35.8c2.7-4.6,5.3-9.8,9.2-13.4c4.4-4,9.5-6.4,14.8-9
			c6.6-3.3,13.7-7.4,17.2-14.2C386.5,86.5,388.3,78.9,380.5,81.2z"/>
		<path id="Path_779" class="st6" d="M206.3,409.2c-2.4,3.5-4.8,7-7,10.5c0.1,0,0.2,0,0.2,0c8.1,2.1,11.4,0.1,9.8-6
			C208.5,412.1,207.5,410.6,206.3,409.2L206.3,409.2z"/>
		<path id="Path_780" class="st12" d="M97.9,152.2c-5.6-17.7,0.1-32.7,14.6-44.1c16.1-12.6,33.8-22.9,52.7-30.6
			c15.2-6.1,35.3-12.8,52-10.7c15.7,2,18.5,24.5,24.7,35.3c3.1,5.4,10.7,14.5,18.1,13.7c5.6-0.7,9.9-7.2,12.1-11.9
			c5.4-11.5,4.6-23.5,0.2-35.2c-7.6-20.2-20.1-37.7-39.5-48c-0.7-0.4-0.1-1.3,0.6-1c0.2,0.1,0.3,0.2,0.5,0.2
			c1.1-0.7,2.6-0.8,3.8-1.2c2.2-0.7,6.6-3.4,3.1-6.3c-3.8-3.1-9-2.6-13.5-1.3c0.1,0.5-0.2,1-0.7,1.2c-0.3,0.1-0.7,0-0.9-0.2
			c-2.5-2.7-5.1-5.7-8.4-7.5c-2.9-1.5-7.7-3.2-9.8,0.8c-1.7,3.1-0.7,5.8,0.9,8.7c0.1,0.2,0.1,0.4-0.1,0.6c0,0-0.1,0-0.1,0
			c0.1,0.2,0.3,0.3,0.4,0.5c0.7,1-0.8,2-1.6,1.3c-24.1-23.5-54.3-9.6-82.5-3.6c-13.9,2.9-28.2,3.7-42.2,0.8
			c-8.3-1.8-20.9-6.3-26.5,3.2c-4.7,8.1-2.3,16.4,3,23.3c3.1,0.1,6.2,0,9.3-0.4c0.9-0.1,1.1,1.5,0.2,1.6c-7.9,1.5-16,1.4-23.8-0.2
			c-8.3-1.9-16.1-6.8-24.4-8C2.4,30.5-1.1,49.7,6.1,61.9c4.4,7.5,10.2,12.9,17.3,17.7c1.7,0.4,3.5,0.8,5.2,1.3
			c0.4,0.1,0.7,0.6,0.5,1c-0.1,0.4-0.5,0.6-1,0.5c-6.6-1.7-17.3-4.5-22.6,1.9c-5,6.1-3,14.7,2.7,19.6c7.2,6.1,16.5,9.3,25,13.1
			c6.2,2.8,12.8,5.2,18.9,8.3c2.6,1.3,5,2.9,6.6,5.4c4.7,7.5,7.7,16.4,11.8,24.3c4.8,9.3,11.5,31.8,24.7,30.7
			C113,184.2,100.8,161.5,97.9,152.2L97.9,152.2z"/>
		<path id="Path_781" class="st10" d="M331.8,475.6c-8.2,5-23.6,4-29.9-3.3c-0.1-0.1-0.2-0.3-0.3-0.4c-3.7,10.4-9,21.1-7.5,32.5
			c1.6,13.1,12.4,20.3,25,22.1c13.6,1.9,20.7-15.9,19.9-27c-0.6-8.2-3.8-15.6-5.6-23.5c-0.3,0.4-0.8,0.4-1.2,0.1
			C332,476,331.9,475.8,331.8,475.6L331.8,475.6z M307,488.9c6.1-4.3,14.5-3.4,19.6,2.1c0.3,0.3,0.3,0.7,0,1s-0.7,0.3-1,0
			c-5-4.4-12.2-5.3-18-2.1c-0.3,0.1-0.6,0-0.7-0.2C306.6,489.3,306.7,489,307,488.9z M326.6,502.2c-6.8-3.2-12.2-4-19.3-1.2
			c-0.5,0.2-0.7-0.5-0.3-0.8c5.7-4.1,15.3-4.1,20.5,1C328,501.7,327.3,502.5,326.6,502.2z"/>
		<path id="Path_782" class="st13" d="M138.1,320.7c-0.5,4.3-1.8,8.5-3.8,12.4c-0.3,0.6,0.5,1.4,1,0.8c2.8-3.8,4.2-8.5,3.9-13.2
			c0-0.3-0.3-0.6-0.6-0.6S138.1,320.4,138.1,320.7z"/>
		<path id="Path_783" class="st13" d="M328.9,357.2c1.1,0,1-1.6,0-1.7c-8.4-0.9-16.2-4.5-22.2-10.4c-0.6-0.6-1.4,0.3-0.9,0.9
			C311.4,353,319.9,357.2,328.9,357.2L328.9,357.2z"/>
		<path id="Path_784" class="st13" d="M307,500.2c-0.4,0.3-0.2,1,0.3,0.8c7.1-2.8,12.6-2,19.3,1.2c0.7,0.3,1.4-0.5,0.8-1.1
			C322.3,496,312.7,496,307,500.2z"/>
		<path id="Path_785" class="st13" d="M307.5,489.8c5.8-3.2,13-2.3,18,2.1c0.3,0.3,0.7,0.3,1,0c0.3-0.3,0.3-0.7,0-1
			c-5.1-5.5-13.4-6.4-19.6-2.1c-0.3,0.2-0.3,0.5-0.2,0.8C306.9,489.9,307.3,490,307.5,489.8z"/>
		<path id="Path_786" class="st13" d="M375.9,81.6c7.9-7.5,17.6-21.8,12.6-31.6c-5.6-11-19.8,3.7-26.4,11.5
			c2.9-5.8,4.8-11.9,5.8-18.3c0.7-4.7,0-11-3.8-14.3c-8.7-7.4-20.7,18.1-25.4,27.4c1.4-9,0.3-19.2-10.7-20.6
			c-12.6-1.6-9.9,24.2-10.5,30.3c-1,10.5-3,20.9-4.9,31.3s-6.5,18.9-11.4,28.1c-5.1,9.1-10.6,17.9-16.7,26.3
			c-1.1-1.5-2.8-2.4-4.6-2.6c8-7,12.1-18.9,12.3-29.1c0.2-9.3-6.4-18.7-16.2-18.5c3.5-9,2.9-19,0.3-28.4
			c-5.7-20.9-19.9-41.8-39.5-51.9c1.6-0.4,3.1-1,4.5-1.9c2.1-1.4,2.9-4,2.1-6.4c-2-5.8-12.1-4.8-16.5-2.7
			c-3.6-5.3-10.1-10.4-16.8-9.2c-5.1,0.9-6,6.6-4.2,10.7C197.4,2.7,183.9,0,172,0c-19.2,0-37.4,8.6-56.1,11.8
			c-11.8,2-24,1.3-35.7-1.1C72.7,9.1,65.6,7.1,58.5,11c-11.1,6.2-7.6,20.7-1.1,28.8c-10.1-0.5-19.5-3.1-29.3-6.9
			c-8.1-3.2-19-4.7-24.5,3.9C-6.3,52.1,6,70.5,20.1,79c-4.8-0.8-9.8,0-14.1,2.3c-6,3.3-6.4,10.7-4.6,16.5
			c2.1,7.1,9.4,11.4,15.5,14.4c11.1,5.5,22.7,10.1,34,15.1c8.1,3.6,10.9,16.4,14.9,23.9c5.4,10.1,9.6,21.7,16.5,30.9
			c2,2.7,4.9,4.6,8.1,5.5c-3.7,9.7-2.5,20.6,4.2,28.8c5.7,7.1,17.9,10.3,25.8,5.3c0.2-0.1,0.3-0.3,0.4-0.5
			c7.2,7.7,16.2,13.6,26.1,17.2c11.9,4.2,24.6,6.2,37.2,5.9c-17.7,14.9-31,34.4-38.4,56.3c-0.1,0.6,0.1,1.1,0.6,1.4
			c1.9,1.4,3.9,2.7,5.8,4c-2.7,0.6-5.3,1.8-7.5,3.6c-0.7-1.3-1.5-2.6-2.2-3.8c-2.7-4.7-6.3-6.7-9.9-6.9c0-0.3,0-0.6,0.1-0.9
			c0.2,0,0.4-0.2,0.5-0.4c6.4-17.2-14.5-34.3-30.5-29.6c-0.2,0.1-0.3,0.2-0.3,0.4c-5-1.2-10.7-1.5-13.6,0.5
			c-7.4,4.9-10.4,15.3-11.8,23.6c-1.5,9,0.5,18.3,5.5,26c10.3,16.3,33.7,29.6,52.9,30.1c3.4,0,6.8-1,9.7-2.7
			c12.5,1.9,27.8-1.4,36.3-11.3c0.1-0.1,0.1-0.2,0.2-0.3c1.9,1.4,3.9,2.7,5.9,4c-17,6.9-30,28.5-36.2,44.6c-0.3,0.7,0.5,1.1,1.1,0.9
			c-0.7,4,2.5,7.7,6,9.7c0,0,0,0,0,0c-4.2,7.4-6.9,16.1-6.3,24.1c0,0,0,0.1,0.1,0.1c-0.7-0.5-1.4-1.1-2-1.6c-0.3-0.3-0.8-0.2-1,0.1
			c0,0.1-0.1,0.1-0.1,0.2c-5.4-5.7-13.7-9-20.8-11.6c-9.2-3.3-20.4-2-26.9,5.9c0,0,0,0.1,0,0.1c-0.1,0-0.2,0-0.3,0s-0.2,0.1-0.3,0.2
			c-0.1,0-0.1,0.1-0.2,0.1c-5.1,2.5-6,9.9-5,15.1c2.2,11.2,7.8,21.9,13.9,31.4c10.5,16.5,25.8,34.7,47.2,27.9
			c3.7-1.2,7.1-3.3,9.8-6.1c0.1,0,0.2-0.1,0.2-0.2c0,0,0-0.1,0-0.1c0.5-0.5,0.9-1,1.3-1.6c0.9-0.9,1.9-1.8,2-2
			c2.1-2.6,4-5.4,5.6-8.4c2.1-3.8,3.4-8,3.7-12.4c0,0,0.1,0,0.1,0c6.4-11.5,12.7-22.6,19.6-33.6c0,0,0,0.1,0,0.1
			c4.9,4.7,10.1,1.1,14.2-2.8c0.3-0.3,0.4-0.7,0.3-1.1c-0.1-0.1-0.1-0.3-0.2-0.4c9-13.5,18.9-26.9,36.6-28.1
			c22-1.4,27.6,24.2,31.6,40.3c0.1,0.5,0.6,0.8,1,0.7c0.2-0.1,0.4-0.2,0.6-0.4c3.1,0.2,6.3,0.4,9.6,0.6c0.9,8.6,2.2,17.1,3.7,25.6
			c1,5.7,1.7,11.3,5.1,16c-0.1,0-0.2,0.1-0.2,0.2c-7,10.6-10.8,25.2-8.3,37.8c2.5,12.9,16.7,18.3,28.2,20c11,1.6,18.1-12.4,20.3-21
			c2.8-11.1-1.4-25.3-6.3-35.2c2.3-5.8,1.9-12.3,1.9-18.5c-0.1-10.1,0.1-20.4-0.6-30.5c4.7-1.9,9-4.6,12.9-7.8
			c0.9-0.8-0.3-2.3-1.3-1.7c-0.2,0.1-0.4,0.2-0.6,0.4c0.2,0,0.3-0.1,0.4-0.3c8.1-10.5,3.9-27.7,1.7-39.6c-3-16.4-7.8-33-16.9-47.1
			c-0.1-0.1-0.2-0.2-0.3-0.2c4-3.4,7.6-7.2,10.8-11.3c0,0,0,0,0-0.1c0.2-0.1,0.3-0.2,0.4-0.4c5.2-7.7,1.8-16.3-4-22.6
			c-4.2-4.5-10-7.8-14.8-11.6c-5-4-9.7-8.3-14-13c-6.1-6.4-11.7-13.3-16.6-20.6c0.7-0.3,1.4-0.8,2-1.3c4.6-4.1,8.2-9.7,12-14.6
			c8.6-11.3,16.2-23.2,22.8-35.8c0.3-0.6,0.1-1.4-0.5-1.7c-0.1,0-0.2-0.1-0.3-0.1l-0.1,0c0.6-5.8-2.7-14.5-7.7-18.4
			c1.9-4.9,3.6-10,5.5-14.4c3.6-8.2,7.6-16.1,11.8-24c4.7-8.9,9.6-19.2,17.7-25.4c6.1-4.6,13.9-6.3,20-11c5.5-4.3,9.6-9.2,11.5-16
			C391,76.4,382.6,78.5,375.9,81.6L375.9,81.6z M280.8,150.9c1,0.5,1.8,1.4,2.7,2c-1.4,2-2.7,4-4.1,5.9c-0.7-1-1.4-2-2.1-3.1
			c0,0-0.1,0-0.1-0.1c0-1.6-0.1-3.2-0.2-4.9c0.2,0.1,0.5,0.1,0.7-0.1c0.3-0.2,0.6-0.5,0.9-0.7C279.4,150.3,280.1,150.6,280.8,150.9
			L280.8,150.9z M288.4,129.1c-1.9,8-6.8,13.5-11.5,19.9c-1.2-12.1-5.1-23.7-12.3-32.5c3.2-1.8,5.8-5.2,8.5-9.3
			c0.9-1.5,1.8-3.1,2.4-4.8c0.1,0.1,0.1,0.1,0.2,0.1C289.5,104.2,291,118.2,288.4,129.1L288.4,129.1z M70.5,155.1
			c-4.1-7.9-7.2-16.8-11.8-24.3c-1.6-2.5-4-4.1-6.6-5.4c-6-3.2-12.6-5.6-18.9-8.3c-8.5-3.8-17.9-6.9-25-13.1
			c-5.7-4.9-7.7-13.5-2.7-19.6c5.3-6.4,16-3.6,22.6-1.9c0.4,0.1,0.9-0.1,1-0.6c0.1-0.4-0.1-0.9-0.6-1c-1.8-0.5-3.5-0.9-5.2-1.3
			c-7-4.8-12.8-10.2-17.3-17.7C-1.1,49.7,2.4,30.5,20.1,33c8.4,1.2,16.1,6.1,24.4,8c7.8,1.6,15.9,1.7,23.8,0.2
			c0.9-0.2,0.7-1.7-0.2-1.6c-3.1,0.3-6.2,0.4-9.3,0.4c-5.3-6.9-7.8-15.2-3-23.3c5.6-9.5,18.1-4.9,26.5-3.2c13.9,3,28.3,2.2,42.2-0.8
			c28.3-6,58.4-19.9,82.5,3.6c0.8,0.8,2.3-0.3,1.6-1.3c-0.1-0.2-0.3-0.3-0.4-0.5c0.2-0.1,0.4-0.3,0.3-0.5c0,0,0-0.1,0-0.1
			c-1.6-2.9-2.6-5.6-0.9-8.7c2.1-3.9,6.9-2.3,9.8-0.8c3.3,1.8,5.9,4.8,8.4,7.5c0.4,0.4,1,0.4,1.4,0c0.2-0.2,0.3-0.6,0.2-0.9
			c4.4-1.3,9.7-1.9,13.5,1.3c3.5,2.9-0.9,5.6-3.1,6.3c-1.3,0.4-2.7,0.4-3.8,1.2c-0.2-0.1-0.3-0.2-0.5-0.2c-0.7-0.3-1.3,0.7-0.6,1
			c19.3,10.3,31.9,27.8,39.5,48c4.4,11.7,5.2,23.8-0.2,35.2c-2.2,4.7-6.5,11.2-12.1,11.9c-7.4,0.9-15-8.2-18.1-13.7
			c-6.2-10.8-9-33.3-24.7-35.3c-16.7-2.1-36.8,4.6-52,10.7c-18.9,7.7-36.6,18-52.7,30.6c-14.5,11.4-20.2,26.4-14.6,44.1
			c3,9.3,15.2,32.1-2.7,33.6C82,186.8,75.3,164.3,70.5,155.1z M96,214.9c-7.1-7.1-6.7-18-4.4-27c2.4,0.5,4.8,0.3,7.1-0.4
			c5.9,12,12.4,23.3,20.9,32.5C110.7,222.8,102.8,221.7,96,214.9L96,214.9z M150,236.8c-25.2-7.4-38-28.2-50.1-49.7
			c4.5-1.9,7.8-6.1,7.4-12.5c-0.7-8.7-5.1-17.1-7.7-25.4c-4.1-13-0.1-24.4,9-34.1c7.6-8.1,17.9-13.7,27.3-19.4
			c10.4-6.4,21.3-12,32.5-16.7c8.6-3.5,17.7-5.6,26.7-7.6c10.1-2.2,22.2-5.3,30.1,3c12,12.5,10.4,34.8,28.3,42.1
			c3.8,1.6,6.8,1.6,9.5,0.7c5,10.3,9.5,19.8,11,31.4c1.4,11.7,0.1,23.5-3.8,34.6c-7.2,21.5-24.6,38.7-44.6,48.6
			c-11.2,5.5-23.4,8.6-35.8,9.3c-0.4,0-0.8,0-1.1,0.1C175.6,242,162.5,240.4,150,236.8L150,236.8z M232.8,256
			c2.6,1.2,5.6,1.5,8.4,0.8c3.1-0.8,5.6-3.1,7.4-5.9c5.7,12.7,14,24.6,21.8,36c2,3,4.1,5.9,6.3,8.8c2.2,3-2.2,8.4-3.5,10.9
			c-3.9,7.4-8,14.6-12.3,21.7c-1.5,2.6-15.4-8.8-17.3-10.2c-3.5-2.6-6.9-5.3-10.3-8c-4.1-3.3-2.7-8.5-1.9-12.9
			C233.9,283.7,234.4,269.8,232.8,256L232.8,256z M243,253.6c-6.4,4.7-10.7-0.8-15.3-4.2c0,0-0.1,0-0.1,0c1.9-4.5,3.6-9.2,5-13.9
			c0.1,0.1,0.1,0.1,0.2,0.2c5.9,1.5,11.8,3.4,17.5,5.6C248.1,245.8,247.2,250.5,243,253.6L243,253.6z M248.1,238.3
			c-4.9-1.7-9.8-3-14.9-3.8c-0.1,0-0.2,0-0.3,0.1c0.2-0.7,0.3-1.4,0.5-2.1c0-0.2-0.1-0.4-0.2-0.4c-0.1,0-0.3,0-0.4,0.1
			c-3.6,5.9-5.7,12.9-8.2,19.2c-3.7,9.2-17.6-4.8-21.2-9.4c8.1-1.7,16-4.3,23.6-7.8c13.8-6.5,25.6-16.5,34.5-28.9
			c1.8,9.2,0.8,17.7-2.5,26.5c-1.1,2.7-2.3,5.3-3.8,7.8C254.2,241.4,249.1,238.7,248.1,238.3L248.1,238.3z M151.7,302.8
			c-6.4-4.3,2.2-16,5-21.3c3.8-7.1,8.3-13.7,13.3-20c2.8-3.5,10.7-14.2,17.4-17.4c3.1-0.2,6.1-0.5,9.2-0.9
			c-9.2,21.2-17.5,46.5-18.8,70.8c-0.1-0.1-0.3-0.1-0.4-0.1C169.2,315.8,158.2,307.2,151.7,302.8L151.7,302.8z M124.4,275.7
			c5.4,4.9,6.5,11.2,7,17.8c-2.3-4.7-7.9-8.1-12.8-8.6c-0.9-0.1-1.8-0.1-2.7-0.1c1.3-5.3-1.2-9.7-5.5-13c-2.1-1.4-4.5-2.5-7-3.1
			C111.3,268.4,118.3,270.2,124.4,275.7L124.4,275.7z M121.7,344c-12.6-3.9-24-11.6-33.1-20.8c-10.2-10.2-12.2-23.7-8.3-37.2
			c2.4-8.3,7.3-16.2,16.9-15.7c8.3,0.4,19.3,4.4,17.9,14.6c-8.9,0.5-14.9,7.1-18.8,15.4c-0.2,0.4-0.1,0.9,0.3,1.2
			c0.4,0.2,0.9,0.1,1.1-0.3c4-5.5,7.3-11.4,14.2-13.6c8.3-2.6,17.9,3.4,19.7,11.5c-7.9,0.2-15.8,8.7-15.9,18c0,0.5,0.8,0.5,0.8,0
			c1.2-10.2,14.1-24.2,23.1-11.7c1.9,2.8,3.5,5.8,4.8,8.9c0.9,1.9,1.6,3.9,2.1,5.9c1,3.6-1.9,12-5.7,4.7c-0.2-0.3-0.7-0.4-1-0.2
			c-0.3,0.2-0.4,0.5-0.3,0.8c0.9,3.3,5.8,6.8,8.9,3.6c0.7-0.8,1-1.8,1-2.9c4,6,2.1,13-4.2,17.4C138.3,348.3,129,346.2,121.7,344
			L121.7,344z M146.6,344.6c7.6-5.4,11.9-15.2,2.7-21.8c-0.2-1.3-0.4-2.5-0.6-3.3c-0.7-3.2-2-6.3-3.7-9.1c1.4-0.4,2.8-1.1,4.2-1.5
			c1.5-0.4,3-0.8,4.5-1.4c0.1-0.1,0.1-0.1,0.2-0.2c4,2.5,8.2,4.9,12.5,7c3.8,1.9,7.5,3.7,11.4,1.6c-0.3,6.1-0.1,12.2,0.7,18.3
			C168.7,341.6,158.6,343.8,146.6,344.6L146.6,344.6z M154.2,387.9c0.1-5.5,2.1-7.4,6-5.7c1.1,0.3,2.2,0.7,3.3,1.1
			c0.5,0.2,1,0.4,1.5,0.6c-2.5,2.8-4.7,5.8-6.6,9C156.8,391.4,155.3,389.8,154.2,387.9L154.2,387.9z M161.3,480.3
			c-18.3,13.3-35.5-4.2-46-18.1c-4.4-5.9-8.2-12.3-11.4-18.9c-3.6-7.4-12.1-24.7-2.6-31.2c14.9,5.3,28.8,13.1,41.2,22.9
			C153.6,443.9,179.7,466.9,161.3,480.3L161.3,480.3z M169.1,474.5c0.5-1.2,0.8-2.4,0.8-3.7c0.3-10.5-6.7-18.5-13.5-25.8
			c-14.8-15.6-33.3-27.3-53.8-33.8c14.2-12.1,38.3-3.6,48.8,10.2c0.1,0.2,0.4,0.3,0.7,0.1c0.2-0.1,0.3-0.4,0.2-0.6
			c-0.3-0.5-0.6-1-1-1.5c7.5,7.5,16.3,13.9,22.1,22.7C179.5,451.3,176.4,466,169.1,474.5L169.1,474.5z M190.5,428.1
			c-4.7,7.3-8.6,15-11.7,23c-0.1-0.4-0.1-0.8-0.2-1.2c-2.7-13.2-15.6-23.6-26.1-31.9c0.3,0,0.5-0.2,0.6-0.4c1.3-5.7,2-11.2,3.9-16.8
			c2.1-6.1,5.6-11.3,9.3-16.5c5.3,2.2,10.5,4.7,15.6,7.5c5.3,2.8,10.4,5.8,15.4,9.2c2.8,2,5.5,4.3,7.8,6.8c-0.1,0.1-0.1,0.3,0,0.4
			l0,0c-1.4,1.1-4.5,5.3-2.5,2.7c-1.1,1.4-2.2,2.9-3.3,4.3C196.2,419.4,193.3,423.7,190.5,428.1L190.5,428.1z M199.6,419.8
			c-0.1-0.1-0.2,0-0.2,0c2.3-3.5,4.6-7,7-10.5c1.2,1.4,2.2,2.9,3,4.6C210.9,419.9,207.7,421.9,199.6,419.8L199.6,419.8z
			 M338.9,499.5c0.8,11.1-6.3,28.9-19.9,27c-12.6-1.8-23.3-8.9-25-22.1c-1.4-11.5,3.9-22.1,7.5-32.5c0.1,0.1,0.2,0.3,0.3,0.4
			c6.3,7.3,21.7,8.3,29.9,3.3c0.1,0.5,0.5,0.8,0.9,0.7c0.2,0,0.4-0.1,0.5-0.3C335.1,483.9,338.3,491.2,338.9,499.5L338.9,499.5z
			 M332.3,473.4c-10.6,5.2-28.2,4-32.4-9c-3.6-11-4.6-23.3-6.5-34.7c14,0.6,29.1-0.1,42-5.3C334.3,440.7,336.4,457.5,332.3,473.4
			L332.3,473.4z M345.7,370.6c1.5,7.4,2.6,14.9,3.3,22.5c0.6,7.5-1.1,13.9-3,21c-0.1,0.4,0.1,0.8,0.5,0.9c0.1,0,0.3,0,0.5,0
			c-8.8,5.4-18.5,9.2-28.6,11.2c-11.7,2.2-23.7,1.6-35.5,1.5c-2.4-16-9.3-39.1-28.6-41.2c-19.5-2.1-33.4,12.8-41.8,28.7
			c-7.3-17.2-29.6-26-45.6-32.6c-2.2-0.9-9-3.9-12.5-2.4c4-6.8,7.5-14,12-20.6c6-8.8,13.4-14.6,21.5-21c5.9,3.6,12,6.7,18.4,9.2
			c-2.5,2.5-4.3,5.4-7.2,7.6c-3.2,2.2-6.7,3.9-10.5,4.9c-0.4,0.1-0.6,0.6-0.5,1c0.1,0.4,0.5,0.6,0.9,0.5c6.7-1.1,16.2-6.5,18.2-13.6
			c19.1,7.2,39.6,9.8,59.8,7.4c21.8-2.5,46.3-11.9,64-26.9c0,0,0,0.1,0,0.1C338.3,341.9,342.8,355.8,345.7,370.6L345.7,370.6z
			 M297.4,258.1c6.9,8.9,14.6,17,23.1,24.3c9,7.6,29.6,17.7,20.4,32.2c-0.2,0.3-0.2,0.6-0.2,0.9c-10.1,8.7-19.7,17.1-31.5,23.5
			c-12.5,6.7-26.2,11.2-40.2,13.3c-30.9,4.9-61.7-3.6-87.9-19.8c-0.2-0.2-0.5-0.1-0.7,0.1c0,0,0,0.1-0.1,0.1c0,0-0.1,0-0.1,0
			c0.3-15.5,1.4-30.5,4.7-45.7c3.2-14.9,8.5-29,13.1-43.5c0.1-0.2,0-0.5-0.2-0.6c1.2-0.2,2.3-0.4,3.5-0.6
			c3.7,8.4,11.9,13.5,20.9,14.5c3.1,0.4,3.7-2.7,4.5-4.9c0.2-0.7,0.5-1.4,0.8-2.1c0.7,2.2,2.2,4.1,4.2,5.4
			c0.5,8.7,0.5,17.4-0.1,26.1c-0.6,8.3-4,17.2-3.4,25.5c0.3,4.1,7.4,7.8,10.2,9.9c7,5.4,14.2,10.6,21.6,15.5
			c0.5,0.3,1.2,0.1,1.5-0.4c6.7-11.1,13-22.4,18.8-33.9c0.2-0.4,0.2-0.8,0-1.2c-11.4-15.3-20.3-31.7-30.6-47.6
			c1.2-2.2,2-4.6,2.4-7.1c0.8,0.3,1.6,0.7,2.4,1c0.5,0.3,1.2,0.1,1.6-0.4c7.2-11,12.3-26.4,6.9-39.2c0-0.1-0.1-0.1-0.1-0.2
			c0.2-0.4,0.5-0.7,0.7-1.1C272.6,222.2,283.9,240.9,297.4,258.1L297.4,258.1z M313.4,220.3c-3.4,5.1-7,9.9-10.8,14.7
			c-1.9,2.4-6.5,10.1-10.1,11.3c-10-14.6-18.4-30.3-28.3-45.1c3.5-5.4,6.3-11.2,8.6-17.3c3-8.4,4.5-17.3,4.5-26.3
			c9.6,19.7,29.4,33.5,50.3,39C323.2,204.8,318.5,212.7,313.4,220.3L313.4,220.3z M325.9,185.2c1.2,3,1.5,6.1,2.2,9.1
			c-4.4-1.1-8.7-2.6-12.9-4.5c2.5-3.8,4.6-7.9,6.2-12.2C323,180.1,324.8,182.4,325.9,185.2L325.9,185.2z M384.3,90.6
			c-3.5,6.8-10.7,10.9-17.2,14.2c-5.3,2.6-10.4,5-14.8,9c-4,3.6-6.6,8.8-9.2,13.4c-6.7,11.5-12.6,23.5-17.7,35.8
			c-2.2,5.1-4.2,10.3-6.3,15.5c-1.1,2.7-2.2,5.4-3.3,8.1c-0.2,0.4-0.9,1.7-1.3,2.7l0,0c-0.1,0-0.1,0.1-0.1,0.1
			c-13.7-6.5-24.8-16.6-33.9-29.3c6.5-7,11.5-15.3,16.6-23.3c5.7-9,11.4-18.6,15.2-28.6c5-12.8,6-28.6,7.4-42.3
			c0.7-7.4-0.1-15.1,1.5-22.3c2.8-6.1,6.7-7.7,11.4-4.7c2.6,1.7,4.4,4.4,5,7.4c1.3,4.3,0,9.5-0.7,13.8c-0.1,0.6,0.7,0.8,0.9,0.2
			c0-0.1,0-0.2,0.1-0.3c0.2,0,0.3-0.1,0.4-0.2c3.7-4.6,17.2-35.7,25.2-28.9c3.9,3.3,3,11.5,1.8,15.7c-1.9,6.8-3.8,13.9-7.3,20.1
			c-0.3,0.5,0.4,0.8,0.7,0.4c0.2-0.3,0.5-0.7,0.7-1.1c0.2,0.1,0.5,0.1,0.7-0.1c3.4-2.9,6.5-6.1,9.8-9.2c1.3-1.2,2.6-2.5,3.9-3.7
			c4.5-4.2,16.4-9.6,13.7,5.3c-1.8,9.6-8.1,18.2-14.8,25c-1.2,0.6-2.4,1.3-3.5,2.1c-0.6,0.5,0,1.5,0.6,1.1c3.3-2.3,7-4,10.8-5.2
			C388.3,78.9,386.5,86.5,384.3,90.6L384.3,90.6z"/>
		<path id="Path_787" class="st14" d="M386.1,83.8c-6.9,7.6-15.6,13.2-25.3,16.3c-5.7,1.8-11.8,2.7-16.8,6
			c-6.3,4.1-9.9,11.1-13.4,17.7c-10,18.7-21.9,36.5-35.4,52.9c5.7,5.1,12.1,9.3,19,12.6c0,0,0.1-0.1,0.1-0.1l0,0
			c0.4-1,1.2-2.3,1.3-2.7c1.1-2.7,2.2-5.4,3.3-8.1c2.1-5.2,4.1-10.3,6.3-15.5c5.1-12.3,11.1-24.2,17.7-35.8
			c2.7-4.6,5.3-9.8,9.2-13.4c4.4-4,9.5-6.4,14.8-9c6.6-3.3,13.7-7.4,17.2-14.2C385.5,88.5,386.1,86.2,386.1,83.8L386.1,83.8z"/>
		<path id="Path_788" class="st15" d="M272.9,101.8c-4.7-3.1-8.8-6.8-12.3-11.2c-9.2-11.4-14.7-25.2-22.6-37.5
			c-1.2-1.9-3.1-3.9-5.2-3.3c-1.4,0.4-2.3,1.9-3.6,2.6c-1.7,0.8-3.7,0.1-5.4-0.5c-15.2-5.1-31.6,1.1-46.7,6.6
			C143.8,70.5,76.9,79.7,74.9,85.3s6,6.3,10,7.7c-14.9,4.1-30.1,7.8-45.6,7.1c-12.8-0.6-25.9-4.8-35.5-13.1
			c-2.7,5.7-0.5,12.7,4.4,16.8c7.2,6.1,16.5,9.3,25,13.1c6.2,2.8,12.8,5.2,18.9,8.3c2.6,1.3,5,2.9,6.6,5.4
			c4.7,7.5,7.7,16.4,11.8,24.3c4.8,9.3,11.5,31.7,24.7,30.7c17.8-1.5,5.6-24.2,2.7-33.6c-5.6-17.7,0.1-32.7,14.6-44.1
			c16.1-12.6,33.8-22.9,52.7-30.6c15.2-6.1,35.3-12.8,52-10.7c15.7,2,18.5,24.5,24.7,35.3c3.1,5.4,10.7,14.5,18.1,13.7
			c5.6-0.7,9.9-7.2,12.1-11.9C272.4,103.2,272.6,102.5,272.9,101.8L272.9,101.8z"/>
		<g id="Group_33" transform="translate(2.802 2.819)">
			<path id="Path_789" class="st16" d="M109.6,15.6c12.3-1.4,24.7-2.8,36.5-6.4c9.9-3,20-7.5,30.3-5.8c8.4,1.4,16.2,7,24.6,7.2
				c-23.6-19.4-52.3-6.5-79.3-0.8c-13.9,2.9-28.2,3.7-42.2,0.8C71.2,8.9,58.6,4.3,53,13.8c-0.6,1-1.1,2-1.5,3.1
				c3-1.6,6.4-2.6,9.9-2.7c6.5-0.3,12.9,1.6,19.3,2.4C90.3,17.8,100,16.7,109.6,15.6z"/>
			<path id="Path_790" class="st16" d="M48.8,39.2c-2.4-0.2-4.7-0.5-7-1.1c-8.3-1.9-16.1-6.8-24.4-8C6.6,28.6,1.1,35.1,0,43.1
				c1.4-2.3,3.3-4.2,5.7-5.6C18.5,30.6,35.4,42.5,48.8,39.2L48.8,39.2z"/>
			<path id="Path_791" class="st16" d="M222.5,11.1c5.3,1.3,11.6-2.1,15.9,1.2c-0.3,0.8-0.6,1.6-1.1,2.3c1.8-1.2,3.1-3.2,0.7-5.1
				c-3.8-3.1-9-2.6-13.5-1.3c0.1,0.5-0.2,1-0.7,1.2c-0.3,0.1-0.7,0-0.9-0.2c-2.5-2.7-5.1-5.7-8.4-7.5c-2.9-1.5-7.7-3.2-9.8,0.8
				c0,0.1,0,0.1-0.1,0.2c3.1-0.9,6.5,0.8,9.1,2.9C216.6,7.6,219.1,10.3,222.5,11.1L222.5,11.1z"/>
		</g>
		<path id="Path_792" class="st14" d="M285.4,136.7c-1.2-0.9-2.2-2-3.1-3.2c-3.4-4.6-4.6-10.5-5.1-16.2c-0.5-4.8-0.4-10,2.1-13.9
			c-1.2-0.4-2.3-0.7-3.5-0.8c-0.1,0-0.2-0.1-0.2-0.1c-0.7,1.7-1.5,3.2-2.4,4.8c-2.6,4.1-5.2,7.6-8.5,9.3
			c7.2,8.8,11.1,20.4,12.3,32.5C279.9,144.8,283,141,285.4,136.7L285.4,136.7z"/>
		<path id="Path_793" class="st14" d="M119.6,220c-8.5-9.3-15-20.6-20.9-32.5c-2.3,0.7-4.8,0.8-7.1,0.4c-0.6,2.4-1,4.8-1.3,7.2
			c10.7,3.7,18.8,14.6,18.5,26c0,0.1,0,0.1,0,0.2C112.5,221.6,116.1,221.2,119.6,220L119.6,220z"/>
		<path id="Path_794" class="st14" d="M177.7,315.8c-2.7,1.4-5.2,1-7.8,0c-5.6,3.9-11.7,7-18,9.4c5.5,6.4,1.4,14.6-5.3,19.4
			c12-0.8,22.1-3,31.8-10.5C177.6,328,177.4,321.9,177.7,315.8z"/>
		<path id="Path_795" class="st14" d="M149.4,326.1c0,1-0.3,2.1-1,2.9c-3.2,3.2-8-0.4-8.9-3.6c-0.1-0.4,0.1-0.8,0.5-0.9
			c0.3-0.1,0.6,0.1,0.8,0.3c3.8,7.3,6.7-1.1,5.7-4.7c0,0,0-0.1,0-0.1c-0.3-0.1-0.7-0.1-1-0.2c-3.3-1.1-5.8-4.1-9.2-4.6
			c-3.9-0.5-7.4,2.4-9.7,5.6c-2.3,3.1-4.3,6.8-7.7,8.8c-3.7,2.1-8.4,1.7-12.4,0.4c-8.8-2.8-16.1-9.4-21.2-17.1
			c-2.7-4-4.9-8.3-6.8-12.7c0.3,8.7,3.9,16.9,10.1,23c9.2,9.3,20.6,17,33.1,20.8c7.3,2.2,16.6,4.3,23.5-0.4
			C151.6,339.1,153.4,332.2,149.4,326.1L149.4,326.1z M135.3,333.9c-0.5,0.6-1.3-0.2-1-0.8c2-3.9,3.3-8.1,3.8-12.4
			c0-0.3,0.3-0.6,0.6-0.6c0.3,0,0.6,0.3,0.6,0.6C139.6,325.4,138.2,330.1,135.3,333.9L135.3,333.9z"/>
		<path id="Path_796" class="st14" d="M293.3,429.7c0.4,2.2,0.7,4.4,1,6.7c8.5,6.4,20,9.2,30.8,10c3.3,0.2,6.5,0.3,9.8,0.2
			c0.1-7.4-0.1-14.9,0.3-22.3C322.4,429.6,307.4,430.3,293.3,429.7z"/>
		<path id="Path_797" class="st14" d="M197.3,400.9c-2.9-2-6-3.9-9.1-5.7c-7.9,7-13.8,16.3-17.7,26.2c-1.2,3.1-2.2,6.3-3.1,9.5
			c5.4,5.6,9.8,11.9,11.2,18.9c0.1,0.4,0.1,0.8,0.2,1.2c3.1-8,7.1-15.7,11.7-23c2.8-4.4,5.6-8.8,8.7-12.9c1.1-1.4,2.2-2.9,3.3-4.3
			c-2,2.5,1.1-1.6,2.5-2.7l0,0c-0.1-0.1,0-0.3,0-0.4C202.7,405.2,200.1,402.9,197.3,400.9L197.3,400.9z"/>
		<path id="Path_798" class="st14" d="M270.2,183.3c3.9-11.1,5.2-23,3.8-34.6c-1.5-11.6-6-21.1-11-31.4c-2.6,0.9-5.7,0.8-9.5-0.7
			c-17.8-7.3-16.3-29.5-28.3-42.1c-7.9-8.3-20-5.3-30.1-3c-9.1,2-18.1,4.1-26.7,7.6c-11.3,4.7-22.1,10.3-32.5,16.7
			c-9.4,5.7-19.7,11.3-27.3,19.4c-9.1,9.7-13.1,21.1-9,34.1c2.6,8.3,7,16.6,7.7,25.4c0.3,3.2-0.6,6.4-2.5,8.9
			c4-2.6,6.8-8.1,7.1-13.2c0.4-7.7-2.4-15.3-1.9-23c1-14.7,13.8-25.6,26.3-33.4c13.2-8.3,27.3-15.1,41.9-20.4
			c6.4-2.2,12.9-4.1,19.5-5.7c7-1.5,13.3-0.8,17,2.5c16,14.5,28.9,28.4,35.1,47.5c1.8,6,2.6,12.1,2.6,18.4
			c0.2,29.2-12.6,57.8-33.1,78.5c2.1-0.9,4.3-1.8,6.3-2.8C245.6,222,263,204.8,270.2,183.3L270.2,183.3z"/>
		<path id="Path_799" class="st4" d="M187.4,244.1c-4.6,2.2-9.8,8-13.4,12.5c2.7,9.7,2.2,20.3-0.2,30.1c-2,8.5-5.2,16.6-8.5,24.6
			c4.2,2.1,8.4,3.4,12.1,2.6c0.2,0,0.3,0,0.4,0.1c1.4-24.3,9.6-49.5,18.8-70.8C193.6,243.6,190.5,244,187.4,244.1L187.4,244.1z"/>
		<path id="Path_800" class="st4" d="M316.4,192.9c-10.8,6.2-23,9.4-35.4,9.5c-5.3,0-11-0.9-15.2-3.9c-0.5,0.9-1.1,1.9-1.7,2.8
			c9.9,14.8,18.3,30.5,28.3,45.1c3.6-1.3,8.2-9,10.1-11.3c3.8-4.8,7.4-9.7,10.8-14.7c5.1-7.6,9.8-15.5,14.2-23.6
			C323.8,195.7,320.1,194.4,316.4,192.9L316.4,192.9z"/>
		<path id="Path_801" class="st4" d="M320.5,282.4c-8.5-7.3-16.3-15.4-23.1-24.3c-13.5-17.2-24.8-36-33.9-55.8
			c-0.2,0.4-0.5,0.7-0.7,1.1c0,0.1,0.1,0.1,0.1,0.2c5.4,12.7,0.3,28.2-6.9,39.2c-0.3,0.5-1,0.7-1.6,0.4c-0.8-0.4-1.6-0.7-2.4-1
			c-0.4,2.5-1.2,4.9-2.4,7.1c10.3,15.9,19.3,32.3,30.6,47.6c0.2,0.4,0.2,0.8,0,1.2c-4.9,9.8-10.2,19.3-15.8,28.7
			c3.3-3.4,7.3-6,11.8-5.1c5.2,1,8.5,6.7,8.5,12c0,5.3-2.6,10.3-5.3,14.8c-0.5,0.8-1,1.5-1.5,2.3c10.9-2.4,21.5-6.3,31.3-11.6
			c11.8-6.5,21.4-14.9,31.5-23.5c-0.1-0.3,0-0.6,0.2-0.9C350.2,300.1,329.5,290,320.5,282.4L320.5,282.4z"/>
		<path id="Path_802" class="st17" d="M305.8,427.6c-0.4-5.4-1.5-10.8-3.1-16c-4.5-14-13.7-26.6-26.4-33.9
			c-16.2-9.3-36.9-9.3-54-1.8c-10.4,4.7-19.7,11.7-27.1,20.4c7.6,4.9,14,11,17.4,18.9c8.4-15.9,22.3-30.8,41.8-28.7
			c19.3,2.1,26.3,25.1,28.6,41.2C290.4,427.7,298.1,428,305.8,427.6z"/>
		<path id="Path_803" class="st18" d="M347,415c-0.4,0.1-0.8-0.1-0.9-0.5c-0.1-0.1-0.1-0.3,0-0.5c1.9-7.1,3.6-13.5,3-21
			c-0.7-7.6-1.8-15.1-3.3-22.5c-3-14.8-7.4-28.6-14.7-41.9c0,0,0-0.1,0-0.1c-11.9,10.1-27,17.6-42.2,22.2c3.7,1,7.3,2.1,10.9,3.5
			c6.9,2.6,13.6,6,19.1,10.9c10,8.9,15.3,22.5,15.7,35.9c0.1,7.2-0.9,14.4-3,21.3C336.9,420.4,342.1,417.9,347,415z M328.9,357.2
			c-9,0-17.5-4.2-23.1-11.2c-0.5-0.6,0.3-1.4,0.9-0.9c6,5.9,13.9,9.5,22.2,10.4C330,355.6,330,357.2,328.9,357.2L328.9,357.2z"/>
		<path id="Path_804" class="st19" d="M250.3,241.4c-5.7-2.2-11.5-4.1-17.5-5.6c-0.1,0-0.2-0.1-0.2-0.2c-1.4,4.7-3.1,9.3-5.1,13.9
			c0,0,0.1,0,0.1,0c0.9,0.7,1.9,1.5,2.8,2.2c0.6-2.3,1.7-4.4,3-6.3c0.6-0.9,1.3-1.6,2.2-2.1c1-0.4,2.2-0.6,3.3-0.6
			c3.5-0.2,7,0,10.5,0.7C249.7,242.7,250,242,250.3,241.4L250.3,241.4z"/>
		<path id="Path_805" class="st4" d="M261,225.1c1.6-6.5,1.7-13.2,0.4-19.7c-8.8,12.4-20.7,22.4-34.5,28.9
			c-7.5,3.5-15.4,6.1-23.6,7.8c2.1,2.6,4.4,5,7,7.1c2.3-2.7,5.3-4.5,8.7-5.4c2.8-0.6,5.7-0.8,8.6-0.4c1.4-3.9,3.1-7.6,5.2-11.2
			c0.1-0.2,0.3-0.2,0.5-0.1c0.1,0.1,0.2,0.2,0.1,0.4c-0.1,0.7-0.3,1.4-0.5,2.1c0.1,0,0.2-0.1,0.3-0.1c2.3,0.4,4.5,0.9,6.8,1.4
			c2.3-4,5.9-7.2,10.1-9C253.6,225.5,257.3,224.9,261,225.1L261,225.1z"/>
		<g id="Group_34" transform="translate(230.566 257.906)">
			<path id="Path_806" class="st20" d="M39.9,29.1l-1.8-2.6c-13.1,3.5-26,10.8-38,17.8c-0.3,3,0,5.9,2.7,8c0.5,0.4,1,0.8,1.5,1.2
				c14.1-4.3,29-9,40.7-17.1C43.3,34,41.6,31.5,39.9,29.1L39.9,29.1z"/>
			<path id="Path_807" class="st20" d="M30.4,70.5c3.5-5.8,6.8-11.7,10.1-17.7c-7.3,3.6-14.5,7.6-21.3,12.1
				C23.7,68.3,29.4,72.1,30.4,70.5L30.4,70.5z"/>
			<path id="Path_808" class="st20" d="M29.2,13.1C26.5,8.8,23.9,4.5,21.5,0C15.2,2.8,9,6.1,3.1,9.7c0.1,4.8,0.1,9.6-0.2,14.3
				C11.5,20.7,20.9,17.6,29.2,13.1z"/>
		</g>
		<path id="Path_809" class="st19" d="M276.7,295.8c-2.1-2.9-4.2-5.9-6.3-8.8c-7.8-11.4-16.1-23.3-21.8-36c-1.6,2.8-4.2,4.8-7.3,5.8
			c0.7,1,1.4,2.1,1.9,3.3c8.1,16.4,16.3,34,14.5,52.2c-0.5,4.8-1.6,9.4-3.2,14c3,1.9,5.7,3.2,6.3,2.2c4.3-7.1,8.4-14.4,12.3-21.7
			C274.5,304.2,278.9,298.8,276.7,295.8L276.7,295.8z"/>
		<g id="Group_35" transform="translate(244.109 257.906)">
			<path id="Path_810" class="st8" d="M8,0C5.3,1.1,2.6,2.4,0,3.8c2.2,4.5,4.4,9.1,6.3,13.7c3.2-1.3,6.3-2.8,9.3-4.4
				C12.9,8.8,10.3,4.5,8,0L8,0z"/>
			<path id="Path_811" class="st8" d="M31.5,36.4c-1.8-2.4-3.5-4.9-5.2-7.3l-1.8-2.6c-4.6,1.2-9,2.8-13.3,4.7
				c1.4,4.7,2.2,9.6,2.6,14.5C20,43.2,26,40.1,31.5,36.4L31.5,36.4z"/>
			<path id="Path_812" class="st8" d="M16.9,70.5c3.5-5.8,6.8-11.7,10.1-17.7c-4.8,2.3-9.6,4.9-14.2,7.7c-0.6,2.6-1.3,5.3-2.1,7.8
				C13.6,70.3,16.2,71.5,16.9,70.5L16.9,70.5z"/>
		</g>
		<path id="Path_813" class="st7" d="M338.9,499.5c-0.6-8.2-3.8-15.6-5.6-23.5c-0.3,0.4-0.8,0.4-1.2,0.1c-0.2-0.1-0.3-0.3-0.3-0.5
			c-0.9,0.5-1.9,1-2.9,1.4c5.9,16.8,3.1,35.4-7.6,49.7C333.5,526.3,339.7,509.9,338.9,499.5L338.9,499.5z"/>
		<path id="Path_814" class="st7" d="M169.6,473.9c7-8.6,9.8-22.8,3.9-31.8c-1.8-2.6-3.8-5.1-6-7.4c-3.1,1-6.8,0.9-10.1,0.5
			c-5-0.6-9.9-1.6-14.8-2.8c5,3.9,9.6,8.1,13.9,12.7c6.8,7.2,13.8,15.3,13.5,25.8c-0.1,1-0.3,2-0.6,3L169.6,473.9z"/>
		<path id="Path_815" class="st21" d="M307.8,511.2c-2.3-3.9-4.7-7.4-4.8-12.2c0-2.6-4.3-3.4-4.7-0.6c-1,6,0.4,13,6,16.4
			c1.3,0.7,2.8,0.2,3.5-1C308.3,512.9,308.3,512,307.8,511.2L307.8,511.2z"/>
		<path id="Path_816" class="st21" d="M316.6,518c-0.7-0.7-1.4-1.3-2.3-1.8c-1-0.4-2-0.7-3-0.8c-2.8-0.7-5,3.7-2.1,4.9
			c0.9,0.5,1.9,0.9,2.8,1.2c1,0.2,2,0.2,3,0.1C316.8,521.4,318.1,519.3,316.6,518L316.6,518z"/>
		<path id="Path_817" class="st21" d="M133.9,412c-4.3-3.7-10.3-4.8-15.6-2.7c-1,0.3-1.6,1.4-1.3,2.4c0.2,0.8,1,1.4,1.8,1.4
			c4.4,0.3,8.8,1.1,12.9,2.6C133.7,416.3,135.5,413.4,133.9,412L133.9,412z"/>
		<path id="Path_818" class="st21" d="M143.9,419c-1.1-1-2.3-1.9-3.5-2.7c-2.3-1.3-4.4,2.2-2.1,3.5c1.3,0.7,2.7,1.3,4.1,1.7
			c0.8,0.2,1.7-0.3,1.9-1.1C144.4,419.9,144.2,419.4,143.9,419z"/>
		<path id="Path_819" class="st15" d="M215.2,111.4c-2.8-6.3-10.4-7.8-16.3-5.3c-5.4,2.3-9.9,9.1-7.7,15.1c0.9,2.5,4.5,3.4,5.9,0.8
			c1.3-2.4,2.3-4.8,5-5.8c2.6-0.9,6,0.3,8.5,1.2C214.3,118.7,216.5,114.3,215.2,111.4z"/>
		<path id="Path_820" class="st15" d="M147.8,139.1c-9.3-8.1-25.9-0.2-23.8,12.4c0.5,3,5.2,4.3,7.1,1.9c1.7-2.1,3.1-4.9,5.4-6.4
			c2.6-1.8,5.8-2.1,8.9-2.1C148.2,144.9,150.1,141.1,147.8,139.1z"/>
		<path id="Path_821" class="st13" d="M228.5,134.5c-3.1-5.6-10.1-5.7-15.4-3.4c-5.9,2.6-8.4,9.7-6.8,15.6c0.9,3.5,6.2,2.7,6.2-0.8
			c-0.1-3,1.3-5.8,3.8-7.5c2.7-1.7,6.4-0.6,9.2,0c1.5,0.4,2.9-0.5,3.3-2C228.9,135.8,228.8,135.1,228.5,134.5L228.5,134.5z"/>
		<path id="Path_822" class="st13" d="M161.3,163.3c-3.7-5.1-10.6-6.7-16.2-4c-5.8,2.9-10.2,9.9-7.5,16.3c1.1,2.5,5.1,3.3,5.9,0
			c0.8-3.4,1.8-6.8,4.9-8.7c3-1.8,6.9-0.8,10,0.3C160.4,168,162.6,165.2,161.3,163.3L161.3,163.3z"/>
		<path id="Path_823" class="st22" d="M187.6,176.9c-1.5,1.5-3.8,1.7-5.5,0.5c-1.9-1.6,0.3-4.8,2-5.5c0.8-0.3,1.3-1.1,1-1.9
			c-0.2-0.6-0.8-1.1-1.4-1.1c-5.6-0.5-8.6,6.8-5.7,11.2c3.1,4.7,10.5,3.7,12.4-1.5C191,176.9,188.7,175.6,187.6,176.9L187.6,176.9z"
			/>
		<path id="Path_824" class="st23" d="M167.8,203.8c-0.8-7.1,43.5-30,54.9-24s3.5,33.5-17,42.5S168.8,212.8,167.8,203.8z"/>
		<path id="Path_825" class="st24" d="M205.7,196.8c-5.1,1.7-9.9,4.1-14.1,7.3c-5.5,3.9-10.6,8.5-14,14.3c6.9,5.5,16.9,8.8,28.2,3.9
			c11.3-5,18.7-15.5,21.3-25C220.1,195,212.7,194.8,205.7,196.8L205.7,196.8z"/>
		<path id="Path_826" class="st23" d="M246.4,138.1c-3.9-0.4-7.8,0.7-11.1,2.9c-1.7,1.1-3.1,2.6-4.1,4.4c-1.2,2-0.5,4.6,1.5,5.8
			c0.2,0.1,0.4,0.2,0.7,0.3c0,0,0.1,0,0.1,0c0.8,0.9,1.9,1.5,3.1,1.5c5.7,0.1,11-2.8,13.9-7.7C252.6,141.9,249.8,138.4,246.4,138.1z
			"/>
		<path id="Path_827" class="st23" d="M145,187c-3.9-0.4-7.8,0.7-11.1,2.9c-1.7,1.1-3.1,2.6-4.1,4.4c-1.2,2-0.5,4.6,1.5,5.8
			c0.2,0.1,0.4,0.2,0.7,0.3c0,0,0.1,0,0.1,0c0.8,0.9,1.9,1.5,3.1,1.5c5.7,0.1,11-2.8,13.9-7.7C151.2,190.9,148.4,187.4,145,187z"/>
	</g>
	<g id="Group_39" transform="translate(428.777 207.215)">
		<path id="Path_828" class="st5" d="M221,187.2c17.3-12.8,22.5-33,28.3-52.7c-12.2-5.1-23.3-12.7-32.5-22.2
			c-5.4-5.4-10.3-11.3-14.4-17.8c-1.8-2.9-6.6-8.2-5.6-12c-5,2.5-13.2,4.6-17.6,0.8c-2.4-2.1-1.8-6.2,0.1-9
			c-24.4,18.2-56.2,30.7-86.7,34.3c-2.6,11.7-5.2,22.6-2.8,34.7c2,10.2,5.8,20.1,12,28.5c13,17.4,33.4,29.4,55.2,31.5
			C178.8,205.5,203,200.4,221,187.2z"/>
		<path id="Path_829" class="st8" d="M148.1,212.6c-3.2,3.6-8.1,6.6-12.9,7.1c3.1,3.2,7,6.7,11.5,7.5c5.9,1.1,10.2-2,14.1-5.8
			C155.6,221.5,149.7,217.6,148.1,212.6z"/>
		<path id="Path_830" class="st9" d="M114.7,189C114.7,189,114.7,189,114.7,189c-0.2,0-0.4,0.1-0.6,0.1c-4.3,0.5-11.1-4.7-14.3-7.2
			c-4-3.3-8.4-7.5-10.5-12.4c0.1,14-5.9,32.1-18.6,39.6c-3,1.8-6.6,3.1-9.7,2.1c4.7,5.4,8.6,11.4,14.2,16.2
			c7.4,6.3,14.9,12.8,24,16.4c0.2-0.1,0.4-0.1,0.6,0l1,0.6c5.6-18.1,10.1-36.6,13.6-55.2C114.6,189.1,114.7,189.1,114.7,189
			L114.7,189z"/>
		<path id="Path_831" class="st8" d="M141.7,226.6c3,7.4-1.2,20.2-2.7,27.4c-1.6,7.5-3.6,15.2-3.3,22.9c0.2,6.2,9,8.5,13.1,12
			c3.2,2.8,4.1,4.9,7.1,0.8c2.2-3.1,4.5-6.1,6.7-9.2c1.9-2.6,4.9-5.5,6.1-8.5c1.5-3.6-0.5-8-1.8-11.4c-4.2-10.4-10.5-21.3-10.9-32.8
			C151.5,229.8,146.2,229.1,141.7,226.6L141.7,226.6z"/>
		<path id="Path_832" class="st4" d="M219.6,191.6c-0.8,2.4-1.4,4.9-2,7.3c2-1.2,4-2.3,6.1-3.3C222.4,194.1,221.6,192.3,219.6,191.6
			L219.6,191.6z"/>
		<path id="Path_833" class="st4" d="M67.2,208.5c-2.1-3.1-4-6.4-5.7-9.9c-0.7,1.4-1.3,2.8-1.8,4.3
			C58.4,207.8,63.3,209.4,67.2,208.5L67.2,208.5z"/>
		<path id="Path_834" class="st5" d="M68.3,208.1c0.5-0.2,1-0.5,1.4-0.8c4.5-3.5,8.3-7.8,11.1-12.7c3.4-5.9,5.7-12.3,6.7-19
			C76,164,64.5,147,61.1,130.8c-2-9.4-2.2-19-2-28.6c0.1-5.2,0.2-10.4,0.3-15.6c0.1-3.2,0.6-9-4.3-9.8c-9.4-1.4-8.6,9.5-7.9,14.6
			c0.3,0.6,0.6,1.1,0.8,1.5c0.4,0.7-0.6,1.5-1.1,0.9c-3.5-4.2-5.8-9-8.7-13.6c-2-3.3-4.2-6.7-7.1-9.2c-3.6-3-6.9-0.8-7.1,3.4
			c-0.4,9.3,4.5,19.2,9,27c0.2,0.4-0.3,0.9-0.6,0.5c-0.1-0.1-0.1-0.2-0.2-0.3c-0.2,0.2-0.6,0.2-0.9,0c-3.2-2.7-5.8-6-8.5-9.1
			c-2.2-2.5-7.2-9.3-10.9-8.8c-7.7,1-1.5,14.6,0.3,17.8c2.2,3.6,4.9,7,7.9,10l0,0c0.4,0.3,0.8,0.6,1.2,0.9c0.6,0.5,0,1.5-0.6,1.1
			c-2.7-1.9-5.7-3.4-8.8-4.6c-1.2-0.4-11.6-2.6-9.2,1.3c2.6,4.1,5.9,7.7,9.7,10.8c9.1,7.8,19,14.7,25.8,24.7
			c7.6,11.1,13.3,23.3,18.4,35.7C60.1,189.7,62,201.2,68.3,208.1z"/>
		<path id="Path_835" class="st4" d="M85.5,168c-0.5,0.1-1,0.3-1.5,0.5c1.3,1.7,2.6,3.4,3.9,5.2c0.2-1.7,0.5-3.5,0.6-5.3
			c0-0.1,0-0.1,0.1-0.2C87.6,167.8,86.5,167.8,85.5,168z"/>
		<path id="Path_836" class="st25" d="M194.7,49.3c-0.1-4.5,2.4-9.8,6.2-12.2c-0.4-0.2-0.5-0.7-0.3-1c0-0.1,0.1-0.1,0.1-0.2
			c0.8-0.7,1.7-1.3,2.7-1.7c-3.1-6.5-7.7-12.5-14.4-15.7c-3.8-1.8-10-4.3-14.2-2.7c-6,2.3-3.1,5.8-4.5,9.2c-1.1,2.5-2.6,4-4.3,6.1
			c-4.2,4.9-4,12.1,1.2,16.3C175.3,53.8,185.5,53.4,194.7,49.3L194.7,49.3z"/>
		<path id="Path_837" class="st25" d="M204.6,36.4c-5.5,2.2-8.9,7.7-8.4,13.6c1,8,9.3,9.6,14.5,4.3c3.2-3.2,7.9-9.6,5.9-14.5
			c-2.2-5.5-7.3-5.6-11.8-3.9c0.1,0.1,0.1,0.3,0,0.5C204.7,36.4,204.7,36.4,204.6,36.4L204.6,36.4z"/>
		<path id="Path_838" class="st25" d="M209.6,57.5c-0.2,0.1-0.4,0.2-0.7,0.3c0.6,6.7,4.8,15.3,12.1,16.9c10.7,2.4,5.9-5.5,10.2-8.4
			c5.7-3.9,12.8-10,7.4-17.9c-4.4-6.4-12.4-7.4-19.5-5.6c-0.1,0-0.1,0-0.2,0C218.5,48.7,214.5,55,209.6,57.5L209.6,57.5z"/>
		<path id="Path_839" class="st9" d="M214.8,216.2c-0.8-8.3,0.5-16.7,3.7-24.5c-14.7,9.1-31.5,14.2-48.8,14.9
			c11,13.6,18.9,30.6,26.2,46.3c0.1,0.1,0.1,0.2,0.2,0.4c5-2.4,10.9-3.3,16.1-5.1c5.8-1.9,11-4.9,16.5-7.2c-2.6-0.2-5.5-2.4-7-3.9
			C216.9,232.2,215.3,222.8,214.8,216.2L214.8,216.2z"/>
		<path id="Path_840" class="st8" d="M151.6,205.3c-7.5-1.4-14.8-3.8-21.7-7c-3,5.6-7.3,17.5,1.3,19c6.7,1.2,12.6-2.9,17-7.4
			c0.6-0.7,1.8,0.2,1.3,1c-0.2,0.3-0.4,0.6-0.6,0.8c0.8,1,2.7,3.2,2.6,3.2c0.5,0.6,1,1.1,1.6,1.6c2.1,1.7,5.5,4.1,8.4,3.1
			c6.2-1.9,5.5-8.2,1.1-11.6c-0.4-0.3-0.5-0.9-0.2-1.3c0-0.1,0.1-0.1,0.1-0.2C158.9,206.4,155.2,206,151.6,205.3L151.6,205.3z"/>
		<path id="Path_841" class="st26" d="M61.4,94.2c-0.2,15.7-1.1,31.7,5.7,46.3c2.9,6.2,5.9,12.7,9.7,18.4c2.1,3.1,4.4,5.9,6.7,8.8
			c1.7-1,3.8-1.1,5.6-0.1c0.1,0.1,0.2,0.2,0.1,0.3c0.1,0.1,0.2,0.2,0.2,0.3c0,0,0,0,0,0c3.8,4.2,6.8,8.9,11.5,12.3
			c1.6,1.2,8.6,6.2,11.9,6.8c-5.7-4.6-10.6-10-14.6-16.1c-11.1-17-17.3-43.3-7.6-62.5c-3.6,0.4-7.2,0.7-10.7,0.8
			c-0.6,0-0.8-1-0.1-1.1c18.6-2.9,36.8-6.4,54.5-13.3c17.6-6.8,33.3-16.2,49.1-26.5c0.9-0.6,2,0.8,1.2,1.5c-0.7,0.5-1.4,1.1-2,1.6
			c-0.2,1.6-1.2,2.5-1.9,3.9c-1.5,3.4-0.7,7.2,3.7,7.2c4.4-0.1,8.7-0.9,12.8-2.6c0.9-0.3,1.4,0.9,0.9,1.5l0.2,0.1
			c0.2,0,0.3,0.2,0.2,0.4c0,0.1,0,0.1-0.1,0.1c-2.3,2.3,11,18.4,12.4,20c3.9,4.6,8.1,8.9,12.7,12.9c9.9,8.4,20.8,14.2,32.5,19.7
			c1,0.4,0.3,2-0.7,1.7c-1.6-0.5-3.2-1.1-4.9-1.7c-4.9,21-10.9,43.5-30.1,55.8c-0.1,0.1-0.2,0.1-0.3,0.2c1.9,0.4,3.7,2.5,4.7,4.2
			c3.8-1.8,7.4-3.9,10.8-6.4c5.9-4.5,12.2-9.3,17.2-14.9c9-10.1,13.4-23.4,18.6-35.7c-0.2-0.2-0.4-0.5-0.3-0.8
			c1.2-15.5,3.4-30.9,0.2-46.4c-2.7-13.2-7.8-25.9-15.1-37.2c-15.7-24.2-37.8-38.8-64.8-47.8c-0.1,0.2-0.4,0.3-0.6,0.3
			c-16.3-3.6-33.6-5.7-50.2-2.5c-14.6,2.9-28.1,9.2-40.2,17.7c-11.7,8.2-23.6,18.1-32,29.8c-5.4,7.6-7.5,16.4-11.2,24.8
			C62.9,79,61.5,87.6,61.4,94.2L61.4,94.2z M167.8,25.7c1.5-3.5,0.3-9.4,4.8-11.2c4.3-1.7,9.1-1.2,13.4,0.6
			c8.5,3.5,15.4,9.8,18.2,18.7c5-2.1,11.7-1.7,14,4c0.4,1,0.6,2.1,0.7,3.1c7-2.6,18-1,21.6,6.4c3.3,6.8,1.7,15.5-5.6,19.1
			c-4.2,2.1-3,8-7,9.8c-3.2,1.4-5.9,1.1-9.1-0.3c-6.9-2.9-10.6-10.6-10.9-17.8c-5.8,2.1-11.5,0-13-6.6c0-0.1,0-0.2,0-0.3
			c-8.7,4.4-21.9,4.9-29.2-2.6c-3.2-3-5-7.2-4.9-11.6C160.8,31.9,166,30,167.8,25.7L167.8,25.7z"/>
		<path id="Path_842" class="st4" d="M232.1,232.6l0-1.4c0-0.8,0-1.6,0-2.4c-3.1,2.8-5.8,5.3-7.4,6.5
			C229.9,237.2,232.4,236.3,232.1,232.6z"/>
		<path id="Path_843" class="st5" d="M148.8,411.5c-3.8,5.7-8.3,11-13.2,15.8c6.8-1,13.7-0.6,20.6-2.2c7.7-1.6,15.1-4.3,22.1-7.8
			c6.9-3.7,13.8-8,19.3-13.6c6.5-6.7,6.7-15.1,11.1-22.7c-16.5,10.8-34,17-53.8,17.9C155,403.1,150.9,408.5,148.8,411.5L148.8,411.5
			z"/>
		<path id="Path_844" class="st27" d="M121,464c1.5-1.2,2.6-2.8,3.1-4.7c2-7.3,1.8-15.1,0.9-22.6c-6.7,5.5-13.9,10.3-21.5,14.4
			C107.4,457.8,112.9,463.7,121,464z M110.6,450.8c3.2-2.1,7.3-2.7,11-1.6c0.5,0.2,0.5,1.1-0.1,1c-3.6-0.3-7.2,0.2-10.5,1.5
			C110.4,451.9,110.2,451.1,110.6,450.8L110.6,450.8z"/>
		<path id="Path_845" class="st28" d="M163,335.3c-14.7,1.8-29.5,0.8-44.1-1c-10.5-1.1-20.9-3.1-31.1-5.7c-2.1,10.1-3,20.3-2.8,30.6
			c0.1,6.3,0.7,12.5,1.8,18.7c0.8,4.7,0.8,12.1,7,13.4c18.9,4,38.2,5.8,57.5,5.4c20.6-0.5,39-6.1,56.1-17.7
			c14.1-9.6,33.9-23.9,33.8-42.8c-12-5.4-19.3-21.1-27.2-31.1C203.4,323.4,183.7,332.8,163,335.3L163,335.3z"/>
		<path id="Path_846" class="st5" d="M146.6,410.2c2.1-3.2,5.4-7.3,6.6-11.2c-0.7,0-1.3,0.1-1.9,0.1c-12.2,0.2-24.3-0.4-36.4-1.9
			c-4.5-0.6-9-1.3-13.4-2.2c-8.6,14.7-20.5,33.3-36,41.2c-0.1,0-0.1,0.1-0.2,0.1c6.8,11.3,17.3,16.2,30.2,17.3c0,0,0,0,0,0
			c12.1-9,25.5-15.6,36.5-26.2C137.4,422.2,142.3,416.5,146.6,410.2L146.6,410.2z"/>
		<path id="Path_847" class="st29" d="M233.1,227.9c0.3,0,0.5,0.2,0.5,0.5c0.7,3.9,1.1,8-1.6,11.2c-0.2,0.2-0.4,0.4-0.7,0.6
			c0,0.1,0,0.1-0.1,0.2c-9.2,6.7-23.1,13-34.6,14.2c4.2,9.2,8.3,18.5,12,27.9c0.1,0,0.1-0.1,0.2-0.1c16.4-6.3,30.9-13.9,44-25.8
			c2.4-2.2-0.1-8.8-0.4-11.7c-0.5-4.6-0.7-9.2-0.6-13.8c0.3-8.2,1.7-16.4,4.1-24.3c-2.1,1.7-4.1,3.5-6.2,5.4
			C248.7,213.2,240.2,221.3,233.1,227.9L233.1,227.9z"/>
		<path id="Path_848" class="st5" d="M305.5,170.9c-2.4,0-4.8,0.3-7.2,0.7c-0.8,0.1-1.1-1-0.3-1.2c0.4-0.1,0.9-0.2,1.5-0.3
			c4.7-2,9.2-4.2,12.9-7.8c1.6-1.5,3.1-3.2,4.3-5c0.8-1.3,6.1-10.5-1.5-8.6c-7.7,2-14.3,6.7-21.8,9c-0.3,0.1-0.6-0.1-0.7-0.3
			c-0.1,0-0.1,0.1-0.2,0.1c-0.2,0.1-0.4,0-0.6-0.1c-0.1-0.2,0-0.4,0.1-0.6c6.4-4.9,17.8-13.6,18-22.6c0.2-7.8-12.3,1.1-14.7,3.1
			c-3.9,3.2-7.6,6.6-12.1,8.9c-0.2,0.1-0.5,0.1-0.7,0c-0.1,0.1-0.2,0.2-0.2,0.3c-0.3,0.4-1-0.1-0.7-0.6c2.1-3.4,5.1-7.6,5-11.8
			c-0.2-5.8-7.8-7.8-10.4-2.4c-2.2,4.5-3.9,9.3-5.8,14c-3.3,8.4-6.6,17.1-11.9,24.5c-9.7,13.7-25.7,24.4-41.2,30.6
			c-1.3,6.7-1.2,13.6,0.2,20.3c1,4.3,1.9,9.5,4.6,13.1c0.4,0.2,0.7,0.3,1.1,0.5c16.8-11.7,28.5-29.3,46-40.5
			c10-6.4,20.6-9.1,31.8-12.7c4.4-1.4,11-2.8,14.2-6.6C318.2,171.4,306.8,170.9,305.5,170.9L305.5,170.9z"/>
		<path id="Path_849" class="st29" d="M76.1,230.3c-6.7-5.7-12.4-12.5-17-20c-0.6-0.4-1.1-1-1.5-1.6c-2.4-3.4,1.2-9.1,3-11.8
			c0,0,0,0,0.1,0c-4.7-10.1-8.1-21.1-13-31c-0.8,10.7-4,21.8-7.9,31.7c-2.1,5.6-4.7,11-7.8,16.1c-4.1,6.4-11.3,12.2-6.6,20.5
			c6.7,11.9,16.5,22.2,27.2,30.6c5.4,4.4,11.3,8.2,17.4,11.6c4.3,2.3,12,7.4,17.2,6.1h0c5-11.9,9.4-24,13.2-36.3
			C91.1,243.2,83.4,236.6,76.1,230.3L76.1,230.3z"/>
		<path id="Path_850" class="st9" d="M77.9,324.4c3.1,0.6,6.1,1.2,9.2,1.9c0.2-0.2,0.6-0.2,0.8,0.1c0,0,0,0.1,0.1,0.1
			c23.2,4.7,47,9.2,70.7,6.7c12.4-1.3,25.7-3.9,36-11.4c7.8-5.6,12.5-13.1,18.4-20.3c-12.9-32.8-26.5-64.6-44.7-94.8
			c-1.5,0-3,0-4.6-0.1c5.9,2.2,6.4,11.5,0.4,14.1c-0.5,0.2-1.1,0.4-1.7,0.5c0.1,0.2,0.1,0.5,0,0.7c-1.2,2.1-2.9,3.9-5,5.1
			c1.7,6.5,3.1,12.8,5.7,19c2.6,6.2,5.9,12.5,7.6,19c1.4,5.4,0.2,7.5-3.1,12l-13.4,18.4c-0.3,0.5-1,0.7-1.5,0.4
			c-0.1,0-0.1-0.1-0.2-0.1c-3.3-3.7-7.1-6.8-11.4-9.3c-1.7-1-4.6-1.8-6-3.2c-3.3-3.4-1.7-9.7-1.3-13.9c0.7-7,2.7-13.9,4.2-20.8
			c1.2-5,2-10.1,2.3-15.2c0-1.2-0.6-6,0.4-7c-2.7-1.6-5-3.7-6.8-6.3c0-0.1,0-0.1,0-0.2c-2.5,0.1-4.9-0.7-6.9-2.1
			c-5.8-4.4-2.8-14.8,1.2-20.1c-4.6-2.3-8.9-4.9-13-8c-3,26.4-9.8,52.6-19.1,77.4c-4.7,12.6-10,25-16,37c-0.8,1.7-9.9,17.9-9,18.3
			c1.9,1,3.9,1.7,6,2.3C77.5,324.5,77.7,324.3,77.9,324.4L77.9,324.4z"/>
		<path id="Path_851" class="st30" d="M102.9,451.4c-1.5,0.8-3,1.5-4.5,2.1c1.5,4,3.9,10.8,8,12.8c3.7,1.9,9.1,1.2,13-1.1
			C111.9,464.7,105.7,458.1,102.9,451.4L102.9,451.4z"/>
		<path id="Path_852" class="st13" d="M65.8,464.3c-0.4,0.5,0.1,1.3,0.7,0.9c7.9-5.3,15.1-5.7,24-3c0.5,0.1,1-0.2,1.1-0.7
			c0.1-0.4-0.1-0.8-0.4-1C83.5,455.8,72,457.9,65.8,464.3L65.8,464.3z"/>
		<path id="Path_853" class="st13" d="M88.2,472.1c-5.4-1.7-12.9,0.2-17.4,3.5c-0.5,0.4-0.2,1.4,0.5,1.1c2.5-1,5.1-1.9,7.7-2.5
			c3-0.6,6-0.1,9-0.2c0.5,0,1-0.5,1-1C88.9,472.6,88.6,472.3,88.2,472.1z"/>
		<path id="Path_854" class="st13" d="M304.7,169.2c8.1-3.6,17.9-11.3,16.3-19.7c-1.3-6.5-14-0.7-22,3.6c3.4-2.8,6.4-5.9,9.1-9.3
			c2.2-2.8,4.8-7.6,3.9-11.4c-2.4-10.6-20.8,5.3-27.4,10.9c3.4-5.2,5.8-11.8,0.8-16.8c-4.2-4.2-8.5,0.8-11.1,5.1
			c4.8-27.2-1.5-56.1-16.1-79.3C243.8,29.4,218.7,9,191.3,5.2c0,0,0,0,0,0c-0.1-0.1-0.2-0.3-0.4-0.3c-15.8-4.3-31.9-6.1-48.2-4
			c-15.1,2-28.9,8.6-41.5,16.9C79.9,31.6,61.4,50.1,55.6,75.3c-0.7-0.2-1.3-0.4-2-0.5c-7.3-1-8.3,8-7.8,14.1
			c-4.9-9-15.5-28.2-22.1-20.6c-5.5,6.4-0.3,19.2,4.6,27.6c-3.2-4-6.7-7.7-10.4-11.3c-2.8-2.7-6.7-4.4-9.8-1.5
			c-3.6,3.3-1.5,10-0.1,13.8c1.6,4.1,4,7.9,7,11.2c-5.1-2.9-11.1-4.7-14.8,0.5c-2.8,4,14.3,16.7,15.9,18.1
			c5.5,4.3,10.8,9.1,15.7,14.1c6.3,6.7,10.8,15.3,15,23.4c-3.5,15.5-7.1,30.4-14.8,44.6c-2.8,5.2-8.9,10-10.6,15.5
			c-1.8,6.2,1.7,11.3,4.9,16.4c8.2,12.7,20.1,23.1,32.4,31.7c3.9,2.7,20.5,14.7,27.4,12.3c-5.3,12.6-11.3,25-17.9,37
			c-0.3,0.5-0.1,1.2,0.4,1.5c5.2,3.4,11.3,4.7,17.4,4.9c0.1,0,0.2,0.1,0.4,0.1c-2.6,11-3.8,22.4-3.5,33.7c0.2,8.3,0.1,22.3,5.3,29.2
			c2,2.7,7.4,2.8,10.2,3.4c0.3,0.1,0.6,0.1,0.9,0.2c-5.4,7.4-10.4,15-16.3,22.1c-5.7,6.9-12.5,12.1-19.1,18
			c-0.2,0.1-0.3,0.3-0.3,0.5c-0.2,0.1-0.3,0.3-0.2,0.4c-6.7-0.4-11.1,4.1-13.8,9.8c-0.2,0-0.3,0.1-0.4,0.2c0,0,0,0,0,0
			c0,0.2-0.1,0.5-0.1,0.7c-1.9,4.6-3.1,9.5-3.4,14.5c-0.9,13,4.8,30.8,16,38.4c11.1,7.5,23.3,5.4,31.9-4.8c8.9-10.5,8.1-28,1.3-39.4
			c0.1,0,0.2,0,0.2,0c0.4,0,0.6-0.4,0.6-0.7c0,0,0,0,0,0c0.3-0.1,0.5-0.2,0.8-0.3c0.7,4.5,3.2,10.3,7,13c4.6,3.3,10.5,2.4,15.6,0.5
			c10.8-4,8.4-23.1,6.5-31.8c2.7-2.2,5.3-4.5,7.8-6.7c0.3-0.3,0.6-0.6,0.9-0.9c0.1,0.2,0.2,0.4,0.4,0.4c15.1,3.5,33.7-3.3,46.8-10.3
			c15-7.9,26.9-19.8,27.7-37.6c0-0.1-0.1-0.3-0.2-0.3c1.2-0.8,2.3-1.5,3.5-2.3c13.1-9.2,32.3-24,30.3-42.1c0.2-0.3,0.2-0.8-0.1-1.1
			c-0.1-0.1-0.1-0.1-0.2-0.2c-0.1-0.1-0.1-0.1-0.2-0.2c-5.8-4.6-10.7-9-15.3-15c-4-5.3-7.8-11-12.8-15.6c0.1-0.2,0.2-0.5,0.4-0.7
			c0.6,0.1,1.2-0.4,1.3-1c0-0.2,0-0.4-0.1-0.5c-0.1-0.2-0.1-0.3-0.2-0.5c0.1-0.5-0.1-1-0.5-1.3c-1.9-5.3-3.9-10.6-6-15.9
			c17.9-4.6,33.5-15.4,47-27.7c0.3-0.3,0.4-0.7,0.3-1.1c-4.2-16.3-3.9-32.5,0-48.8c0-0.1,0-0.2-0.1-0.3
			c11.2-9.3,22.9-16.4,37.5-20.7c6-1.8,12.7-3.1,18.2-6.3c1.1-0.6,5.1-2.6,5.1-4.2C317.3,169.1,310.5,168.6,304.7,169.2L304.7,169.2
			z M68.2,51.1c8.4-11.7,20.3-21.6,32-29.8c12.1-8.5,25.6-14.9,40.2-17.7c16.6-3.2,33.9-1.1,50.2,2.5c0.2,0.1,0.5-0.1,0.6-0.3
			c27,9,49.1,23.7,64.8,47.8c7.3,11.4,12.4,24,15.1,37.2c3.3,15.5,1,30.9-0.2,46.4c0,0.3,0.1,0.6,0.3,0.8
			c-5.1,12.4-9.5,25.7-18.6,35.7c-5,5.6-11.3,10.4-17.2,14.9c-3.4,2.4-7,4.6-10.8,6.4c-1-1.7-2.8-3.8-4.7-4.2
			c0.1-0.1,0.2-0.1,0.3-0.2c19.2-12.3,25.2-34.8,30.1-55.8c1.6,0.6,3.2,1.2,4.9,1.7c1,0.3,1.7-1.2,0.7-1.7
			c-11.7-5.5-22.5-11.3-32.5-19.7c-4.6-3.9-8.8-8.2-12.7-12.9c-1.3-1.5-14.7-17.7-12.4-20c0.1-0.1,0.1-0.3,0-0.5
			c0,0-0.1-0.1-0.1-0.1l-0.2-0.1c0.5-0.6,0-1.8-0.9-1.5c-4.1,1.6-8.4,2.5-12.8,2.6c-4.5,0-5.3-3.8-3.7-7.2c0.7-1.5,1.7-2.4,1.9-3.9
			c0.7-0.5,1.4-1,2-1.6c0.8-0.7-0.3-2.1-1.2-1.5c-15.8,10.3-31.5,19.6-49.1,26.5c-17.6,6.9-35.9,10.3-54.5,13.3
			c-0.6,0.1-0.5,1.1,0.1,1.1c3.5-0.1,7.1-0.4,10.7-0.8c-9.7,19.2-3.4,45.5,7.6,62.5c4,6.1,8.9,11.5,14.6,16.1
			c-3.3-0.6-10.2-5.6-11.9-6.8c-4.8-3.4-7.7-8.1-11.5-12.3v0c0-0.1-0.1-0.3-0.2-0.3c0.1-0.1,0-0.3-0.1-0.3c-1.7-0.9-3.9-0.9-5.6,0.1
			c-2.3-2.9-4.6-5.8-6.7-8.8c-3.8-5.7-6.8-12.2-9.7-18.4c-6.8-14.6-5.9-30.6-5.7-46.3c0.1-6.5,1.5-15.2-4.4-18.3
			C60.7,67.5,62.7,58.7,68.2,51.1L68.2,51.1z M232.1,228.8c0,0.8,0.1,1.6,0,2.4c0,0.5,0,1,0,1.4c0.3,3.7-2.2,4.6-7.4,2.6
			C226.3,234,229,231.6,232.1,228.8L232.1,228.8z M228.7,241c-5.5,2.3-10.8,5.3-16.5,7.2c-5.3,1.8-11.1,2.7-16.1,5.1
			c-0.1-0.1-0.1-0.2-0.2-0.4c-7.3-15.7-15.2-32.7-26.2-46.3c17.3-0.7,34.1-5.8,48.8-14.9c-3.2,7.7-4.5,16.1-3.7,24.5
			c0.5,6.5,2.1,15.9,6.9,20.9C223.2,238.6,226.1,240.8,228.7,241L228.7,241z M162.7,208c4.4,3.4,5.1,9.7-1.1,11.6
			c-2.9,0.9-6.3-1.4-8.4-3.1c-0.6-0.5-1.1-1-1.6-1.6c0,0-1.8-2.2-2.6-3.2c0.2-0.3,0.4-0.6,0.6-0.8c0.5-0.8-0.6-1.6-1.3-1
			c-4.4,4.5-10.4,8.6-17,7.4c-8.6-1.5-4.3-13.4-1.3-19c6.9,3.3,14.2,5.6,21.7,7c3.7,0.7,7.4,1.1,11.1,1.3c-0.4,0.3-0.4,0.9-0.1,1.3
			C162.6,207.9,162.6,207.9,162.7,208L162.7,208z M156,227.9c0.4,11.4,6.7,22.4,10.9,32.8c1.3,3.3,3.4,7.7,1.8,11.4
			c-1.3,3-4.2,5.9-6.1,8.5c-2.2,3.1-4.5,6.1-6.7,9.2c-3,4.1-3.9,2-7.1-0.8c-4.1-3.5-12.9-5.8-13.1-12c-0.3-7.7,1.6-15.4,3.3-22.9
			c1.6-7.1,5.8-20,2.7-27.4C146.2,229.1,151.5,229.8,156,227.9L156,227.9z M146.7,227.3c-4.5-0.8-8.4-4.3-11.5-7.5
			c4.8-0.5,9.7-3.5,12.9-7.1c1.6,5,7.5,8.9,12.7,8.8C156.9,225.3,152.6,228.3,146.7,227.3L146.7,227.3z M157,203.3
			c-21.8-2.2-42.2-14.1-55.2-31.5c-6.3-8.4-10-18.3-12-28.5c-2.4-12.1,0.2-23,2.8-34.7c30.5-3.5,62.4-16.1,86.7-34.3
			c-1.8,2.8-2.5,6.9-0.1,9c4.4,3.8,12.6,1.7,17.6-0.8c-1,3.8,3.7,9.1,5.6,12c4.1,6.4,9,12.4,14.4,17.8c9.2,9.5,20.3,17,32.5,22.2
			c-5.8,19.6-11,39.9-28.3,52.7C203,200.4,178.8,205.5,157,203.3L157,203.3z M101,244.4l-1-0.6c-0.2-0.1-0.4-0.1-0.6,0
			c-9.1-3.6-16.7-10.1-24-16.4c-5.6-4.8-9.5-10.7-14.2-16.2c3,1,6.6-0.4,9.7-2.1c12.6-7.5,18.6-25.7,18.6-39.6
			c2.1,4.9,6.5,9.2,10.5,12.4c3.1,2.5,9.9,7.8,14.3,7.2c0.2,0,0.3-0.1,0.5-0.2l0.1,0.1c0,0-0.1,0.1-0.1,0.1
			C111.1,207.8,106.6,226.2,101,244.4L101,244.4z M67.2,208.5c-3.9,1-8.8-0.7-7.5-5.6c0.5-1.5,1.1-2.9,1.8-4.3
			C63.2,202,65.1,205.3,67.2,208.5L67.2,208.5z M88.5,168.3c-0.1,1.8-0.4,3.6-0.6,5.3c-1.2-1.8-2.5-3.5-3.9-5.2
			c0.5-0.2,1-0.4,1.5-0.5c1-0.2,2.1-0.1,3.1,0.2C88.5,168.2,88.5,168.2,88.5,168.3z M219.6,191.6c1.9,0.7,2.8,2.6,4.1,4
			c-2.1,1.1-4.1,2.1-6.1,3.3C218.2,196.4,218.9,194,219.6,191.6L219.6,191.6z M12.3,120.8c-3.8-3.1-7.1-6.7-9.7-10.8
			c-2.4-3.9,8-1.7,9.2-1.3c3.1,1.2,6.1,2.7,8.8,4.6c0.7,0.4,1.2-0.6,0.6-1.1c-0.4-0.3-0.8-0.6-1.2-0.9l0,0c-3-3-5.7-6.4-7.9-10
			c-1.9-3.2-8-16.8-0.3-17.8c3.7-0.5,8.7,6.4,10.9,8.8c2.8,3.1,5.4,6.4,8.5,9.1c0.2,0.2,0.6,0.2,0.9,0c0.1,0.1,0.1,0.2,0.2,0.3
			c0.3,0.4,0.9-0.1,0.6-0.5c-4.5-7.9-9.4-17.7-9-27c0.2-4.2,3.5-6.4,7.1-3.4c3,2.5,5.1,6,7.1,9.2c2.9,4.6,5.3,9.4,8.7,13.6
			c0.5,0.6,1.6-0.2,1.1-0.9c-0.2-0.3-0.5-0.8-0.8-1.5c-0.7-5.2-1.5-16,7.9-14.6c5,0.7,4.4,6.5,4.3,9.8c-0.1,5.2-0.2,10.4-0.3,15.6
			c-0.2,9.6-0.1,19.2,2,28.6c3.5,16.2,15,33.3,26.6,44.8c-1,6.7-3.3,13.2-6.7,19c-2.8,4.9-6.6,9.3-11.1,12.7
			c-0.4,0.3-0.9,0.6-1.4,0.8c-6.4-6.9-8.2-18.4-11.8-26.9c-5.1-12.4-10.8-24.6-18.4-35.7C31.3,135.5,21.4,128.5,12.3,120.8z
			 M87.2,282.4c-5.2,1.3-12.9-3.8-17.2-6.1c-6.1-3.4-11.9-7.2-17.4-11.6c-10.8-8.4-20.5-18.7-27.2-30.6c-4.7-8.3,2.5-14.1,6.6-20.5
			c3.1-5.1,5.7-10.5,7.8-16.1c3.9-9.9,7.2-21,7.9-31.7c4.9,9.9,8.3,20.9,13,31c0,0,0,0-0.1,0c-1.8,2.7-5.4,8.4-3,11.8
			c0.4,0.6,0.9,1.1,1.5,1.6c4.5,7.5,10.3,14.3,17,20c7.3,6.4,15,12.9,24.3,15.9C96.6,258.4,92.2,270.5,87.2,282.4
			C87.2,282.4,87.2,282.4,87.2,282.4L87.2,282.4z M80.4,304c6-12,11.3-24.4,16-37c9.3-24.8,16.1-51.1,19.1-77.4c4.1,3,8.4,5.7,13,8
			c-4.1,5.3-7,15.8-1.2,20.1c2,1.5,4.4,2.2,6.9,2.1c0,0.1,0,0.1,0,0.2c1.8,2.6,4.1,4.7,6.8,6.3c-1,1-0.3,5.8-0.4,7
			c-0.4,5.1-1.1,10.2-2.3,15.2c-1.5,6.9-3.4,13.7-4.2,20.8c-0.4,4.2-2,10.5,1.3,13.9c1.4,1.4,4.3,2.3,6,3.2
			c4.2,2.5,8.1,5.7,11.4,9.3c0.4,0.4,1.1,0.4,1.5,0c0.1-0.1,0.1-0.1,0.1-0.2c4.5-6.1,8.9-12.3,13.4-18.4c3.3-4.5,4.5-6.6,3.1-12
			c-1.7-6.5-5-12.8-7.6-19c-2.6-6.2-4-12.5-5.7-19c2.1-1.3,3.8-3,5-5.1c0.1-0.2,0.1-0.4,0-0.7c0.6-0.1,1.1-0.3,1.7-0.5
			c5.9-2.7,5.4-12-0.4-14.1c1.5,0.1,3,0.1,4.6,0.1c18.2,30.2,31.9,62,44.7,94.8c-5.9,7.2-10.6,14.7-18.4,20.3
			c-10.4,7.4-23.6,10-36,11.4c-23.7,2.5-47.5-2-70.7-6.7c-0.1-0.3-0.5-0.4-0.8-0.2c0,0-0.1,0-0.1,0.1c-3.1-0.6-6.2-1.3-9.2-1.9
			c-0.2-0.1-0.4,0.1-0.5,0.3c-2.1-0.6-4.1-1.3-6-2.3C70.6,321.9,79.6,305.7,80.4,304L80.4,304z M96.1,486
			c-3.3,11.3-15.2,17.8-26.5,14.5c-1.6-0.5-3.1-1.1-4.5-1.9c-9.9-5.5-14.2-18.1-16.2-28.5c-0.9-5.7-0.8-11.6,0.4-17.3
			c1.5,21.1,20.8,50.6,43.2,39.6c0.8-0.4,0.2-1.7-0.6-1.5c-23.6,7.2-41.3-19.7-41.8-41.2c2.2-7.2,6.5-13,14.1-13
			c5,10.9,16.9,19.4,29.1,18.6C97.3,465.8,99.6,475,96.1,486L96.1,486z M106.3,466.3c-4.1-2-6.5-8.7-8-12.8c1.5-0.7,3-1.4,4.5-2.1
			c2.8,6.8,9,13.3,16.5,13.8C115.4,467.5,110.1,468.1,106.3,466.3L106.3,466.3z M124.1,459.3c-0.5,1.8-1.6,3.5-3.1,4.7
			c-8-0.3-13.6-6.2-17.5-12.9c7.6-4,14.8-8.9,21.5-14.4C125.9,444.2,126.1,452,124.1,459.3L124.1,459.3z M131.8,427.4
			c-11.1,10.5-24.5,17.2-36.5,26.2c0,0,0,0,0,0c-12.9-1.2-23.4-6-30.2-17.3c0.1,0,0.1,0,0.2-0.1c15.6-7.9,27.4-26.4,36-41.2
			c4.5,0.8,8.9,1.6,13.4,2.2c12.1,1.5,24.3,2.1,36.4,1.9c0.7,0,1.3-0.1,1.9-0.1c-1.2,3.9-4.5,8-6.6,11.2
			C142.3,416.5,137.4,422.2,131.8,427.4L131.8,427.4z M197.6,403.7c-5.5,5.6-12.4,10-19.3,13.6c-7,3.6-14.4,6.2-22.1,7.8
			c-6.8,1.5-13.7,1.2-20.6,2.2c4.9-4.8,9.4-10.1,13.2-15.8c2-3,6.2-8.4,6-12.6c19.8-0.9,37.3-7.1,53.8-17.9
			C204.3,388.5,204.1,396.9,197.6,403.7L197.6,403.7z M241.1,336.2c0.2,18.9-19.7,33.2-33.8,42.8c-17.1,11.7-35.5,17.2-56.1,17.7
			c-19.3,0.4-38.6-1.4-57.5-5.4c-6.2-1.3-6.1-8.7-7-13.4c-1-6.2-1.6-12.5-1.8-18.7c-0.2-10.3,0.7-20.5,2.8-30.6
			c10.2,2.6,20.6,4.6,31.1,5.7c14.6,1.8,29.4,2.8,44.1,1c20.7-2.5,40.3-11.9,50.9-30.3C221.8,315.1,229.1,330.8,241.1,336.2
			L241.1,336.2z M251.8,231.1c-0.1,4.6,0.1,9.2,0.6,13.8c0.3,2.9,2.9,9.5,0.4,11.7c-13.1,11.9-27.6,19.5-44,25.8
			c-0.1,0-0.1,0.1-0.2,0.1c-3.8-9.4-7.8-18.7-12-27.9c11.5-1.2,25.5-7.5,34.6-14.2c0.1,0,0.1-0.1,0.1-0.2c0.2-0.2,0.5-0.4,0.7-0.6
			c2.7-3.2,2.3-7.3,1.6-11.2c0-0.3-0.3-0.5-0.5-0.5c7.1-6.5,15.6-14.7,16.7-15.7c2-1.9,4.1-3.7,6.2-5.4
			C253.5,214.7,252.1,222.9,251.8,231.1L251.8,231.1z M315.2,174.9c-3.2,3.8-9.8,5.2-14.2,6.6c-11.2,3.6-21.8,6.3-31.8,12.7
			c-17.5,11.2-29.2,28.8-46,40.5c-0.4-0.2-0.7-0.3-1.1-0.5c-2.7-3.6-3.6-8.8-4.6-13.1c-1.4-6.7-1.5-13.6-0.2-20.3
			c15.5-6.2,31.5-16.8,41.2-30.6c5.2-7.4,8.5-16.1,11.9-24.5c1.9-4.7,3.6-9.4,5.8-14c2.6-5.4,10.2-3.4,10.4,2.4
			c0.2,4.2-2.9,8.4-5,11.8c-0.3,0.4,0.4,1,0.7,0.6c0.1-0.1,0.2-0.2,0.2-0.3c0.2,0.1,0.5,0.2,0.7,0c4.5-2.3,8.2-5.7,12.1-8.9
			c2.4-2,15-10.9,14.7-3.1c-0.3,9-11.7,17.7-18,22.6c-0.2,0.1-0.3,0.4-0.1,0.6s0.4,0.3,0.6,0.1c0.1,0,0.1-0.1,0.2-0.1
			c0.1,0.3,0.4,0.4,0.7,0.3c7.5-2.4,14.1-7.1,21.8-9c7.6-1.9,2.3,7.3,1.5,8.6c-1.3,1.8-2.7,3.5-4.3,5c-3.7,3.6-8.2,5.9-12.9,7.8
			c-0.5,0.1-1.1,0.2-1.5,0.3c-0.8,0.2-0.4,1.3,0.3,1.2c2.4-0.4,4.8-0.7,7.2-0.7C306.8,170.9,318.2,171.4,315.2,174.9L315.2,174.9z"
			/>
		<path id="Path_855" class="st13" d="M194.9,51.3c0,0.1,0,0.2,0,0.3c1.5,6.6,7.2,8.7,13,6.6c0.3,7.1,4,14.8,10.9,17.8
			c3.2,1.4,5.9,1.7,9.1,0.3c3.9-1.7,2.8-7.7,7-9.8c7.2-3.6,8.8-12.3,5.6-19.1c-3.6-7.4-14.6-9-21.6-6.4c-0.1-1.1-0.3-2.1-0.7-3.1
			c-2.3-5.7-8.9-6.2-14-4c-2.9-8.9-9.7-15.2-18.2-18.7c-4.2-1.8-9.1-2.3-13.4-0.6c-4.5,1.8-3.3,7.7-4.8,11.2c-1.8,4.3-7,6.2-7,11.5
			c-0.1,4.4,1.7,8.6,4.9,11.6C173,56.2,186.2,55.7,194.9,51.3z M238.6,48.4c5.4,7.9-1.7,14-7.4,17.9c-4.3,2.9,0.5,10.9-10.2,8.4
			c-7.3-1.6-11.5-10.2-12.1-16.9c0.2-0.1,0.4-0.2,0.7-0.3c4.9-2.5,9-8.9,9.3-14.8c0.1,0,0.1,0,0.2,0C226.2,41,234.3,42,238.6,48.4
			L238.6,48.4z M216.6,39.7c2,4.9-2.7,11.3-5.9,14.5c-5.2,5.3-13.5,3.8-14.5-4.3c-0.5-5.9,2.9-11.4,8.4-13.6c0.2,0,0.3-0.2,0.2-0.4
			c0-0.1-0.1-0.1-0.1-0.2C209.2,34.2,214.3,34.2,216.6,39.7L216.6,39.7z M165.9,31.1c1.8-2,3.3-3.6,4.3-6.1c1.5-3.4-1.4-6.9,4.5-9.2
			c4.3-1.7,10.4,0.9,14.2,2.7c6.7,3.2,11.3,9.2,14.4,15.7c-1,0.5-1.8,1.1-2.7,1.7c-0.3,0.3-0.3,0.8-0.1,1.1c0.1,0.1,0.1,0.1,0.2,0.1
			c-3.8,2.5-6.2,7.7-6.2,12.2c-9.2,4-19.4,4.5-27.6-2C161.9,43.2,161.7,36,165.9,31.1L165.9,31.1z"/>
		<path id="Path_856" class="st13" d="M111,451.7c3.3-1.3,6.9-1.9,10.5-1.5c0.6,0.1,0.7-0.9,0.1-1c-3.7-1.1-7.8-0.5-11,1.6
			C110.2,451.1,110.4,451.9,111,451.7L111,451.7z"/>
		<path id="Path_857" class="st14" d="M249.2,134.5c-12.2-5.1-23.3-12.7-32.5-22.2c-5.4-5.4-10.3-11.3-14.4-17.8
			c-1.8-2.9-6.6-8.2-5.6-12c-5,2.5-13.2,4.6-17.6,0.8c-2.4-2.1-1.8-6.2,0.1-9c-24.4,18.2-56.2,30.7-86.7,34.3
			c-2.6,11.7-5.2,22.6-2.8,34.7c2,10.2,5.8,20.1,12,28.5c9.2,12.2,21.7,21.6,36,27c-13.2-10.4-23.1-24.4-28.6-40.3
			c-2.3-6.8-3.7-14.1-3.1-21.3s3.6-14.3,9-19.1c6.9-6.1,16.7-7.6,25.8-9.4c12.5-2.4,25.2-6,35.6-13.4c5.2,2.8,11.5,3.1,17,0.9
			c10.2,21.4,31.9,36.8,55.4,39.6C249,135.4,249.1,135,249.2,134.5L249.2,134.5z"/>
		<path id="Path_858" class="st14" d="M301,181.4c4.4-1.4,11-2.8,14.2-6.6c0.9-1,0.5-1.8-0.5-2.3c-3.3,2-7,3.4-10.8,4.2
			c-8.3,1.7-17.1,0.2-25.3,2.4c-12.1,3.2-20.6,13.6-30.3,21.5c-9.3,7.8-20.1,13.5-31.2,18.5c0.1,0.6,0.2,1.2,0.3,1.9
			c1,4.3,1.9,9.5,4.6,13.1c0.4,0.2,0.7,0.3,1.1,0.5c16.8-11.7,28.5-29.3,46-40.5C279.2,187.7,289.8,185,301,181.4L301,181.4z"/>
		<path id="Path_859" class="st14" d="M51.7,153.5c-1.9-4.9-3.5-10.1-6.9-14.2c-2.2-2.5-4.8-4.6-7.6-6.4L2.6,108.3
			c-0.4,0.4-0.5,0.9,0,1.7c2.6,4.1,5.9,7.7,9.7,10.8c9.1,7.8,19,14.7,25.8,24.7c7.6,11.1,13.3,23.3,18.4,35.7
			c3.5,8.5,5.4,20.1,11.8,26.9c0.5-0.2,1-0.5,1.4-0.8c4.1-3.2,7.6-7.1,10.4-11.6C67.6,184,57.8,169.6,51.7,153.5z"/>
		<path id="Path_860" class="st14" d="M121.6,397.9c-2.3-0.2-4.5-0.4-6.8-0.7c-4.5-0.6-9-1.3-13.4-2.2c-8.6,14.7-20.5,33.3-36,41.2
			c-0.1,0-0.1,0.1-0.2,0.1c1.1,1.7,2.3,3.4,3.6,4.9C89.7,431.4,107.9,416.5,121.6,397.9L121.6,397.9z"/>
		<path id="Path_861" class="st14" d="M154.8,398.9c0.2,3.6-2.8,8-5,11.1c0.3-0.1,0.5-0.1,0.8-0.2c10.2-2.7,20-7.4,27.4-14.7
			C170.5,397.2,162.7,398.5,154.8,398.9z"/>
		<path id="Path_862" class="st29" d="M267.2,133.6c-18.7-6.6-29.7-25.3-39.2-42.7c-2.4,3.8-3.5,8.2-3.3,12.7
			c-8.2-14-14.2-29.2-18-45c-4.9,1.3-9.5-0.5-11.3-5.5c-30.9,9.9-62.1,19.2-94.4,22.1c8.4,4.7,18.1,6.2,27.5,4.2
			c-21,10.9-43.8,17.8-67.3,20.5c-0.2,13.9-0.2,27.8,5.8,40.6c2.9,6.2,5.9,12.7,9.7,18.4c2.1,3.1,4.4,5.9,6.7,8.8
			c1.7-1,3.8-1.1,5.6-0.1c0.1,0.1,0.2,0.2,0.1,0.3c0.1,0.1,0.2,0.2,0.2,0.3c0,0,0,0,0,0c3.8,4.2,6.8,8.9,11.5,12.3
			c1.6,1.2,8.6,6.2,11.9,6.8c-5.7-4.6-10.6-10-14.6-16.1c-11.1-17-17.3-43.3-7.6-62.5c-3.6,0.4-7.2,0.7-10.7,0.8
			c-0.6,0-0.8-1-0.1-1.1c18.6-2.9,36.8-6.4,54.5-13.3c17.6-6.8,33.3-16.2,49.1-26.5c0.9-0.6,2,0.8,1.2,1.5c-0.7,0.5-1.4,1.1-2,1.6
			c-0.2,1.6-1.2,2.5-1.9,3.9c-1.5,3.4-0.7,7.2,3.7,7.2c4.4-0.1,8.7-0.9,12.8-2.6c0.9-0.3,1.4,0.9,0.9,1.5l0.2,0.1
			c0.2,0,0.3,0.2,0.2,0.4c0,0.1,0,0.1-0.1,0.1c-2.3,2.3,11,18.4,12.4,20c3.9,4.6,8.1,8.9,12.7,12.9c9.9,8.4,20.8,14.2,32.5,19.7
			c1,0.4,0.3,2-0.7,1.7c-1.6-0.5-3.2-1.1-4.9-1.7c-4.9,21-10.9,43.5-30.1,55.8c-0.1,0.1-0.2,0.1-0.3,0.2c1.9,0.4,3.7,2.5,4.7,4.2
			c3.8-1.8,7.4-3.9,10.8-6.4c5.9-4.5,12.2-9.3,17.2-14.9c9-10.1,13.4-23.4,18.6-35.7c-0.2-0.2-0.4-0.5-0.3-0.8
			c0.1-0.8,0.1-1.7,0.2-2.5C269.8,134.4,268.5,134,267.2,133.6L267.2,133.6z"/>
		<path id="Path_863" class="st4" d="M228.7,241c-2.6-0.2-5.5-2.4-7-3.9c-1.8-2-3.2-4.4-4.1-6.9c-7.5,2.2-15.8,1.5-23.5-0.3
			c-3.7-0.9-7.4-2-11.1-3.1c4.8,8.6,9,17.6,12.9,26.2c0.1,0.1,0.1,0.2,0.2,0.4c5-2.4,10.9-3.3,16.1-5.1
			C217.9,246.3,223.2,243.4,228.7,241L228.7,241z"/>
		<path id="Path_864" class="st4" d="M89.6,215.7c-4.7-3.3-8.8-7.5-12-12.3c-2,2.3-4.3,4.2-6.8,5.7c-3,1.8-6.6,3.1-9.7,2.1
			c4.7,5.4,8.6,11.4,14.2,16.2c7.4,6.3,14.9,12.8,24,16.4c0.2-0.1,0.4-0.1,0.6,0l1,0.6c2.2-7,4.2-14.2,6-21.4
			C100.8,221.7,94.9,219.2,89.6,215.7L89.6,215.7z"/>
		<path id="Path_865" class="st4" d="M182.7,327.2c-15.4,3.6-32.9,2.6-45.2-7.2c-5.8-4.6-10.4-11.7-9.2-19.1s10-13.1,16.3-9.2
			c1.6,1,2.9,2.4,4.6,3.2c1,0.4,2,0.5,3,0.2c-3.2-3.4-6.8-6.4-10.8-8.8c-1.7-1-4.6-1.8-6-3.2c-3.3-3.4-1.7-9.7-1.3-13.9
			c0.7-7,2.7-13.9,4.2-20.8c1.2-5,2-10.1,2.3-15.2c0-1.2-0.6-6,0.4-7c-2.7-1.6-5-3.7-6.8-6.3c0-0.1,0-0.1,0-0.2
			c-2.5,0.1-4.9-0.7-6.9-2.1c-5.8-4.4-2.8-14.8,1.2-20.1c-4.6-2.3-8.9-4.9-13-8c-3,26.4-9.8,52.6-19.1,77.4c-4.7,12.6-10,25-16,37
			c-0.8,1.7-9.9,17.9-9,18.3c1.9,1,3.9,1.7,6,2.3c0.1-0.2,0.3-0.3,0.5-0.3c3.1,0.6,6.1,1.2,9.2,1.9c0.2-0.2,0.6-0.2,0.8,0.1
			c0,0,0,0.1,0.1,0.1c23.2,4.7,47,9.2,70.7,6.7c9.8-1,20.1-2.9,29.1-7.3C186.1,326.3,184.4,326.8,182.7,327.2L182.7,327.2z"/>
		<path id="Path_866" class="st19" d="M162.7,208c-0.4-0.3-0.5-0.9-0.2-1.3c0-0.1,0.1-0.1,0.1-0.2c-3.7-0.2-7.4-0.6-11.1-1.3
			c-7.5-1.4-14.8-3.8-21.7-7c-2.5,4.6-5.8,13.6-2,17.4c7-9.8,20.7-12,30.5-5c2.6,1.9,4.8,4.3,6.3,7.1
			C167.3,215,166.2,210.6,162.7,208L162.7,208z"/>
		<path id="Path_867" class="st19" d="M148.1,212.6c-3.2,3.6-8.1,6.6-12.9,7.1c1.4,1.5,3,3,4.7,4.3c3.5-2.7,8.1-3.4,12.3-1.9
			c1.7,0.6,3.2,1.6,4.6,2.7c1.4-1,2.8-2.1,4-3.4C155.6,221.5,149.7,217.6,148.1,212.6L148.1,212.6z"/>
		<path id="Path_868" class="st19" d="M155.1,290.7c-3.5-4.3-6.1-9.2-7.7-14.5c-2.7-8.9-2.6-18.5-1.5-27.7c0.5-4.3,1.4-8.7,3.6-12.4
			c1.5-2.6,3.9-4.7,6.7-6c-0.1-0.7-0.2-1.4-0.2-2.1c-4.5,1.9-9.8,1.2-14.4-1.2c3,7.4-1.2,20.2-2.7,27.4c-1.6,7.5-3.6,15.2-3.3,22.9
			c0.2,6.2,9,8.5,13.1,12C151.7,291.4,152.7,293.4,155.1,290.7z"/>
		<path id="Path_869" class="st31" d="M163,335.3c-14.7,1.8-29.5,0.8-44.1-1c-10.5-1.1-20.9-3.1-31.1-5.7c-2.1,10.1-3,20.3-2.8,30.6
			c0.1,6.3,0.7,12.5,1.8,18.7c0.8,4.7,0.8,12.1,7,13.4c8.3,1.7,16.7,3.1,25.2,4c1.4-4.7,2.4-9.7,3.6-14.5
			c2.4-9.4,6.2-19.3,14.4-24.6c5.9-3.8,13.1-4.6,20-6.1c22.2-4.8,42.9-19.1,53.1-39.2C198.9,325.5,181.3,333.1,163,335.3z"/>
		<path id="Path_870" class="st32" d="M88.2,472.1c-5.4-1.7-12.9,0.2-17.4,3.5c-0.5,0.4-0.2,1.4,0.5,1.1c2.5-1,5.1-1.9,7.7-2.5
			c3-0.6,6-0.1,9-0.2c0.5,0,1-0.5,1-1C88.9,472.6,88.6,472.3,88.2,472.1z"/>
		<path id="Path_871" class="st32" d="M65.8,464.3c-0.4,0.5,0.1,1.3,0.7,0.9c7.9-5.3,15.1-5.7,24-3c0.5,0.1,1-0.2,1.1-0.7
			c0.1-0.4-0.1-0.8-0.4-1C83.5,455.8,72,457.9,65.8,464.3L65.8,464.3z"/>
		<path id="Path_872" class="st30" d="M92.9,491.7c0.1,0.3-0.1,0.6-0.3,0.8c-22.5,11-41.8-18.5-43.2-39.6
			c-1.2,5.7-1.3,11.5-0.4,17.3c2,10.4,6.4,23,16.2,28.5c9.8,5.6,22.3,2.5,28.4-7C93.3,491.7,93.1,491.7,92.9,491.7L92.9,491.7z"/>
		<path id="Path_873" class="st27" d="M96.1,486c3.5-11,1.2-20.2-2.9-30.6c-12.2,0.7-24.1-7.8-29.1-18.6c-7.6,0-11.9,5.9-14.1,13
			c0.5,21.5,18.3,48.3,41.8,41.2c0.4-0.1,0.8,0.1,0.9,0.6c0,0,0,0.1,0,0.2c0.2,0,0.4,0,0.6,0C94.6,489.9,95.5,488,96.1,486z
			 M88,474.1c-3,0.1-6-0.4-9,0.2c-2.6,0.6-5.2,1.4-7.7,2.5c-0.7,0.3-1-0.7-0.5-1.1c4.5-3.3,12-5.2,17.4-3.5c0.5,0.2,0.8,0.7,0.7,1.2
			C88.8,473.8,88.4,474,88,474.1L88,474.1z M90.5,462.2c-8.9-2.7-16.1-2.3-24,3c-0.6,0.4-1.2-0.5-0.7-0.9c6.2-6.4,17.7-8.5,25.4-3.8
			c0.4,0.3,0.6,0.8,0.3,1.3C91.3,462.1,90.9,462.3,90.5,462.2L90.5,462.2z"/>
		<path id="Path_874" class="st33" d="M96.7,483.9c-4.1,1.2-8.4,1.7-12.7,1.5c-3.5-0.1-7-0.9-10.2-2.4c-9.9-4.8-14.2-17.4-12.1-28.1
			c0.8-4.6,2.8-8.8,5.9-12.2c-1.4-1.8-2.5-3.7-3.5-5.8c-7.6,0-11.9,5.9-14.1,13c0.5,21.5,18.3,48.3,41.8,41.2
			c0.4-0.1,0.8,0.1,0.9,0.6c0,0,0,0.1,0,0.2c0.2,0,0.4,0,0.6,0c1.1-1.7,2-3.6,2.7-5.6C96.4,485.3,96.5,484.6,96.7,483.9L96.7,483.9z
			"/>
		<path id="Path_875" class="st33" d="M117.3,459.9c-2.9-2.1-5-4.9-6.2-8.3c0,0-0.1,0-0.1,0c-0.5,0.2-0.8-0.6-0.4-0.9
			c0.1,0,0.1-0.1,0.2-0.1c-0.3-1.2-0.5-2.4-0.5-3.6c-2.2,1.4-4.5,2.7-6.8,3.9c3.9,6.7,9.4,12.6,17.5,12.9c0.5-0.4,1-0.9,1.4-1.4
			C120.6,461.9,118.9,461,117.3,459.9L117.3,459.9z"/>
		<path id="Path_876" class="st34" d="M203.4,34.2c-3.1-6.5-7.7-12.5-14.4-15.7l-0.1,0c1.3,2.9,2.2,5.9,2.8,9
			c0.2,0.9,0.3,1.9,0.1,2.9c-0.6,1.7-2.2,2.8-4,3c-1.8,0.1-3.5-0.1-5.2-0.7c-0.7,4,4.4,7,4.6,11c0,2.4-1.3,4.6-3.3,5.8
			c-2,1.2-4.3,1.9-6.6,2.1c-0.2,0-0.5,0.1-0.7,0.1c5.9,1.3,12.2,0.2,18.1-2.4c-0.1-4.5,2.4-9.8,6.2-12.2c-0.4-0.2-0.5-0.7-0.3-1
			c0-0.1,0.1-0.1,0.1-0.2C201.5,35.2,202.4,34.6,203.4,34.2L203.4,34.2z"/>
		<path id="Path_877" class="st34" d="M214.9,64.8c-0.2-1.4,0.1-2.8,0.9-4c2.1-2.5,6.8-0.8,9.1-3.2c2.5-2.5,0-6.8,0.6-10.3
			c0.6-2.5,2.8-4.3,5.4-4.4c-3.9-1.1-8-1.2-11.9-0.1c-0.1,0-0.1,0-0.2,0c-0.4,5.9-4.4,12.2-9.3,14.8c-0.2,0.1-0.4,0.2-0.7,0.3
			c0.5,5.8,3.7,12.9,9.2,15.8C216.3,71,215.2,68,214.9,64.8L214.9,64.8z"/>
		<g id="Group_37" transform="translate(196.124 35.026)">
			<path id="Path_878" class="st34" d="M16,17.6c-3.2-0.7-6.7-0.3-9.2-2.4c-2.2-1.8-2.7-5.1-1.9-7.8c0.9-2.7,2.5-5,4.6-6.9
				C9.2,0.6,8.9,0.7,8.6,0.8c0.1,0.1,0.2,0.3,0,0.5c0,0-0.1,0.1-0.2,0.1C3,3.6-0.4,9.1,0.1,14.9c1,8,9.3,9.6,14.5,4.3
				C15,18.7,15.5,18.2,16,17.6L16,17.6z"/>
			<path id="Path_879" class="st34" d="M11.8,0C11.8,0,11.8,0,11.8,0L11.8,0L11.8,0z"/>
		</g>
		<path id="Path_880" class="st35" d="M174.7,15.8c-6,2.3-3.1,5.8-4.5,9.2c-1.1,2.5-2.6,4-4.3,6.1c-4.2,4.9-4,12.1,1.2,16.3
			c2,1.6,4.2,2.8,6.6,3.7c-1.7-1.5-3.3-3.2-4.7-5c-2.1-2.8-3.9-6.7-2.1-9.6c1.7-2.7,5.6-3.3,7-6.1c1-2,0.4-4.3,0.7-6.5
			c0.4-3.3,2.5-6.1,5.6-7.3c0.7-0.3,1.5-0.5,2.3-0.5C179.8,15.2,177,14.9,174.7,15.8L174.7,15.8z"/>
		<path id="Path_881" class="st35" d="M235.1,56.4c-1,0.9-2.2,1.5-3.2,2.3c-2.6,2.2-3.5,5.8-4.3,9.1c-0.6,2.5-1.4,5-2.6,7.3
			c5.3-0.4,2.6-6.4,6.2-8.9c5.7-3.9,12.8-10,7.4-17.9c-1.2-1.7-2.8-3.2-4.7-4.2l-0.7-0.1C237.8,46.1,238.8,53.1,235.1,56.4
			L235.1,56.4z"/>
		<path id="Path_882" class="st36" d="M271,90.9c-2.7-13.2-7.8-25.9-15.1-37.2c-15.7-24.2-37.8-38.8-64.8-47.8
			c-0.1,0.2-0.4,0.3-0.6,0.3c-16.3-3.6-33.6-5.7-50.2-2.5c-14.6,2.9-28.1,9.2-40.2,17.7c-11.7,8.2-23.6,18.1-32,29.8
			c-1.4,2-2.7,4.2-3.8,6.5c3.3-4,7-7.8,10.8-11.3c4.9-4.4,10-8.4,15.4-12.2c20.2-14.6,43.5-28.4,69.2-28.6
			c25-0.2,49.3,9.7,69.3,24.3c14.3,10.5,26.4,23.9,33.1,40.5c3.4,8.6,4.4,17.3,6.2,26.3c1.1,5.4,2.6,10.8,4.3,16.1
			C273,105.3,272.4,98,271,90.9L271,90.9z"/>
		<path id="Path_883" class="st26" d="M252.4,244.9c-0.5-4.6-0.7-9.2-0.6-13.8c0.3-8.1,1.7-16.1,4-23.8c0,0-0.1,0.1-0.1,0.1
			c-5.3,8-7.6,17.6-8.2,27.2c-0.6,8.5,0.2,17.1,1.1,25.6c1.4-1.2,2.9-2.4,4.3-3.6C255.3,254.4,252.7,247.8,252.4,244.9L252.4,244.9z
			"/>
		<path id="Path_884" class="st26" d="M48.6,167.9c-0.3-0.7-0.6-1.4-0.9-2.1c-0.8,10.7-4,21.8-7.9,31.7c-2.1,5.6-4.7,11-7.8,16.1
			c-4,6.3-10.9,11.9-6.9,19.8c2.9-5.1,6.7-9.7,9.8-14.6C44.5,203.8,48.3,185.8,48.6,167.9L48.6,167.9z"/>
		<path id="Path_885" class="st20" d="M157.9,287c-2.8,0.9-5.5,1.9-8.3,2.7c-0.3-0.3-0.5-0.5-0.9-0.8c-1.8-1.6-4.6-2.9-7.1-4.4
			c8.7-4.2,17.5-8.5,26.5-11.6c-1.4,2.7-3.9,5.2-5.6,7.6L157.9,287z M153,241.4c1.7-0.7,3.4-1.4,5.2-2.1c-0.9-2.8-1.5-5.6-1.9-8.5
			c-1.4,0.8-2.7,1.5-4.1,2.2c-3.3,1.8-6.6,3.6-9.9,5.4c-0.4,2.7-1,5.5-1.6,8.1C144.9,244.8,149,243.1,153,241.4L153,241.4z
			 M163.6,253c-9.3,3.2-18.3,7.1-26.9,11.7c-0.4,2.4-0.8,4.8-0.9,7.3c10.7-2.8,21.1-6.6,31.1-11.3
			C165.9,258.1,164.8,255.5,163.6,253L163.6,253z"/>
		<g id="Group_38" transform="translate(135.767 233.444)">
			<path id="Path_886" class="st8" d="M9.5,27c-2.9,1.3-5.8,2.7-8.5,4.2c-0.4,2.4-0.8,4.8-0.9,7.3c3.4-0.9,6.8-1.9,10.1-3
				C9.7,32.7,9.5,29.8,9.5,27L9.5,27z"/>
			<path id="Path_887" class="st8" d="M17.7,55c-1.7-2.4-3.1-4.9-4.3-7.5c-2.5,1.2-5,2.4-7.5,3.6c0.8,0.5,1.6,1,2.5,1.4
				c0.4,0.2,0.7,0.4,1,0.6c0.2,0.1,0.3,0.2,0.5,0.3c0.5,0.3,1,0.6,1.5,0.9c0.1,0,0.1,0.1,0.2,0.1c0.5,0.3,1,0.7,1.4,1.1
				c0.3,0.3,0.6,0.5,0.9,0.8C15.2,55.8,16.4,55.4,17.7,55L17.7,55z"/>
			<path id="Path_888" class="st8" d="M13.8,2.5C14.4,1.6,15,0.8,15.7,0c-3.1,1.6-6.1,3.3-9.2,5C6.2,7.7,5.6,10.5,5,13
				c2-0.8,4-1.6,6-2.5C11.4,7.7,12.4,5,13.8,2.5L13.8,2.5z"/>
		</g>
		<path id="Path_889" class="st37" d="M214,305c-0.2,0.3-0.4,0.6-0.6,1c4.3,13.6,11.8,26.1,21.8,36.3c-8.2,16.4-22.1,29.6-38,39
			c-10.6,6.1-21.9,10.9-33.6,14.4c15.7-2,30.7-7.7,43.8-16.7c14.1-9.6,33.9-23.9,33.8-42.8C229.1,330.8,221.8,315.1,214,305L214,305
			z"/>
		<path id="Path_890" class="st38" d="M95.5,470c-0.2-1.5-0.1-3.7-1.5-4.5c-0.2-0.1-0.4-0.1-0.6,0.1c-1.3,1-0.7,3.3-0.7,4.8
			c0,2-0.1,4,0.7,5.9c0.4,0.6,1.2,0.8,1.9,0.5c0.3-0.2,0.5-0.5,0.6-0.8C96.3,474,95.8,472,95.5,470L95.5,470z"/>
		<path id="Path_891" class="st38" d="M94.4,480.7c-0.1-0.4-0.5-0.6-0.9-0.5c-0.2,0.1-0.4,0.3-0.5,0.5c-0.2,0.7-0.2,1.5,0,2.3
			c0.1,0.4,0.5,0.6,0.9,0.5c0.2-0.1,0.4-0.3,0.5-0.5C94.6,482.2,94.6,481.4,94.4,480.7z"/>
		<path id="Path_892" class="st38" d="M124.5,447.4c-0.1-0.4-0.5-0.6-0.8-0.5c-0.2,0-0.3,0.2-0.4,0.3c-0.6,1.3-1,2.7-1.3,4.2
			c-0.5,1.7-0.7,3.4-0.7,5.2c0,0.6,0.5,1.1,1.1,1c0.5,0,0.9-0.3,1-0.8c0.5-1.4,0.8-2.9,0.9-4.4C124.6,450.8,124.7,449.1,124.5,447.4
			z"/>
		<path id="Path_893" class="st29" d="M146.5,104.2c-6.1-5.5-14.8-1.8-18.9,4.2c-2,2.9,1.7,5.7,4.4,4.4c3.7-1.7,7.5-0.4,11.3-0.9
			C146.8,111.4,149.8,107.2,146.5,104.2L146.5,104.2z"/>
		<path id="Path_894" class="st29" d="M210.5,109.7c-4-1.3-8.9-0.4-11.6,3c-1.9,2.4-0.2,6.7,3.2,5.6c1.5-0.6,3.2-0.6,4.8-0.1
			c2.5,1.1,3.8,3.1,6.8,3.5c1.3,0,2.5-0.7,3.1-1.8C219.1,114.9,214.9,111.1,210.5,109.7L210.5,109.7z"/>
		<path id="Path_895" class="st13" d="M140.5,120.6c-4.7-0.1-13.2,3.3-11.7,9.4c0.3,1,1.3,1.6,2.4,1.3c3.1-1.1,4.7-4,8.3-4.1
			c4.2-0.1,5.1,3.9,7.5,6.1c1.1,1,2.7,1,3.8-0.1c0.3-0.3,0.5-0.7,0.6-1.1C153.1,126.4,145.7,120.7,140.5,120.6L140.5,120.6z"/>
		<path id="Path_896" class="st13" d="M207.3,127.6c-5.6-1.7-13.2,0.8-14.5,7.1c-0.3,1.2,0.4,2.5,1.7,2.8c0.8,0.2,1.6,0,2.1-0.6
			c2.3-2.1,4.7-4.1,8.1-3.5c4.1,0.7,4.1,4.5,5.8,7.4c0.9,1.5,3.7,1.9,4.5,0C217.4,135.6,212.3,129.1,207.3,127.6L207.3,127.6z"/>
		<path id="Path_897" class="st29" d="M223.5,127.8c-1.9-0.4-4.4,1.2-5.9,2.2c-0.6,0.4-0.7,1.1-0.4,1.7c0.3,0.4,0.8,0.7,1.3,0.5
			c1.9-0.3,4.7-0.8,5.8-2.5c0.4-0.6,0.2-1.4-0.5-1.8C223.8,127.8,223.6,127.8,223.5,127.8z"/>
		<path id="Path_898" class="st29" d="M224.2,135.1c-1.3-0.9-3.5-0.4-4.8,0.3c-0.3,0.2-0.4,0.6-0.2,0.9c0.1,0.1,0.1,0.2,0.2,0.2
			c1.3,0.6,3.6,1.2,4.8,0.3c0.5-0.3,0.6-0.9,0.3-1.4C224.4,135.3,224.3,135.2,224.2,135.1L224.2,135.1z"/>
		<path id="Path_899" class="st29" d="M222.6,141.5c-1.2-0.6-2.5-0.9-3.9-1c-1.1-0.1-1.2,1.5-0.2,1.8c1.2,0.5,2.4,0.8,3.7,0.8
			c0.5,0,0.9-0.4,0.9-0.9C223,141.9,222.8,141.7,222.6,141.5L222.6,141.5z"/>
		<path id="Path_900" class="st29" d="M123.8,127.5c-1.5-1.1-3.4-1.7-5.3-1.5c-0.9,0.2-0.9,1.4-0.2,1.8c1.6,0.9,3.4,1.2,5.2,0.8
			c0.4-0.1,0.6-0.5,0.5-0.9C124,127.7,123.9,127.6,123.8,127.5z"/>
		<path id="Path_901" class="st29" d="M124,122.3c-1.4-1.7-3.1-3.2-5-4.2c-0.7-0.3-1.8,0.4-1.2,1.2c1.4,1.8,3.2,3.3,5.2,4.3
			c0.4,0.2,1,0.1,1.2-0.4C124.3,123,124.2,122.6,124,122.3L124,122.3z"/>
		<path id="Path_902" class="st29" d="M125.9,115.3c-0.6-0.6-2-0.2-1.9,0.8c0.2,1.7,1.1,4,2.5,5.1c0.6,0.3,1.4,0.1,1.7-0.5
			c0.1-0.2,0.2-0.4,0.2-0.6C128.5,118.4,127.1,116.4,125.9,115.3L125.9,115.3z"/>
		<path id="Path_903" class="st22" d="M169.6,144.9c-0.8,0.8,0.2,2.3,1.2,1.6c2.2-1.5,5.5-0.7,5.7,2.3c0.2,3.1-3,3.3-5.2,2.8
			c-0.7-0.2-1.4,0.3-1.6,1c-0.1,0.4,0,0.9,0.3,1.2c1.7,1.9,4.3,1.7,6.4,0.7c2.2-1,3.2-3.5,3.2-5.7c-0.1-3.2-2.8-5.7-6.1-5.6
			C172,143.3,170.6,143.9,169.6,144.9L169.6,144.9z"/>
		<path id="Path_904" class="st23" d="M145,165.8c1.8-3.6,44.5,2,48,6.5s-11,21.5-29.5,18.5S144,167.8,145,165.8z"/>
		<path id="Path_905" class="st24" d="M167.5,171.9c-7.3-0.3-14.5,2.2-20.1,7c3,6.5,9,11,16.1,11.9c10.5,1.7,19.7-3.1,25.1-8.3
			C183.3,176.2,175.7,172.4,167.5,171.9L167.5,171.9z"/>
		<path id="Path_906" class="st23" d="M210.1,152.5c1.9,4.1,6.2,7.5,10.9,7c3.2-0.3,8.6-3.3,5.2-6.8c-3.4-3.7-8.3-5.5-13.3-5
			c-1.9,0.3-3.2,2.1-3,4C210,152,210,152.3,210.1,152.5L210.1,152.5z"/>
		<path id="Path_907" class="st23" d="M130.2,139.7c-2.9-3.5-7.9-5.6-12.3-4c-3,1.1-7.5,5.4-3.3,7.9c4.2,2.7,9.5,3.2,14.2,1.4
			c1.8-0.8,2.6-2.8,1.8-4.6C130.5,140.2,130.4,139.9,130.2,139.7L130.2,139.7z"/>
	</g>
	<ellipse id="Ellipse_8" class="st39" cx="320.7" cy="746.6" rx="52.5" ry="12.2"/>
	<ellipse id="Ellipse_9" class="st39" cx="550" cy="746.6" rx="52.5" ry="12.2"/>
	<g id="Group_40" transform="translate(656.744 68.247)">
		<path id="Path_910" class="st9" d="M77.9,0.2C53.7,10.5,28.5,21.7,5.9,35.1c-1.7,1-0.6,4,1.4,3.3c24.7-9.6,49.2-22.5,72.4-35.1
			C81.7,2.1,79.9-0.7,77.9,0.2L77.9,0.2z"/>
		<path id="Path_911" class="st9" d="M80.8,1.7c-0.3,0.7-0.6,1.3-0.8,2c-0.4-0.2-0.9-0.2-1.3,0C56.5,17.3,35.1,33.3,14.6,49.3
			c-0.6,0.6-0.6,1.5-0.1,2.1c0.1,0.2,0.3,0.3,0.5,0.4c0,0.2,0,0.5,0,0.7c-0.6-0.2-1.3,0.2-1.5,0.8c-0.1,0.2-0.1,0.4,0,0.6
			c1.5,7.9,3.2,16.6,6.2,24.1c0.1,0.3,0.3,0.6,0.6,0.8c0,0-0.1,0.1-0.1,0.1c-0.7,0.7-0.6,1.9,0.1,2.5c0.7,0.6,1.7,0.6,2.4,0
			c3.4-3.3,6.6-6.7,9.6-10.3c0.5-0.6,0.4-1.4-0.2-1.8c-0.5-0.4-1.2-0.4-1.7,0c-2.7,2.2-5.2,4.6-7.7,7c-1.3-7.6-4.1-15.4-6.7-22.6
			c8.3,8.4,17.3,16.9,26.8,23.8c1.7,1.2,3.5-1.4,2.2-2.8C36.9,66,27.1,58.1,17.6,51c20.7-13.6,41.7-28,61-43.7
			c-3.7,9.6-6.4,19.8-10,29.4c-5,13.2-11.1,25.9-16.8,38.8c-0.9,2.1,1.9,3.8,3.1,1.8c6-10.9,11.2-22.2,15.7-33.8
			c5.1-12.9,11-27,12.8-40.8C83.5,1.4,81.5,0.1,80.8,1.7z"/>
		<path id="Path_912" class="st9" d="M14.1,47.2c-1.3-2.4-3.7-4.2-5.5-6.1c-1.9-2-4-3.8-6.3-5.5c-1.6-1.1-2.9,1.2-1.9,2.5
			C2,40.2,3.9,42,6,43.7c2,1.8,4,4,6.5,5.2c0.6,0.3,1.4,0.1,1.7-0.5C14.3,48,14.3,47.6,14.1,47.2z"/>
	</g>
	<path id="Path_913" class="st9" d="M659.7,134.7l-1.8,2.1c-0.6,0.8-1.1,1.6-1.6,2.4c-0.4,0.7-0.1,1.6,0.6,2
		c0.6,0.3,1.2,0.2,1.7-0.2c0.7-0.6,1.4-1.3,2-2.1l1.7-2.2C663.4,135.3,660.9,133.3,659.7,134.7z"/>
	<path id="Path_914" class="st9" d="M640.8,150.6c-2.3,1.9-4.4,3.8-6.5,5.9c-0.9,0.9,0.3,2.6,1.4,1.8c2.4-1.8,4.8-3.8,7-5.8
		C644,151.3,642.1,149.5,640.8,150.6L640.8,150.6z"/>
	<path id="Path_915" class="st9" d="M623.6,164.4c-3.4,1.9-6.6,3.9-9.8,6c-0.6,0.4-0.7,1.1-0.4,1.7c0.3,0.5,1.1,0.7,1.6,0.4
		c3.5-1.7,6.8-3.6,10.1-5.6c0.7-0.4,0.9-1.4,0.5-2.1C625.1,164.2,624.3,164,623.6,164.4z"/>
	<path id="Path_916" class="st9" d="M601.6,178.5c-3.1,1.1-6.3,2.3-9.3,3.6c-1.1,0.5-0.3,2.3,0.8,2c3.1-0.9,6.1-2,9.2-3.1
		C603.8,180.4,603.1,178,601.6,178.5L601.6,178.5z"/>
	<path id="Path_917" class="st9" d="M576.7,185c-2.8,0.6-5.5,1.2-8.2,2c-1.4,0.4-1.2,2.8,0.4,2.6c2.9-0.4,5.8-0.9,8.7-1.4
		C579.6,187.8,578.8,184.5,576.7,185z"/>
	<path id="Path_918" class="st9" d="M548.9,192.2c-1.9,0-3.9,0.1-5.8,0.3c-0.7,0-1.3,0.6-1.3,1.4c0,0.7,0.6,1.3,1.3,1.3
		c1.9,0.2,3.9,0.3,5.8,0.3C551,195.5,551,192.2,548.9,192.2z"/>
	<path id="Path_919" class="st9" d="M522.8,194.7c-1.7-0.5-3.3-1-5.1-1.3c-1.4-0.3-2.4,1.7-1,2.4c1.7,0.8,3.4,1.5,5.2,2.1
		C523.9,198.7,524.9,195.3,522.8,194.7z"/>
	<path id="Path_920" class="st9" d="M504.9,190.1c-2.3-1.2-4.6-2.3-7-3.2c-1.3-0.5-2,1.5-0.9,2.2c2.1,1.3,4.3,2.5,6.5,3.5
		C505.1,193.4,506.6,191,504.9,190.1z"/>
	<path id="Path_921" class="st9" d="M490.2,182.1c-0.9-0.9-1.9-1.7-2.9-2.5c-0.9-0.7-2.2,0.6-1.5,1.5c0.8,1,1.6,2,2.5,2.9
		C489.5,185.3,491.4,183.3,490.2,182.1z"/>
	<path id="Path_922" class="st9" d="M482.9,171.2c-1.2-1.2-2.5-2.3-3.8-3.3c-1-0.8-2.5,0.7-1.7,1.7c1,1.3,2.1,2.6,3.3,3.8
		C482.1,174.9,484.4,172.6,482.9,171.2z"/>
	<path id="Path_923" class="st9" d="M475.5,162l-0.3-0.8c-0.2-0.5-0.7-0.8-1.2-0.6c-0.3,0.1-0.5,0.3-0.6,0.6l-0.3,0.8
		c-0.2,0.7,0.2,1.3,0.9,1.5c0.7,0.2,1.3-0.2,1.5-0.9C475.6,162.5,475.6,162.3,475.5,162L475.5,162z"/>
	<g id="Group_41" transform="translate(82.014 49.873)">
		<path id="Path_924" class="st9" d="M72.5,32c-2.4-5.1-8.4-5.9-13.3-4.9c-2.8,0.7-5.3,2.2-7.2,4.3C54.3,17.1,51,1.4,34,0
			c-8-0.6-13.6,7-15.9,13.6c-3.6,10.6,3.1,21.8,8.8,30.2c0.4,0.6,1.2,0.8,1.7,0.4c0.6-0.4,0.7-1.1,0.4-1.7
			C23.3,32.3,13.5,6.3,34,4.5c7.5-0.7,12.7,7.7,14.3,13.8c2.2,8.2-1.5,17.1-3.2,25c-0.4,1.8,2.3,3.1,3.1,1.3c0.6-1.4,1.2-3,1.8-4.6
			c1.7-2.9,4-5.5,6.6-7.6c4.6-3.3,11.1-2.1,12.9,3.5c2.8,8.9-7.7,14.2-13.4,18.3c-0.3,0.2-0.6,0.6-0.7,1c-3.6-0.4-7.2-0.9-10.8-1.7
			c-7.8-1.9-13.7-6.2-20.3-10.4c-1.4-0.9-3.4,0.9-2.4,2.4c8.4,12,27.1,19.9,41.4,16c2.5-0.7,2.9-5,0-5.4c-0.8-0.1-1.6-0.2-2.5-0.3
			C69.8,51.3,77.4,42.4,72.5,32z"/>
		<path id="Path_925" class="st9" d="M17.6,39.6c-0.7-1.3-1.7-2.4-3-3.3c-1.8-5.4-8.3-8.8-13.7-7.8c-1.4,0.3-1,2.3,0.3,2.4
			c3.5,0.1,6.8,1.4,9.3,3.8C6.2,34,1.5,36,0.3,41c-0.2,0.7,0.3,1.4,1,1.6c0.6,0.1,1.1-0.1,1.5-0.6c3.3-5,9.1-6.1,13.1-1.1
			C16.6,42,18.1,40.6,17.6,39.6z"/>
	</g>
	<path id="Path_926" class="st9" d="M150.3,125.4c-1.8-2.4-3.8-4.7-5.9-6.9c-0.9-1-2.3,0.5-1.5,1.5c1.8,2.3,3.8,4.5,5.9,6.6
		C149.6,127.3,151,126.3,150.3,125.4z"/>
	<path id="Path_927" class="st9" d="M168.1,130.9c-3.4-0.4-6.9-0.6-10.3-0.4c-0.8,0-1.4,0.7-1.4,1.5c0,0.8,0.6,1.4,1.4,1.4
		c3.3,0.3,6.6,0.4,9.9,0.2C169.1,133.3,169.7,131.1,168.1,130.9z"/>
	<path id="Path_928" class="st9" d="M185.5,124.3c-2.6,1.5-5.2,3-7.6,4.7c-1.2,0.9-0.1,2.9,1.2,2.1c2.6-1.6,4.9-3.4,7.3-5.2
		C187.3,125.2,186.6,123.7,185.5,124.3z"/>
	<path id="Path_929" class="st9" d="M201.2,115.1c-2.1,1.2-4.1,2.4-6,3.8c-1.4,1.1-0.1,3.4,1.4,2.4c2-1.4,4-3,5.8-4.6
		C203.3,115.9,202.2,114.5,201.2,115.1z"/>
	<path id="Path_930" class="st9" d="M214.7,110.1c-2.2,0.4-4.5,0.9-6.7,1.5c-0.6,0.2-0.9,0.7-0.7,1.3c0.2,0.6,0.7,0.9,1.3,0.7
		c2.2-0.5,4.4-1.1,6.6-1.8c0.5-0.1,0.7-0.6,0.6-1.1C215.7,110.3,215.2,110,214.7,110.1z"/>
	<path id="Path_931" class="st9" d="M234.6,112.5c-2.5-1.1-5.1-2-7.7-2.7c-1.5-0.4-2.1,1.8-0.6,2.3c2.4,1,4.9,1.8,7.5,2.4
		C234.9,114.8,235.8,113,234.6,112.5z"/>
	<path id="Path_932" class="st9" d="M247.5,126.1c-0.9-1.8-2-3.5-3.1-5.1c-0.9-1.4-3.2-0.1-2.2,1.3c1.1,1.8,2.3,3.5,3.6,5.1
		C246.7,128.4,248,127.2,247.5,126.1z"/>
	<path id="Path_933" class="st9" d="M257.8,142.9c-1-2.5-2.7-4.5-4.4-6.6c-1.2-1.5-3.7,0.5-2.6,2c1.4,2.1,2.6,4.4,4.6,6
		C256.4,145.2,258.4,144.4,257.8,142.9z"/>
	<path id="Path_934" class="st9" d="M271.2,151.1c-2-0.9-4-1.6-6.1-2.1c-1-0.3-2,0.3-2.2,1.3c-0.3,1,0.3,2,1.3,2.2l0,0
		c1.9,0.6,3.9,1.1,5.9,1.3c0.6,0.2,1.3-0.1,1.7-0.7C272.2,152.5,272,151.6,271.2,151.1C271.2,151.1,271.2,151.1,271.2,151.1z"/>
	<path id="Path_935" class="st9" d="M280.3,150.5c-0.2-0.1-0.4-0.3-0.6-0.4c-0.8-0.5-1.9-0.2-2.4,0.6c-0.5,0.8-0.2,1.9,0.6,2.4
		c0.5,0.3,1.2,0.3,1.8,0l0.6-0.4c0.6-0.4,0.8-1.2,0.4-1.8C280.6,150.7,280.4,150.6,280.3,150.5z"/>
	<g id="Group_42" transform="translate(35.872 587.457)">
		<path id="Path_936" class="st9" d="M63.5,122.1c-1-1.4-3.6-0.6-3,1.2c2.8,7.5,6.9,19.3-5,20.6c-8.9,1-14.6-9-18.3-15.4
			c-0.1-0.2-0.3-0.3-0.5-0.4c7.7-3.4,16.1-6.6,23.2-11.2c0.7,0.4,1.6,0.3,2-0.4c0.1-0.2,0.2-0.5,0.2-0.7c0-3.6-1.7-7.4-2.7-10.8
			c0.1-0.3,0.1-0.6,0-0.9c-2.3-12.5-7.2-24.7-10.9-36.8c-4-12.7-7.7-25.6-12.2-38.2c0.3-0.5,0.5-0.9,0.7-1.4c0,0,0-0.1,0-0.1
			c0.8-0.3,1.1-1.2,0.8-2c-0.1-0.2-0.2-0.3-0.3-0.4C27.9,16.5,17.2,8.7,6.6,1.2C6.5-0.5,3.9-0.4,3.8,1.4C2.9,12.5,0.8,24.3,1.4,35.5
			C0.7,35.5,0.1,36,0,36.6c0,0.2,0,0.4,0.1,0.6l0.2,0.6c0,0.4,0.1,0.7,0.4,0.9c4.7,12.6,9.5,25.1,14.2,37.7c5,13.1,9.1,27,15.5,39.5
			c0.1,0.2,0.2,0.3,0.3,0.4c0,0.1,0,0.1,0,0.2c0.8,3.6,1.8,7.2,3,10.7c0.2,0.7,0.8,1.2,1.5,1.2c-0.3,0.3-0.4,0.7-0.2,1.1
			c3.6,8.8,11.3,20.8,22.7,18.4C71.3,145,69.9,131.2,63.5,122.1L63.5,122.1z M4.8,37.2c1.1-7,1.7-14,1.6-21.1c0.2,0.1,0.5,0.1,0.7,0
			c2.7-1,5.7-1.7,8.1-3.3c0.3-0.2,0.5-0.5,0.6-0.8C22.1,17.3,28.4,22.4,35,27c0,0-0.1,0.1-0.1,0.1c-0.4,0-0.6,0.3-0.7,0.7
			c-1.3,1.6-2.6,3.2-3.7,5l-3.9,5.6c-1.1-1-2.3-1.9-3.6-2.6l-4.9-3c-0.6-0.3-1.3-0.1-1.6,0.5c-0.2,0.3-0.2,0.7,0,1
			c-2,1.9-3.8,4.1-5.2,6.6c-1.1-0.7-2.2-1.3-3.4-1.9c-1-0.5-2.1-1.1-3.2-1.5C4.7,37.3,4.8,37.3,4.8,37.2L4.8,37.2z M18.4,75.5
			c-4.5-11.4-9-22.7-13.6-34c0.2,0.1,0.4,0.2,0.6,0.3c1.5,0.9,3,1.7,4.6,2.3c0.3,0.7,1.1,1,1.8,0.7c0.2-0.1,0.3-0.2,0.4-0.3
			c2.2-2.6,4.9-5.3,6.4-8.4l2.5,2.1c1.1,0.9,2.3,2.2,3.7,2.7c-0.5,1.2,1.4,2.2,2.2,1l5.1-6.8c0.9-1.2,1.9-2.4,2.8-3.7
			c2.8,11.4,6.2,22.6,9.4,33.8c3.8,13.2,6.6,27.2,12,39.8c0.1,0.1,0.1,0.3,0.2,0.4c0,0.1,0,0.2,0,0.3c0.6,2.6,1,5.6,1.8,8.3
			c-2.3,0.7-4.5,1.6-6.7,2.6c-0.3-1.7-0.9-3.4-1.6-4.9c0-0.1-0.1-0.2-0.2-0.3c1-0.3,2.1-0.6,3.1-1c1.8-0.7,1.7-3.8-0.5-3.6
			c-6.5,0.9-13,2.4-19.2,4.6c-0.3,0.1-0.5,0.2-0.7,0.4C29,99.5,23.2,87.4,18.4,75.5L18.4,75.5z M33.3,115.8c0.2-0.4,0.3-0.8,0.2-1.2
			c0,0,0-0.1,0-0.1c0.3,0.1,0.5,0.1,0.8,0.1c4.7-0.6,9.5-1.6,14.1-2.8c0,0.1,0,0.2,0,0.3c0.5,1.7,0.8,3.7,1.8,5.1
			c-1.1,0.5-2.2,1-3.3,1.5c0,0,0,0,0,0c0.3-1.8-1.4-3.7-2.3-5.2c-0.6-0.9-2.3-0.3-1.8,0.8l1,2.6c0.3,1,0.9,1.8,1.7,2.4
			c0.1,0,0.1,0,0.2,0.1c-3.1,1.5-6.1,3.1-9.1,4.7C35.6,121.3,34.5,118.5,33.3,115.8L33.3,115.8z"/>
		<path id="Path_937" class="st9" d="M39.5,115.8c-0.3-0.4-0.8-0.6-1.3-0.3c-0.3,0.2-0.4,0.4-0.4,0.7c-0.2,1.7,0.3,3.3,1.2,4.7
			c0.7,0.9,1.8,0,1.9-0.8C41,118.6,40.5,117.1,39.5,115.8z"/>
		<path id="Path_938" class="st9" d="M53.4,113.3l-0.4-1.1c-0.5-1.5-2.8-0.4-2,0.8c0.2,0.3,0.5,0.7,0.7,1
			C52.3,114.8,53.8,114.3,53.4,113.3L53.4,113.3z"/>
		<path id="Path_939" class="st9" d="M33.4,96.2C29.1,81.5,24,67.1,19.1,52.5c-0.3-0.8-1.6-0.5-1.3,0.4c4.5,14.6,8.9,29.3,14,43.7
			C32.1,97.6,33.7,97.2,33.4,96.2z"/>
		<path id="Path_940" class="st9" d="M46.4,96.1C42,81.4,36.3,67,31.1,52.6c-0.3-0.9-1.7-0.5-1.4,0.4c4.7,14.6,9,29.4,14.5,43.7
			C44.7,98.1,46.8,97.6,46.4,96.1z"/>
	</g>
	<path id="Path_941" class="st9" d="M108.1,659.2c-1.4,0.2-2.9,0.5-4.2,1c-0.7,0.2-1.1,1-0.9,1.7c0.2,0.7,0.9,1,1.6,0.9
		c1.4-0.3,2.8-0.8,4.1-1.4c0.5-0.3,0.7-1,0.4-1.6C108.8,659.5,108.5,659.2,108.1,659.2z"/>
	<path id="Path_942" class="st9" d="M125.8,661c-2-0.2-4-0.2-6.1-0.2c-0.6,0-1.1,0.6-1.1,1.2c0,0.6,0.5,1.1,1.1,1.1
		c2,0.1,4.1,0,6.1-0.2c0.6,0,1-0.4,1-1S126.3,661,125.8,661L125.8,661z"/>
	<path id="Path_943" class="st9" d="M141.5,671.5c-1.4-1.9-2.9-3.5-4.5-5.3c-0.9-1-2.4,0.5-1.5,1.5c1.5,1.7,2.9,3.4,4.5,4.9
		C140.8,673.3,142.1,672.4,141.5,671.5L141.5,671.5z"/>
	<path id="Path_944" class="st9" d="M165.9,694.8c-3-2.7-6.2-5.2-9.6-7.5c-1.3-1-3.1,1.3-1.8,2.3c3.1,2.6,6.4,5,9.8,7.3
		c0.6,0.3,1.4,0.1,1.8-0.5C166.4,695.8,166.3,695.2,165.9,694.8z"/>
	<path id="Path_945" class="st9" d="M184,708.2c-3-1.5-6-2.7-9.2-3.7c-2.3-0.8-3.3,2.8-1,3.7c2.9,1.3,5.9,2.3,8.9,3.1
		C184.5,711.7,185.7,709.2,184,708.2z"/>
	<path id="Path_946" class="st9" d="M211.4,714.7c-1.8,0-3.7,0-5.5,0.2c-1,0-1.8,0.8-1.8,1.8c0,1,0.8,1.8,1.8,1.8
		c2-0.2,4-0.5,5.9-0.9C213.5,717.2,213,714.7,211.4,714.7z"/>
	<path id="Path_947" class="st9" d="M236.6,708.3c-2.5,1.1-5,2.3-7.5,3.4c-2.4,1.1-0.2,4.9,2.1,3.5c2.3-1.4,4.6-2.9,6.9-4.3
		c0.7-0.4,0.9-1.4,0.4-2.1C238.1,708.1,237.3,707.9,236.6,708.3z"/>
	<path id="Path_948" class="st9" d="M251,700.5l-2.4,1.3c-2.3,1.3,0.3,4.8,2.2,2.9l2-1.9c0.6-0.6,0.5-1.6-0.1-2.1
		C252.2,700.3,251.5,700.2,251,700.5z"/>
	<path id="Path_949" class="st9" d="M262.9,688c-0.4,0.2-0.9,0.5-1.3,0.7c-1.1,0.7-1.5,2.1-0.8,3.2c0.7,1.1,2.1,1.5,3.2,0.8
		c0.3-0.2,0.6-0.5,0.8-0.8c0.2-0.4,0.5-0.9,0.7-1.3c0.5-0.9,0.2-2.1-0.7-2.6C264.2,687.7,263.5,687.7,262.9,688L262.9,688z"/>
	<path id="Path_950" class="st9" d="M273,677.2c-1.6,1.1-3.2,2.4-4.7,3.7c-2.1,2,1.2,5.4,3.2,3.2c1.3-1.5,2.5-3,3.7-4.7
		C276.1,678.1,274.3,676.3,273,677.2z"/>
	<path id="Path_951" class="st9" d="M293.3,667c-0.3-1-1.3-1.6-2.4-1.3c-1.9,0.7-3.8,1.6-5.6,2.6c-2.6,1.4-0.3,5.4,2.3,4
		c1.7-0.9,3.3-2,4.8-3.1C293.2,668.8,293.5,667.9,293.3,667z"/>
	<path id="Path_952" class="st9" d="M314.7,659.7l-3.3-0.3c-2-0.2-2,3.2,0,3l3.3-0.3c0.7,0,1.2-0.6,1.2-1.3
		C315.9,660.2,315.3,659.7,314.7,659.7z"/>
	<path id="Path_953" class="st9" d="M334.9,661.9c-2.1-0.7-4.2-1.1-6.4-1.3c-1.6-0.1-1.9,2.4-0.4,2.8c2.1,0.7,4.3,1,6.5,1.1
		c0.7,0,1.3-0.6,1.3-1.4C335.9,662.5,335.5,662,334.9,661.9L334.9,661.9z"/>
	<path id="Path_954" class="st9" d="M348.2,663l-3.2-1.1c-1-0.3-2.1,0.3-2.4,1.4s0.3,2.1,1.4,2.4c0.2,0,0.3,0.1,0.5,0.1h3.3
		c0.8,0,1.4-0.7,1.4-1.4C349.2,663.7,348.8,663.2,348.2,663z"/>
	<g id="Group_43" transform="translate(691.608 585.281)">
		<path id="Path_955" class="st9" d="M92.7,1.1C82.2,37.8,70.2,74.4,62,111.7c-8.9-9.7-19.1-18.4-28.5-27.5
			c-9.3-8.9-18.5-18-28-26.7c15.4-7.9,29.7-18.7,44.2-28.1c13.9-9,28.6-17.4,41.6-27.6c1-0.8-0.3-2.2-1.3-1.7
			c-15.6,8-30.2,18.5-45,27.8c-14,8.8-29.1,16.9-42,27.1c0,0,0,0,0,0c-0.2-0.2-0.5-0.4-0.7-0.6c-0.6-0.5-1.4-0.4-1.8,0.2
			c-0.4,0.5-0.4,1.2,0,1.7c9.8,10.5,20.2,20.4,30.4,30.5c9.9,9.8,19.5,20.5,30.2,29.5c-0.1,1.1,0.7,2.1,1.8,2.2
			c0.9,0.1,1.8-0.5,2.1-1.4C77.2,79.5,85.4,40.2,95.1,1.8c0.1-0.7-0.3-1.4-1-1.5C93.5,0.2,92.9,0.5,92.7,1.1L92.7,1.1z"/>
		<path id="Path_956" class="st9" d="M60.4,73.3c-1-0.9-2.1-1.8-3.2-2.7c1.1-7.7,0.6-15.9,0.7-23.7c0-0.2,0-0.4-0.2-0.6
			c0.8-0.7,0-2.1-1-1.5c-5.9,4.1-12.7,7.9-18,12.9l-0.2-0.2c-1.1-0.8-2.1,1-1,1.8c5.6,4.3,11.1,8.9,17,12.9c0.2,0.5,0.7,0.8,1.3,0.8
			c1.1,0.7,2.1,1.4,3.2,2C60.1,75.8,61.4,74.2,60.4,73.3L60.4,73.3z M55.3,48.2c-0.4,6.6-1.3,13.5-1.1,20.1
			c-4.5-3.3-9.1-6.3-13.7-9.4C45.7,56,50.5,51.9,55.3,48.2z"/>
		<path id="Path_957" class="st9" d="M19.9,59.6c-0.9-1.4-2.3-2.1-3.6-3c-0.5-0.3-1.2-0.1-1.5,0.4c-0.2,0.4-0.2,1,0.2,1.3
			c1.2,1.1,2.2,2.3,3.8,2.8c0.6,0.1,1.2-0.2,1.3-0.8C20,60.1,20,59.8,19.9,59.6L19.9,59.6z"/>
		<path id="Path_958" class="st9" d="M29.5,54c-0.7-1.3-1.6-2.5-2.6-3.6c-0.7-0.9-2.3,0.3-1.6,1.2c0.8,1.2,1.7,2.4,2.8,3.4
			c0.4,0.3,0.9,0.3,1.2,0C29.6,54.7,29.7,54.3,29.5,54z"/>
		<path id="Path_959" class="st9" d="M40.2,46.4c-0.7-0.9-1.5-1.8-2.3-2.6c-0.9-0.9-2.3,0.5-1.4,1.4c0.8,0.8,1.7,1.6,2.6,2.3
			c0.3,0.3,0.8,0.3,1.1,0C40.4,47.1,40.4,46.7,40.2,46.4z"/>
		<path id="Path_960" class="st9" d="M50.1,39.8c-1-1-2.2-1.9-3.4-2.7c-0.9-0.6-2,0.8-1.1,1.5c1.1,1,2.3,1.9,3.5,2.6
			c0.4,0.2,0.9,0.1,1.1-0.3C50.4,40.5,50.3,40.1,50.1,39.8L50.1,39.8z"/>
		<path id="Path_961" class="st9" d="M58.8,35.9c-0.6-1.6-1.4-3.1-2.4-4.5c-0.4-0.5-1.1-0.7-1.7-0.3c-0.5,0.3-0.7,1-0.4,1.5
			c0.7,1.5,1.7,3,2.8,4.2c0.4,0.4,1,0.4,1.4,0C58.8,36.6,58.9,36.2,58.8,35.9z"/>
		<path id="Path_962" class="st9" d="M70.1,29.3c-0.4-1.1-1.7-2-2.6-2.9c-0.3-0.3-0.8-0.3-1.1,0c-0.3,0.3-0.3,0.8,0,1.1
			c0.8,0.8,1.7,2.1,2.9,2.6c0.4,0.1,0.7-0.1,0.8-0.5C70.1,29.6,70.1,29.5,70.1,29.3L70.1,29.3z"/>
		<path id="Path_963" class="st9" d="M77.2,24.2c-1.1-0.9-2.2-1.8-3.4-2.6c-0.6-0.4-1.4,0.6-0.8,1c1.1,0.9,2.2,1.8,3.4,2.6
			c0.3,0.2,0.7,0.1,0.8-0.2C77.5,24.7,77.4,24.4,77.2,24.2L77.2,24.2z"/>
		<path id="Path_964" class="st9" d="M83.4,17.9l0,0.8c0,0.1,0.1,0.1,0.1,0.1c0.1,0,0.1-0.1,0.1-0.1c0-0.3,0-0.6,0-0.8
			c0-0.1-0.1-0.2-0.2-0.2S83.4,17.8,83.4,17.9L83.4,17.9z"/>
		<path id="Path_965" class="st9" d="M25.7,67.8c-0.9,0.8-1.7,1.6-2.5,2.5c-0.3,0.4-0.3,0.9,0,1.3c0.3,0.3,0.9,0.3,1.2,0
			c0.9-0.7,1.8-1.6,2.5-2.5c0.4-0.4,0.4-1,0-1.3S26,67.4,25.7,67.8L25.7,67.8z"/>
		<path id="Path_966" class="st9" d="M33.7,74.5c-1,1.1-1.8,2.3-2.4,3.6c-0.4,0.9,0.9,1.3,1.5,0.9c1.1-1,2-2.2,2.8-3.4
			C36.2,74.5,34.4,73.5,33.7,74.5L33.7,74.5z"/>
		<path id="Path_967" class="st9" d="M43.8,82.9c-0.2,0.5-0.5,0.9-0.6,1.4c-0.1,0.5-0.2,1-0.2,1.5c-0.1,0.8,1,0.9,1.3,0.4
			c0.6-0.8,1-1.6,1.2-2.6C45.9,82.7,44.3,82,43.8,82.9L43.8,82.9z"/>
		<path id="Path_968" class="st9" d="M53.4,88.5c-0.7,1.5-1.7,3.2-1.7,4.9c0,0.7,0.6,1.3,1.3,1.3c0.3,0,0.7-0.1,0.9-0.4
			c1.1-1.3,1.6-3.1,2.2-4.7C56.7,88.1,54.1,87,53.4,88.5L53.4,88.5z"/>
	</g>
	<path id="Path_969" class="st9" d="M567.7,647.6c-0.2-0.7-0.9-1.1-1.6-0.9c-0.7,0.2-1,0.9-0.9,1.5c0.4,2.1,1,4.1,1.8,6.1
		c0.6,1.3,2.4,0.3,2.2-0.9C568.9,651.4,568.4,649.5,567.7,647.6z"/>
	<path id="Path_970" class="st9" d="M583,674.7c-1.4-2.6-3.1-5.1-4.9-7.5c-0.8-1.2-2.7-0.1-2,1.1c1.5,2.7,3.2,5.3,5.2,7.7
		C582.2,677.1,583.5,675.8,583,674.7z"/>
	<path id="Path_971" class="st9" d="M604.2,685.9c-3.1-1.4-6.2-2.4-9.4-3.5c-1.5-0.5-2.1,1.8-0.7,2.4c3,1.2,6,2.3,9.1,3.2
		C604.5,688.3,605.4,686.4,604.2,685.9z"/>
	<path id="Path_972" class="st9" d="M633.4,686.6c-4.2-0.1-8.3,0.1-12.4,0.6c-1.8,0.2-1.8,2.8,0,2.8c4.3,0,8.5-0.3,12.8-0.9
		C635.3,688.9,634.8,686.7,633.4,686.6z"/>
	<path id="Path_973" class="st9" d="M654.8,679.5c-2,0.7-3.9,1.5-5.8,2.3c-0.5,0.2-0.8,0.7-0.6,1.2s0.7,0.8,1.2,0.6
		c0.1,0,0.1,0,0.2-0.1c1.9-0.8,3.8-1.7,5.7-2.6C656.2,680.6,655.6,679.2,654.8,679.5z"/>
	<path id="Path_974" class="st9" d="M675.4,670.2c-2.3,0.7-4.5,1.5-6.7,2.2c-1.5,0.5-0.8,3,0.7,2.4c2.3-0.9,4.6-1.8,6.8-2.8
		C677.2,671.5,676.5,669.9,675.4,670.2z"/>
	<path id="Path_975" class="st9" d="M694.4,672c-1.9-1.1-3.9-2-6-2.8c-1.2-0.5-2,1.5-0.8,2c2,0.9,4,1.7,6.1,2.4
		c0.5,0.1,1-0.2,1.1-0.7C694.9,672.6,694.7,672.2,694.4,672z"/>
	<path id="Path_976" class="st9" d="M707.7,678.6c-1-0.7-2.1-1.3-3.2-1.8c-1.3-0.7-2.5,1.3-1.1,2c1.2,0.6,2.4,1.1,3.6,1.6
		C708,680.7,708.5,679.2,707.7,678.6L707.7,678.6z"/>
	<path id="Path_977" class="st9" d="M720.8,679.7c-1.2-0.2-2.5-0.3-3.7-0.4c-2.3-0.1-2.3,3.6,0,3.5c1.2,0,2.5-0.2,3.7-0.4
		c0.8-0.2,1.2-1,1-1.8C721.7,680.2,721.3,679.9,720.8,679.7z"/>
</g>
</svg>
